<svg width="20" height="20" viewBox="0 0 20 20" fill="none" xmlns="http://www.w3.org/2000/svg">
<path d="M5.77979 7.01843L8.20899 8.45464C9.62521 9.29198 10.1913 9.29198 11.6075 8.45464L14.0367 7.01843" stroke="#1C1918" stroke-width="1.23854" stroke-linecap="round" stroke-linejoin="round"/>
<path d="M1.66439 11.1267C1.71836 13.6579 1.74536 14.9235 2.67932 15.861C3.61328 16.7985 4.91313 16.8312 7.51283 16.8965C9.11506 16.9368 10.7015 16.9368 12.3038 16.8965C14.9035 16.8312 16.2033 16.7985 17.1373 15.861C18.0713 14.9235 18.0983 13.6579 18.1522 11.1267C18.1696 10.3128 18.1696 9.50378 18.1522 8.6899C18.0983 6.1587 18.0713 4.8931 17.1373 3.95558C16.2033 3.01807 14.9035 2.98541 12.3038 2.92009C10.7015 2.87983 9.11506 2.87983 7.51282 2.92008C4.91313 2.98539 3.61328 3.01805 2.67931 3.95558C1.74535 4.89309 1.71836 6.15869 1.66438 8.6899C1.64702 9.50378 1.64703 10.3128 1.66439 11.1267Z" stroke="#1C1918" stroke-width="1.23854" stroke-linejoin="round"/>
</svg>
