<svg width="79" height="54" viewBox="0 0 79 54" fill="none" xmlns="http://www.w3.org/2000/svg">
<path d="M2.3639 2.55108C1.70195 1.80396 0.855447 0.483273 0 0C2.17459 17.0182 10.2886 33.5011 24.0007 44.096C34.4891 52.2001 47.1556 54.9294 60.2048 53.2017C66.1652 52.4125 72.1344 50.4293 77.7006 48.1651C71.7935 47.9713 65.9039 47.8175 60.0392 47.0083C44.8642 44.9143 29.8917 38.7696 18.8549 27.9053C17.5496 26.596 16.2969 25.3127 15.1873 23.829C18.6249 26.2706 21.5535 29.1605 25.1588 31.4729C25.6301 31.7784 26.1048 32.0783 26.5829 32.3729C27.061 32.6675 27.5424 32.9565 28.027 33.2399C28.5117 33.5233 28.9996 33.8013 29.4908 34.0735C29.982 34.3454 30.476 34.6119 30.973 34.8725C31.4703 35.1333 31.9704 35.3883 32.4733 35.6377C32.9764 35.887 33.4823 36.1303 33.9905 36.3678C34.4992 36.6053 35.0104 36.8369 35.5239 37.0625C36.0377 37.2881 36.5542 37.5078 37.0732 37.7216C37.5919 37.9354 38.113 38.1433 38.6365 38.345C39.16 38.5466 39.6858 38.7424 40.2138 38.9319C40.7418 39.1214 41.272 39.3049 41.8041 39.4823C42.3364 39.6597 42.8706 39.8309 43.407 39.9958C43.943 40.1607 44.481 40.3197 45.0209 40.4726C45.5604 40.6251 46.1019 40.7714 46.6452 40.9113C47.1882 41.0513 47.7328 41.1852 48.279 41.3127C48.8252 41.4403 49.3726 41.5614 49.9212 41.6763C50.4703 41.7911 51.0206 41.8997 51.572 42.0021C52.1236 42.1041 52.676 42.1999 53.2294 42.2895C53.783 42.3786 54.3376 42.4617 54.8931 42.5385C55.4487 42.615 56.0048 42.6851 56.5618 42.7487C57.1191 42.8123 57.6769 42.8697 58.235 42.9205C58.7935 42.9714 59.3525 43.016 59.9121 43.0541C60.4714 43.0918 61.031 43.1233 61.5911 43.1484C62.1512 43.1734 62.7117 43.192 63.2721 43.2039C63.8328 43.2159 64.3932 43.2215 64.9536 43.2207C65.5143 43.2199 66.075 43.2126 66.6355 43.1988C67.196 43.1849 67.7563 43.1646 68.3164 43.1381C68.8765 43.1112 69.4361 43.0779 69.9953 43.0382C70.5545 42.9986 71.1132 42.9525 71.6716 42.9001C72.2296 42.8475 72.7871 42.7882 73.3438 42.7228C73.9007 42.6572 74.4568 42.5855 75.012 42.5072C75.5672 42.4289 76.1216 42.3443 76.6746 42.253C77.4137 42.1253 78.1518 41.9907 78.8886 41.8496C73.194 39.0289 68.191 33.9256 64.1946 29.0512C60.4119 24.4376 57.285 19.8433 51.8629 17.0149C46.5079 14.2217 40.5002 13.27 34.5145 13.6188C31.6722 13.7837 28.7883 14.1617 25.9403 14.0652C21.3622 13.9102 17.0361 12.8786 12.8543 11.0035C8.49719 9.04924 5.49496 6.08439 2.3639 2.55108Z" fill="#85A37D"/>
</svg>
