<svg width="20" height="21" viewBox="0 0 20 21" fill="none" xmlns="http://www.w3.org/2000/svg">
<path d="M15.6886 8.05063C15.6886 7.37562 15.6886 6.75478 15.563 6.45131C15.4372 6.14783 15.1986 5.90918 14.7213 5.43188L10.8104 1.52094C10.3984 1.10902 10.1925 0.903052 9.93727 0.781014C9.88418 0.755624 9.82985 0.733099 9.77436 0.713522C9.50758 0.619385 9.21636 0.619385 8.63375 0.619385C5.95439 0.619385 4.61469 0.619385 3.70727 1.35101C3.52395 1.49881 3.35697 1.66579 3.20916 1.84912C2.47754 2.75654 2.47754 4.09623 2.47754 6.77563V10.5277C2.47754 13.6416 2.47754 15.1986 3.4449 16.1659C4.41226 17.1333 5.9692 17.1333 9.08309 17.1333H15.6886M9.90878 1.03223V1.44508C9.90878 3.7805 9.90878 4.9482 10.6343 5.67372C11.3599 6.39924 12.5276 6.39924 14.8629 6.39924H15.2758" stroke="#1C1918" stroke-width="1.23854" stroke-linecap="round" stroke-linejoin="round"/>
<path d="M17.34 10.5277H15.6886C15.2326 10.5277 14.8629 10.8974 14.8629 11.3534V12.5919M14.8629 12.5919V14.6562M14.8629 12.5919H16.9271M5.78027 14.6562V13.0048M5.78027 13.0048V10.5277H7.01881C7.70284 10.5277 8.25735 11.0822 8.25735 11.7663C8.25735 12.4503 7.70284 13.0048 7.01881 13.0048H5.78027ZM10.3216 10.5277H11.3832C12.165 10.5277 12.7987 11.1438 12.7987 11.9039V13.28C12.7987 14.04 12.165 14.6562 11.3832 14.6562H10.3216V10.5277Z" stroke="#1C1918" stroke-width="1.23854" stroke-linecap="round" stroke-linejoin="round"/>
</svg>
