<svg width="20" height="20" viewBox="0 0 20 20" fill="none" xmlns="http://www.w3.org/2000/svg">
<path d="M7.56188 4.71652L7.22941 3.96846C7.01202 3.47934 6.90333 3.23477 6.74077 3.04761C6.53705 2.81306 6.2715 2.64049 5.97442 2.54959C5.73737 2.47705 5.46974 2.47705 4.93449 2.47705C4.15148 2.47705 3.75998 2.47705 3.43133 2.62757C3.04419 2.80487 2.69457 3.18986 2.55527 3.59223C2.43701 3.93381 2.47089 4.28485 2.53863 4.98691C3.25973 12.4598 7.35675 16.5568 14.8296 17.278C15.5317 17.3457 15.8828 17.3796 16.2243 17.2613C16.6268 17.122 17.0117 16.7724 17.1891 16.3853C17.3395 16.0566 17.3395 15.6651 17.3395 14.8821C17.3395 14.3469 17.3395 14.0793 17.267 13.8422C17.1761 13.5451 17.0035 13.2796 16.7689 13.0758C16.5818 12.9133 16.3373 12.8045 15.8481 12.5871L15.1001 12.2547C14.5704 12.0193 14.3055 11.9016 14.0364 11.876C13.7788 11.8514 13.5191 11.8876 13.278 11.9815C13.0261 12.0796 12.8035 12.2651 12.3581 12.6363C11.9149 13.0056 11.6932 13.1903 11.4224 13.2892C11.1823 13.377 10.8649 13.4095 10.6121 13.3722C10.3268 13.3302 10.1084 13.2134 9.67153 12.98C8.31244 12.2536 7.56293 11.5042 6.8366 10.1451C6.60316 9.7082 6.48644 9.4898 6.4444 9.20452C6.40714 8.9517 6.43962 8.6343 6.52732 8.39419C6.62626 8.12338 6.81096 7.90174 7.18036 7.45846C7.55145 7.01315 7.737 6.79049 7.8351 6.53856C7.92898 6.29749 7.96512 6.03777 7.94062 5.78022C7.91502 5.51108 7.79731 5.24623 7.56188 4.71652Z" stroke="#1C1918" stroke-width="1.23854" stroke-linecap="round"/>
</svg>
