<svg width="54" height="36" viewBox="0 0 54 36" fill="none" xmlns="http://www.w3.org/2000/svg">
<path d="M25.6014 5.1665V8.48146C25.6014 10.8121 25.6014 11.9774 25.8867 13.096C26.172 14.2147 26.7312 15.2419 27.8496 17.2962L29.3651 20.0801C32.2151 25.3152 33.6402 27.9328 32.4711 29.8732L32.453 29.9028C31.2668 31.8332 28.2492 31.8332 22.214 31.8332C16.1788 31.8332 13.1612 31.8332 11.9751 29.9028L11.957 29.8732C10.788 27.9328 12.2129 25.3152 15.0629 20.0801L16.5784 17.2962C17.6968 15.2419 18.256 14.2147 18.5413 13.096C18.8267 11.9774 18.8267 10.8121 18.8267 8.48146V5.1665" stroke="#131313" stroke-width="2"/>
<path d="M18.2139 23.8367L18.2254 23.8335" stroke="#DE392E" stroke-width="2.66667" stroke-linecap="round" stroke-linejoin="round"/>
<path d="M26.2139 26.5032L26.2255 26.5" stroke="#DE392E" stroke-width="2.66667" stroke-linecap="round" stroke-linejoin="round"/>
<path d="M16.8804 5.1665H27.547" stroke="#131313" stroke-width="2" stroke-linecap="round" stroke-linejoin="round"/>
<path d="M16.2139 17.9081C17.5472 16.3703 19.6797 17.4788 22.2139 18.924C25.5472 20.8249 27.5472 19.3664 28.2139 17.9867" stroke="#131313" stroke-width="2" stroke-linecap="round"/>
<path d="M6.29168 6.67294L7.34105 3.66815L5.21358 1.20306L2.08763 1.80173L1.03826 4.80652L3.16574 7.27162L6.29168 6.67294Z" fill="#DE392E"/>
<path d="M51.3183 30.8972L50.7157 24.9419L45.1289 22.4339L40.2784 25.9413L40.881 31.8967L46.4678 34.4046L51.3183 30.8972Z" fill="#DE392E"/>
</svg>
