<svg width="54" height="36" viewBox="0 0 54 36" fill="none" xmlns="http://www.w3.org/2000/svg">
<path d="M21.1777 10.5V13.152C21.1777 15.0164 21.1777 15.9487 21.4273 16.8436C21.6769 17.7385 22.1662 18.5603 23.1449 20.2039L24.4709 22.4309C26.9646 26.6189 28.2116 28.7129 27.1886 30.2653L27.1728 30.2891C26.1349 31.8333 23.4945 31.8333 18.2137 31.8333C12.9329 31.8333 10.2925 31.8333 9.25464 30.2891L9.23882 30.2653C8.21589 28.7129 9.46276 26.6189 11.9565 22.4309L13.2825 20.2039C14.2611 18.5603 14.7505 17.7385 15.0001 16.8436C15.2498 15.9487 15.2498 15.0164 15.2498 13.152V10.5" stroke="#131313" stroke-width="2"/>
<path d="M14.2139 10.5H22.2139" stroke="#131313" stroke-width="2" stroke-linecap="round" stroke-linejoin="round"/>
<path d="M13.5474 20.2073C14.4363 19.4322 16.5267 19.991 18.2161 20.7193C20.4383 21.6773 22.4363 20.9027 22.8807 20.2073" stroke="#131313" stroke-width="2" stroke-linecap="round"/>
<path d="M21.5472 11.8332C21.5472 14.4998 24.6971 17.4493 26.8443 17.1665C26.8443 19.3757 28.7925 21.1665 31.1957 21.1665C33.5989 21.1665 35.5472 19.3757 35.5472 17.1665C35.5472 14.9574 34.2139 13.1665 31.5472 13.1665C31.5472 10.4998 29.5472 7.83317 26.7204 7.83317C26.7204 5.77566 25.5472 5.1665 24.2139 5.1665C22.8805 5.1665 22.2139 6.49984 22.2139 6.49984C22.2139 6.49984 18.2139 6.49984 18.2139 10.4998" stroke="#DE392E" stroke-width="2" stroke-linecap="round" stroke-linejoin="round"/>
<path d="M6.29168 6.67294L7.34105 3.66815L5.21358 1.20306L2.08763 1.80173L1.03826 4.80652L3.16574 7.27162L6.29168 6.67294Z" fill="#DE392E"/>
<path d="M51.3183 30.8972L50.7157 24.9419L45.1289 22.4339L40.2784 25.9413L40.881 31.8967L46.4678 34.4046L51.3183 30.8972Z" fill="#DE392E"/>
</svg>
