<svg width="54" height="36" viewBox="0 0 54 36" fill="none" xmlns="http://www.w3.org/2000/svg">
<path d="M25.2148 8.5H16.2148C15.6844 8.5 15.1757 8.71071 14.8006 9.08579C14.4256 9.46086 14.2148 9.96957 14.2148 10.5V26.5C14.2148 27.0304 14.4256 27.5391 14.8006 27.9142C15.1757 28.2893 15.6844 28.5 16.2148 28.5H28.2148C28.7453 28.5 29.254 28.2893 29.6291 27.9142C30.0041 27.5391 30.2148 27.0304 30.2148 26.5V13.5L25.2148 8.5Z" stroke="#131313" stroke-width="2" stroke-linecap="round" stroke-linejoin="round"/>
<path d="M24.2148 8.5V12.5C24.2148 13.0304 24.4256 13.5391 24.8006 13.9142C25.1757 14.2893 25.6844 14.5 26.2148 14.5H30.2148" stroke="#131313" stroke-width="2" stroke-linecap="round" stroke-linejoin="round"/>
<path d="M20.2148 15.5H18.2148" stroke="#DE392E" stroke-width="2" stroke-linecap="round" stroke-linejoin="round"/>
<path d="M26.2148 19.5H18.2148" stroke="#DE392E" stroke-width="2" stroke-linecap="round" stroke-linejoin="round"/>
<path d="M26.2148 23.5H18.2148" stroke="#DE392E" stroke-width="2" stroke-linecap="round" stroke-linejoin="round"/>
<path d="M6.29168 6.67294L7.34105 3.66815L5.21358 1.20306L2.08763 1.80173L1.03826 4.80652L3.16574 7.27162L6.29168 6.67294Z" fill="#DE392E"/>
<path d="M51.3183 30.8972L50.7157 24.9419L45.1289 22.4339L40.2784 25.9413L40.881 31.8967L46.4678 34.4046L51.3183 30.8972Z" fill="#DE392E"/>
</svg>
