<svg width="54" height="36" viewBox="0 0 54 36" fill="none" xmlns="http://www.w3.org/2000/svg">
<path d="M8.88044 13.8335L8.87756 21.1628C8.87584 25.564 8.87497 27.7647 10.2419 29.1322C11.6088 30.4996 13.8094 30.4996 18.2107 30.4998L26.2121 30.4999C30.6113 30.5 32.8107 30.5002 34.1775 29.1336C35.5443 27.7671 35.5449 25.5675 35.5457 21.1684L35.5471 13.8335" stroke="#131313" stroke-width="2" stroke-linecap="round" stroke-linejoin="round"/>
<path d="M17.5439 11.1667C17.5439 9.29405 17.5439 8.35775 17.9934 7.68515C18.1879 7.39397 18.4379 7.14397 18.7291 6.94941C19.4017 6.5 20.338 6.5 22.2107 6.5C24.0832 6.5 25.0196 6.5 25.6921 6.94941C25.9833 7.14397 26.2333 7.39397 26.4279 7.68515C26.8773 8.35775 26.8773 9.29405 26.8773 11.1667" stroke="#131313" stroke-width="2" stroke-linecap="round" stroke-linejoin="round"/>
<path d="M32.8766 11.1667L11.5444 11.1665C10.0718 11.1666 8.87757 12.3607 8.87744 13.8333C8.87757 16.7786 11.266 19.167 14.2112 19.1673H30.2096C33.155 19.1672 35.5432 16.7789 35.5434 13.8336C35.5432 12.3609 34.3491 11.1668 32.8766 11.1667Z" stroke="#131313" stroke-width="2" stroke-linecap="round" stroke-linejoin="round"/>
<path d="M19.5439 19.1665V20.4998C19.5439 21.1198 19.5439 21.4298 19.6121 21.6841C19.7971 22.3744 20.3361 22.9134 21.0263 23.0984C21.2807 23.1665 21.5907 23.1665 22.2107 23.1665C22.8307 23.1665 23.1405 23.1665 23.3949 23.0984C24.0851 22.9134 24.6243 22.3744 24.8092 21.6841C24.8773 21.4298 24.8773 21.1198 24.8773 20.4998V19.1665" stroke="#131313" stroke-width="2" stroke-linecap="round" stroke-linejoin="round"/>
<path d="M6.29168 6.67294L7.34105 3.66815L5.21358 1.20306L2.08763 1.80173L1.03826 4.80652L3.16574 7.27162L6.29168 6.67294Z" fill="#DE392E"/>
<path d="M51.3183 30.8972L50.7157 24.9419L45.1289 22.4339L40.2784 25.9413L40.881 31.8967L46.4678 34.4046L51.3183 30.8972Z" fill="#DE392E"/>
</svg>
