<svg width="54" height="36" viewBox="0 0 54 36" fill="none" xmlns="http://www.w3.org/2000/svg">
<path d="M8.87939 16.5002C8.87939 15.4724 8.89734 14.4692 8.93151 13.5006C9.04315 10.3359 9.09898 8.75362 10.3862 7.45676C11.6733 6.15991 13.3003 6.0903 16.5543 5.95108C18.3396 5.8747 20.2406 5.8335 22.2127 5.8335C24.1849 5.8335 26.0858 5.8747 27.8711 5.95108C31.1251 6.0903 32.7522 6.15991 34.0393 7.45676C35.3265 8.75362 35.3823 10.3359 35.4939 13.5006C35.5281 14.4692 35.5461 15.4724 35.5461 16.5002C35.5461 17.5279 35.5281 18.5311 35.4939 19.4998C35.3823 22.6644 35.3265 24.2467 34.0393 25.5436C32.7522 26.8404 31.1251 26.91 27.871 27.0492C26.8925 27.0911 25.8791 27.1224 24.8385 27.1422C23.8503 27.1608 23.3562 27.1703 22.9221 27.3356C22.4879 27.501 22.1227 27.8142 21.3921 28.4406L18.4861 30.9324C18.3097 31.0836 18.085 31.1668 17.8526 31.1668C17.3151 31.1668 16.8794 30.7311 16.8794 30.1936V27.0627C16.7706 27.0583 16.6623 27.0539 16.5543 27.0492C13.3003 26.91 11.6733 26.8404 10.3862 25.5435C9.09898 24.2467 9.04315 22.6644 8.93151 19.4998C8.89734 18.5311 8.87939 17.5279 8.87939 16.5002Z" stroke="#131313" stroke-width="2" stroke-linecap="round" stroke-linejoin="round"/>
<path d="M28.8797 16.5C28.8797 16.5 26.1571 20.5 22.2131 20.5C18.269 20.5 15.5464 16.5 15.5464 16.5C15.5464 16.5 18.2131 12.5 22.2131 12.5C26.2131 12.5 28.8797 16.5 28.8797 16.5Z" stroke="#DE392E" stroke-width="2" stroke-linecap="round" stroke-linejoin="round"/>
<path d="M22.1997 16.5H22.2117" stroke="#131313" stroke-width="2.66667" stroke-linecap="round" stroke-linejoin="round"/>
<path d="M6.29168 6.67294L7.34105 3.66815L5.21358 1.20306L2.08763 1.80173L1.03826 4.80652L3.16574 7.27162L6.29168 6.67294Z" fill="#DE392E"/>
<path d="M51.3183 30.8972L50.7157 24.9419L45.1289 22.4339L40.2784 25.9413L40.881 31.8967L46.4678 34.4046L51.3183 30.8972Z" fill="#DE392E"/>
</svg>
