<svg width="18" height="17" viewBox="0 0 18 17" fill="none" xmlns="http://www.w3.org/2000/svg">
<path d="M3.86572 16.2917V5.29908H0.215175V16.2917H3.86572ZM2.04121 3.79848C3.31397 3.79848 4.10634 2.95437 4.10634 1.89948C4.08252 0.820548 3.31397 0 2.06542 0C0.816008 0 0 0.820548 0 1.89938C0 2.95428 0.792089 3.79839 2.01729 3.79839L2.04121 3.79848ZM5.88635 16.2917H9.53661V10.1536C9.53661 9.8255 9.56043 9.49654 9.65687 9.26219C9.92064 8.6055 10.5213 7.92574 11.53 7.92574C12.8506 7.92574 13.3792 8.9337 13.3792 10.4116V16.2917H17.0293V9.98889C17.0293 6.61255 15.2286 5.04137 12.8269 5.04137C10.8579 5.04137 9.99307 6.1429 9.51259 6.89316H9.53689V5.29946H5.88654C5.93419 6.33071 5.88635 16.2917 5.88635 16.2917Z" fill="#F6F4E6"/>
</svg>
