<svg width="128" height="65" viewBox="0 0 128 65" fill="none" xmlns="http://www.w3.org/2000/svg">
<path d="M5.09313 46.7286C3.63074 46.741 1.35709 46.4053 0 46.8854C20.8942 60.859 46.9123 67.7556 71.8122 62.8017C90.8582 59.0124 106.062 47.6448 116.71 31.5656C121.574 24.2211 125.127 15.718 127.981 7.38984C122.083 13.7294 116.246 20.0883 109.708 25.7888C92.7926 40.5391 71.5963 51.1678 48.9732 52.907C46.2706 53.0891 43.6473 53.2382 40.9405 53.0364C46.9458 51.5881 52.9566 51.1333 58.9807 49.3753C59.7717 49.1486 60.5598 48.9128 61.3454 48.6681C62.1309 48.4233 62.9134 48.1696 63.6929 47.9069C64.4724 47.6442 65.2489 47.3726 66.0223 47.0919C66.7954 46.8109 67.5652 46.5215 68.3314 46.2232C69.0981 45.9248 69.8611 45.6176 70.6204 45.302C71.38 44.9861 72.1356 44.6613 72.887 44.3283C73.6389 43.9948 74.3866 43.653 75.13 43.3027C75.8737 42.9522 76.6135 42.593 77.3491 42.2254C78.0844 41.8581 78.8155 41.4824 79.5421 41.098C80.2686 40.7137 80.9908 40.3211 81.7083 39.9202C82.4257 39.5193 83.1387 39.1101 83.8467 38.6929C84.5549 38.2756 85.2581 37.8501 85.9564 37.4161C86.6543 36.9826 87.3477 36.5412 88.0361 36.0919C88.7238 35.6426 89.4064 35.1852 90.0838 34.7196C90.761 34.2543 91.433 33.7815 92.0995 33.3008C92.7661 32.8201 93.4266 32.332 94.0815 31.8364C94.7367 31.3402 95.3861 30.8368 96.0299 30.3261C96.6733 29.8149 97.3107 29.2967 97.9422 28.7715C98.5734 28.2457 99.1988 27.7129 99.8183 27.173C100.437 26.6329 101.05 26.086 101.656 25.5318C102.263 24.9773 102.863 24.4163 103.456 23.8486C104.05 23.2805 104.637 22.7059 105.217 22.1243C105.797 21.5427 106.371 20.9547 106.937 20.3601C107.504 19.7653 108.064 19.164 108.616 18.5563C109.169 17.9484 109.714 17.3347 110.253 16.7147C110.792 16.0945 111.323 15.4681 111.847 14.8355C112.371 14.2029 112.888 13.5643 113.398 12.92C113.907 12.2754 114.408 11.6251 114.903 10.9691C115.397 10.3132 115.884 9.65161 116.363 8.98419C116.842 8.31714 117.313 7.64413 117.776 6.96609C118.24 6.28776 118.696 5.60438 119.144 4.91568C119.591 4.22698 120.031 3.53306 120.462 2.83419C121.033 1.89472 121.594 0.94984 122.147 -3.94422e-05C113.551 3.57718 103.099 4.19365 93.8681 3.91843C85.131 3.658 77.0463 2.69175 68.7041 5.96029C60.4652 9.18872 53.6327 14.9102 48.2582 21.8588C45.7053 25.1577 43.3479 28.7075 40.5007 31.7611C35.9241 36.6698 30.6215 40.4566 24.5259 43.2723C18.1741 46.2055 12.0096 46.6694 5.09313 46.7286Z" fill="#85A37D"/>
</svg>
