<svg width="54" height="36" viewBox="0 0 54 36" fill="none" xmlns="http://www.w3.org/2000/svg">
<path d="M14.7139 9.5H29.7139" stroke="#131313" stroke-width="2" stroke-linecap="round" stroke-linejoin="round"/>
<path d="M16.2139 9.5V25.5C16.2139 26.0304 16.4246 26.5391 16.7997 26.9142C17.1747 27.2893 17.6834 27.5 18.2139 27.5H26.2139C26.7443 27.5 27.253 27.2893 27.6281 26.9142C28.0032 26.5391 28.2139 26.0304 28.2139 25.5V9.5" stroke="#131313" stroke-width="2" stroke-linecap="round" stroke-linejoin="round"/>
<path d="M16.2139 20.5H28.2139" stroke="#DE392E" stroke-width="2" stroke-linecap="round" stroke-linejoin="round"/>
<path d="M6.29119 6.67294L7.34057 3.66815L5.21309 1.20306L2.08715 1.80173L1.03777 4.80652L3.16525 7.27162L6.29119 6.67294Z" fill="#DE392E"/>
<path d="M51.3183 30.8972L50.7157 24.9419L45.1289 22.4339L40.2784 25.9413L40.881 31.8967L46.4678 34.4046L51.3183 30.8972Z" fill="#DE392E"/>
</svg>
