<svg width="54" height="36" viewBox="0 0 54 36" fill="none" xmlns="http://www.w3.org/2000/svg">
<path d="M25.2139 8.5H16.2139C15.6834 8.5 15.1747 8.71071 14.7997 9.08579C14.4246 9.46086 14.2139 9.96957 14.2139 10.5V26.5C14.2139 27.0304 14.4246 27.5391 14.7997 27.9142C15.1747 28.2893 15.6834 28.5 16.2139 28.5H28.2139C28.7443 28.5 29.253 28.2893 29.6281 27.9142C30.0032 27.5391 30.2139 27.0304 30.2139 26.5V13.5L25.2139 8.5Z" stroke="#131313" stroke-width="2" stroke-linecap="round" stroke-linejoin="round"/>
<path d="M24.2139 8.5V12.5C24.2139 13.0304 24.4246 13.5391 24.7997 13.9142C25.1747 14.2893 25.6834 14.5 26.2139 14.5H30.2139" stroke="#131313" stroke-width="2" stroke-linecap="round" stroke-linejoin="round"/>
<path d="M20.2139 15.5H18.2139" stroke="#DE392E" stroke-width="2" stroke-linecap="round" stroke-linejoin="round"/>
<path d="M26.2139 19.5H18.2139" stroke="#DE392E" stroke-width="2" stroke-linecap="round" stroke-linejoin="round"/>
<path d="M26.2139 23.5H18.2139" stroke="#DE392E" stroke-width="2" stroke-linecap="round" stroke-linejoin="round"/>
<path d="M6.29119 6.67294L7.34057 3.66815L5.21309 1.20306L2.08715 1.80173L1.03777 4.80652L3.16525 7.27162L6.29119 6.67294Z" fill="#DE392E"/>
<path d="M51.3183 30.8972L50.7157 24.9419L45.1289 22.4339L40.2784 25.9413L40.881 31.8967L46.4678 34.4046L51.3183 30.8972Z" fill="#DE392E"/>
</svg>
