<svg width="54" height="36" viewBox="0 0 54 36" fill="none" xmlns="http://www.w3.org/2000/svg">
<path d="M22.2139 13.5V27.5" stroke="#DE392E" stroke-width="2" stroke-linecap="round" stroke-linejoin="round"/>
<path d="M13.2139 24.5C12.9487 24.5 12.6943 24.3946 12.5068 24.2071C12.3192 24.0196 12.2139 23.7652 12.2139 23.5V10.5C12.2139 10.2348 12.3192 9.98043 12.5068 9.79289C12.6943 9.60536 12.9487 9.5 13.2139 9.5H18.2139C19.2747 9.5 20.2921 9.92143 21.0423 10.6716C21.7924 11.4217 22.2139 12.4391 22.2139 13.5C22.2139 12.4391 22.6353 11.4217 23.3854 10.6716C24.1356 9.92143 25.153 9.5 26.2139 9.5H31.2139C31.4791 9.5 31.7334 9.60536 31.921 9.79289C32.1085 9.98043 32.2139 10.2348 32.2139 10.5V23.5C32.2139 23.7652 32.1085 24.0196 31.921 24.2071C31.7334 24.3946 31.4791 24.5 31.2139 24.5H25.2139C24.4182 24.5 23.6552 24.8161 23.0925 25.3787C22.5299 25.9413 22.2139 26.7044 22.2139 27.5C22.2139 26.7044 21.8978 25.9413 21.3352 25.3787C20.7726 24.8161 20.0095 24.5 19.2139 24.5H13.2139Z" stroke="#131313" stroke-width="2" stroke-linecap="round" stroke-linejoin="round"/>
<path d="M6.29119 6.67294L7.34057 3.66815L5.21309 1.20306L2.08715 1.80173L1.03777 4.80652L3.16525 7.27162L6.29119 6.67294Z" fill="#DE392E"/>
<path d="M51.3183 30.8972L50.7157 24.9419L45.1289 22.4339L40.2784 25.9413L40.881 31.8967L46.4678 34.4046L51.3183 30.8972Z" fill="#DE392E"/>
</svg>
