<svg width="65" height="51" viewBox="0 0 65 51" fill="none" xmlns="http://www.w3.org/2000/svg">
<g clip-path="url(#clip0_379_374)">
<path d="M33.0368 29.9868H32.4251C32.263 29.9868 32.1074 30.0513 31.9927 30.166L26.3087 35.85L20.6248 30.166C20.5101 30.0513 20.3545 29.9868 20.1923 29.9868H19.5807C13.1976 30.0707 8.04339 35.2249 7.95947 41.608V43.4429C7.95947 43.7807 8.23334 44.0546 8.57111 44.0546C8.90889 44.0546 9.18276 43.7807 9.18276 43.4429V41.608C9.24517 37.0685 12.1995 33.0758 16.5225 31.6891V35.201C14.7918 35.3611 13.4669 36.8116 13.4642 38.5498V41.608C13.4642 41.9458 13.7381 42.2197 14.0759 42.2197H15.2992C15.637 42.2197 15.9108 41.9458 15.9108 41.608C15.9108 41.2702 15.637 40.9964 15.2992 40.9964H14.6875V38.5498C14.6875 37.3674 15.6459 36.4091 16.8283 36.4091H17.4399C18.6223 36.4091 19.5807 37.3674 19.5807 38.5498V40.9964H18.969C18.6312 40.9964 18.3574 41.2702 18.3574 41.608C18.3574 41.9458 18.6312 42.2197 18.969 42.2197H20.1923C20.5301 42.2197 20.8039 41.9458 20.8039 41.608V38.5498C20.8013 36.8116 19.4764 35.3611 17.7457 35.201V31.3893C18.3505 31.2728 18.9648 31.2131 19.5807 31.2101H19.939L25.6971 36.9681V43.4429C25.6971 43.7807 25.9709 44.0546 26.3087 44.0546C26.6465 44.0546 26.9204 43.7807 26.9204 43.4429V36.9681L32.6784 31.2101H33.0368C33.6526 31.2131 34.2669 31.2728 34.8717 31.3893V37.4134C33.6789 37.7213 32.9009 38.8685 33.0562 40.0906C33.2115 41.3126 34.2514 42.2289 35.4833 42.2289C36.7153 42.2289 37.7552 41.3126 37.9105 40.0906C38.0658 38.8685 37.2878 37.7213 36.095 37.4134V31.6891C40.418 33.0758 43.3723 37.0685 43.4347 41.608V43.4429C43.4347 43.7807 43.7086 44.0546 44.0463 44.0546C44.3841 44.0546 44.658 43.7807 44.658 43.4429V41.608C44.5741 35.2249 39.4199 30.0707 33.0368 29.9868ZM36.7066 39.7731C36.7066 40.4486 36.1589 40.9964 35.4833 40.9964C34.8078 40.9964 34.2601 40.4486 34.2601 39.7731C34.2601 39.0975 34.8078 38.5498 35.4833 38.5498C36.1589 38.5498 36.7066 39.0975 36.7066 39.7731Z" fill="#131313"/>
<path d="M18.3583 21.424H18.4022C18.6757 23.993 20.608 26.1561 22.6568 27.4547C22.649 27.4827 22.6433 27.5114 22.6398 27.5404V29.9869C22.6398 30.3247 22.9136 30.5986 23.2514 30.5986C23.5892 30.5986 23.863 30.3247 23.863 29.9869V28.1135C24.6246 28.4976 25.4579 28.7192 26.3096 28.7637C27.1614 28.7192 27.9946 28.4976 28.7562 28.1135V29.9869C28.7562 30.3247 29.03 30.5986 29.3678 30.5986C29.7056 30.5986 29.9795 30.3247 29.9795 29.9869V27.5404C29.9759 27.5114 29.9702 27.4827 29.9624 27.4547C32.0112 26.1561 33.9435 23.9897 34.2171 21.424H34.261C35.4636 21.4266 36.4889 20.5522 36.6762 19.3641C36.8634 18.1761 36.1571 17.0287 35.0121 16.661C35.5222 14.6347 35.7318 13.7755 35.466 12.7128C34.8003 10.0504 31.442 7.3562 26.3096 7.3562C21.1773 7.3562 17.8189 10.0504 17.1532 12.7128C16.8874 13.7755 17.0971 14.6347 17.6072 16.661C16.4621 17.0287 15.7558 18.1761 15.9431 19.3641C16.1303 20.5522 17.1556 21.4266 18.3583 21.424ZM26.3096 27.5404C24.0942 27.5404 19.5816 24.426 19.5816 20.8123V17.5394C23.0256 16.9283 26.3108 15.6283 29.2406 13.7172C29.9959 14.7105 31.5581 16.598 33.0377 17.3871V20.8123C33.0377 24.426 28.525 27.5404 26.3096 27.5404ZM35.4842 18.9774C35.4842 19.6529 34.9365 20.2007 34.261 20.2007V17.7541C34.9365 17.7541 35.4842 18.3018 35.4842 18.9774ZM18.3401 13.0091C18.877 10.8615 21.8525 8.57948 26.3096 8.57948C30.7667 8.57948 33.7422 10.8615 34.2792 13.0091C34.4733 13.7865 34.2935 14.5063 33.8115 16.4218C32.6811 15.9419 30.908 13.9639 29.8651 12.5074C29.7665 12.3691 29.6145 12.2783 29.4461 12.2562C29.2776 12.2344 29.1077 12.2834 28.9769 12.3918C28.9422 12.4211 25.5047 15.2024 18.8116 16.4373C18.3266 14.5086 18.1453 13.7883 18.3401 13.0091ZM18.3583 17.7541V20.2007C17.6827 20.2007 17.135 19.6529 17.135 18.9774C17.135 18.3018 17.6827 17.7541 18.3583 17.7541Z" fill="#131313"/>
<path d="M31.2027 18.9774C31.2027 19.653 30.6549 20.2007 29.9794 20.2007C29.3038 20.2007 28.7561 19.653 28.7561 18.9774C28.7561 18.3019 29.3038 17.7542 29.9794 17.7542C30.6549 17.7542 31.2027 18.3019 31.2027 18.9774Z" fill="#131313"/>
<path d="M23.8628 18.9774C23.8628 19.653 23.3151 20.2007 22.6395 20.2007C21.964 20.2007 21.4163 19.653 21.4163 18.9774C21.4163 18.3019 21.964 17.7542 22.6395 17.7542C23.3151 17.7542 23.8628 18.3019 23.8628 18.9774Z" fill="#131313"/>
<path d="M27.7609 23.3942C26.896 24.0258 25.7217 24.0258 24.8568 23.3942C24.6875 23.2478 24.4519 23.2054 24.2425 23.284C24.0329 23.3625 23.8829 23.5492 23.8513 23.7705C23.8199 23.9921 23.9119 24.2131 24.0911 24.3469C25.4004 25.3477 27.2174 25.3477 28.5267 24.3469C28.7059 24.2131 28.7979 23.9921 28.7665 23.7705C28.7348 23.5492 28.5849 23.3625 28.3753 23.284C28.1659 23.2054 27.9303 23.2478 27.7609 23.3942Z" fill="#DE392E"/>
</g>
<path d="M6.29168 6.67294L7.34105 3.66815L5.21358 1.20306L2.08763 1.80173L1.03826 4.80652L3.16574 7.27162L6.29168 6.67294Z" fill="#DE392E"/>
<path d="M62.3237 45.8972L61.7211 39.9419L56.1343 37.4339L51.2838 40.9413L51.8864 46.8967L57.4732 49.4046L62.3237 45.8972Z" fill="#DE392E"/>
<defs>
<clipPath id="clip0_379_374">
<rect width="36.6985" height="36.6985" fill="white" transform="translate(7.95898 7.3562)"/>
</clipPath>
</defs>
</svg>
