<svg width="65" height="51" viewBox="0 0 65 51" fill="none" xmlns="http://www.w3.org/2000/svg">
<g clip-path="url(#clip0_382_1244)">
<path fill-rule="evenodd" clip-rule="evenodd" d="M19.4846 40.6615C19.2592 40.6615 19.0764 40.4789 19.0764 40.2535L19.0766 15.605C19.0766 15.3797 19.2591 15.197 19.4845 15.197C19.7107 15.197 19.8934 15.3797 19.8934 15.6051L19.8936 40.2534C19.8936 40.4788 19.7107 40.6616 19.4846 40.6615ZM34.8646 40.6615C34.6395 40.6615 34.4566 40.4789 34.4566 40.2535L34.4566 15.605C34.4566 15.3797 34.6394 15.197 34.8646 15.197C35.09 15.197 35.2727 15.3797 35.2727 15.6051L35.2728 40.2534C35.2728 40.4788 35.0899 40.6616 34.8646 40.6615Z" fill="#131313"/>
<path fill-rule="evenodd" clip-rule="evenodd" d="M10.2164 40.6615C9.99109 40.6615 9.80811 40.4788 9.80811 40.2534L9.80819 21.7161C9.80819 21.4905 9.99092 21.308 10.2162 21.308L19.4847 21.3079C19.7108 21.3079 19.8935 21.4907 19.8935 21.7161C19.8937 21.9414 19.7108 22.1241 19.4846 22.1241L10.6244 22.1241V40.2533C10.6244 40.4786 10.4415 40.6615 10.2164 40.6615Z" fill="#131313"/>
<path fill-rule="evenodd" clip-rule="evenodd" d="M44.1319 40.6615C43.9066 40.6615 43.7237 40.4788 43.7237 40.2534V22.1241H34.8634C34.6383 22.1241 34.4553 21.9415 34.4553 21.7161C34.4554 21.4905 34.6381 21.308 34.8634 21.308L44.1319 21.3079C44.3571 21.3079 44.5399 21.4907 44.5399 21.7161L44.54 40.2533C44.54 40.4786 44.3571 40.6615 44.1319 40.6615Z" fill="#131313"/>
<path fill-rule="evenodd" clip-rule="evenodd" d="M37.8822 26.984H41.117V24.4855H37.8822V26.984ZM41.525 27.8001H37.474C37.2489 27.8001 37.0659 27.6176 37.0659 27.3923L37.066 24.0775C37.066 23.8522 37.2487 23.6695 37.474 23.6695L41.525 23.6694C41.7503 23.6694 41.9331 23.8522 41.9331 24.0776L41.9332 27.3921C41.9332 27.6176 41.7503 27.8002 41.525 27.8001Z" fill="#131313"/>
<path fill-rule="evenodd" clip-rule="evenodd" d="M37.8822 32.2341H41.117V29.7356H37.8822V32.2341ZM41.525 33.0502H37.474C37.2489 33.0502 37.0659 32.8676 37.0659 32.6423L37.066 29.3274C37.066 29.1021 37.2487 28.9195 37.474 28.9195L41.525 28.9194C41.7503 28.9194 41.9331 29.1022 41.9331 29.3276L41.9332 32.6422C41.9332 32.8676 41.7503 33.0503 41.525 33.0502Z" fill="#131313"/>
<path fill-rule="evenodd" clip-rule="evenodd" d="M37.8822 37.4839H41.117V34.9854H37.8822V37.4839ZM41.525 38.3H37.474C37.2489 38.3 37.0659 38.1174 37.0659 37.892L37.066 34.5773C37.066 34.3518 37.2487 34.1693 37.474 34.1693L41.525 34.1692C41.7503 34.1692 41.9331 34.352 41.9331 34.5774L41.9332 37.8919C41.9332 38.1173 41.7503 38.3002 41.525 38.3Z" fill="#131313"/>
<path fill-rule="evenodd" clip-rule="evenodd" d="M13.233 26.984H16.4679V24.4855H13.233V26.984ZM16.8758 27.8001H12.8251C12.5996 27.8001 12.4167 27.6176 12.4167 27.3923L12.4168 24.0775C12.4168 23.8522 12.5996 23.6695 12.8249 23.6695L16.8758 23.6694C17.1012 23.6694 17.2839 23.8522 17.2839 24.0776L17.2841 27.3921C17.2841 27.6176 17.1012 27.8002 16.8758 27.8001Z" fill="#131313"/>
<path fill-rule="evenodd" clip-rule="evenodd" d="M13.233 32.2341H16.4679V29.7356H13.233V32.2341ZM16.8758 33.0502H12.8251C12.5996 33.0502 12.4167 32.8676 12.4167 32.6423L12.4168 29.3274C12.4168 29.1021 12.5996 28.9195 12.8249 28.9195L16.8758 28.9194C17.1012 28.9194 17.2839 29.1022 17.2839 29.3276L17.2841 32.6422C17.2841 32.8676 17.1012 33.0503 16.8758 33.0502Z" fill="#131313"/>
<path fill-rule="evenodd" clip-rule="evenodd" d="M13.233 37.4839H16.4679V34.9854H13.233V37.4839ZM16.8758 38.3H12.8251C12.5996 38.3 12.4167 38.1174 12.4167 37.892L12.4168 34.5773C12.4168 34.3518 12.5996 34.1693 12.8249 34.1693L16.8758 34.1692C17.1012 34.1692 17.2839 34.352 17.2839 34.5774L17.2841 37.8919C17.2841 38.1173 17.1012 38.3002 16.8758 38.3Z" fill="#131313"/>
<path fill-rule="evenodd" clip-rule="evenodd" d="M31.0546 40.6616C30.8285 40.6616 30.6465 40.4789 30.6465 40.2535L30.6467 31.7772H23.7024V40.2534C23.7024 40.4787 23.5196 40.6616 23.2943 40.6616C23.069 40.6616 22.8862 40.4789 22.8862 40.2535L22.8864 31.3691C22.8864 31.1438 23.069 30.9612 23.2943 30.9612H31.0546C31.28 30.9612 31.4626 31.1439 31.4626 31.3692L31.4627 40.2534C31.4627 40.4787 31.2799 40.6616 31.0546 40.6616Z" fill="#131313"/>
<path fill-rule="evenodd" clip-rule="evenodd" d="M27.1747 40.6616C26.9496 40.6616 26.7666 40.4789 26.7666 40.2535L26.7667 31.3691C26.7667 31.1438 26.9494 30.9612 27.1747 30.9612C27.4 30.9612 27.5827 31.1439 27.5827 31.3692L27.5829 40.2534C27.5829 40.4787 27.3999 40.6616 27.1747 40.6616Z" fill="#131313"/>
<path fill-rule="evenodd" clip-rule="evenodd" d="M25.853 18.1263C25.8335 18.1263 25.8147 18.1446 25.8147 18.1647V18.7965C25.8147 18.8165 25.8334 18.8348 25.8529 18.8348H28.4962C28.5167 18.8348 28.5344 18.8166 28.5344 18.7965V18.1645C28.5344 18.1446 28.5165 18.1263 28.4961 18.1263L25.853 18.1263ZM28.4962 19.651H25.853C25.3821 19.651 24.9985 19.2677 24.9985 18.7965L24.9987 18.1645C24.9987 17.6934 25.382 17.3102 25.8529 17.3102L28.4962 17.3101C28.9671 17.3101 29.3505 17.6935 29.3505 18.1647L29.3506 18.7965C29.3506 19.2676 28.9671 19.651 28.4962 19.651Z" fill="#131313"/>
<path fill-rule="evenodd" clip-rule="evenodd" d="M28.7396 29.6639H25.6112C24.982 29.6639 24.3391 29.3485 23.9736 28.8599C23.6983 28.4919 23.6123 28.0641 23.733 27.6549L25.4028 21.9603C25.4275 21.8777 25.4376 21.809 25.4376 21.723L25.4377 19.2429C25.4377 19.0176 25.6194 18.835 25.8456 18.835C26.071 18.835 26.2537 19.0177 26.2537 19.243L26.2539 21.7229C26.2539 21.8878 26.2325 22.032 26.1865 22.1901L24.516 27.8844C24.4684 28.0457 24.5057 28.2092 24.6265 28.3707C24.8374 28.6516 25.242 28.848 25.611 28.848L28.7396 28.8479C29.1086 28.8479 29.5132 28.6517 29.7232 28.3707C29.8439 28.2092 29.8813 28.0457 29.8345 27.8846L28.164 22.19C28.1173 22.032 28.0968 21.8881 28.0968 21.723L28.0969 19.2429C28.0969 19.0176 28.2796 18.835 28.5049 18.835C28.7302 18.835 28.913 19.0177 28.913 19.243L28.9131 21.7229C28.9131 21.809 28.9232 21.8779 28.947 21.9604L30.6177 27.6547C30.7376 28.064 30.6524 28.4922 30.3769 28.8599C30.0107 29.3483 29.3687 29.6641 28.7396 29.6639Z" fill="#131313"/>
<path fill-rule="evenodd" clip-rule="evenodd" d="M28.2305 24.3444C27.9867 24.3444 27.7655 24.2691 27.5708 24.2027C27.423 24.152 27.2826 24.1045 27.1746 24.1045C27.0658 24.1044 26.9264 24.1521 26.7785 24.2027C26.583 24.2691 26.3619 24.3444 26.1188 24.3444C25.8748 24.3444 25.6537 24.2691 25.459 24.2027C25.3706 24.1727 25.2881 24.1445 25.2116 24.126C24.9933 24.0724 24.8588 23.8518 24.9124 23.6328C24.9661 23.4137 25.1861 23.2796 25.4055 23.3332C25.517 23.3602 25.6214 23.3958 25.7217 23.4302C25.8707 23.4806 26.01 23.5283 26.1188 23.5283C26.2268 23.5282 26.367 23.4806 26.5149 23.4301C26.7097 23.3635 26.9307 23.2883 27.1746 23.2883C27.4178 23.2882 27.6388 23.3636 27.8344 23.4301C27.9825 23.4806 28.1217 23.5283 28.2305 23.5283C28.3386 23.5282 28.4788 23.4806 28.6267 23.4302C28.7279 23.3957 28.8316 23.3602 28.9439 23.3332C29.1623 23.2796 29.3833 23.4138 29.4369 23.6328C29.4898 23.8517 29.3561 24.0726 29.1368 24.126C29.0604 24.1444 28.9778 24.1727 28.8902 24.2027C28.6955 24.2691 28.4745 24.3444 28.2305 24.3444Z" fill="#131313"/>
<path fill-rule="evenodd" clip-rule="evenodd" d="M18.4669 15.1967H35.8823V11.8369H18.4669V15.1967ZM36.2905 16.0129H18.0589C17.8336 16.0129 17.6506 15.8303 17.6506 15.605L17.6507 11.429C17.6507 11.2035 17.8334 11.0209 18.0588 11.0209L36.2905 11.0208C36.5156 11.0208 36.6984 11.2037 36.6984 11.429L36.6985 15.6049C36.6985 15.8302 36.5156 16.013 36.2905 16.0129Z" fill="#131313"/>
<path fill-rule="evenodd" clip-rule="evenodd" d="M9.29992 42.4936H45.049V40.6615H9.29992V42.4936ZM45.457 43.3096H8.89195C8.66654 43.3096 8.48364 43.127 8.48364 42.9016L8.48373 40.2534C8.48373 40.0281 8.66646 39.8455 8.89178 39.8455H45.457C45.6823 39.8455 45.865 40.0282 45.865 40.2535V42.9015C45.865 43.127 45.6822 43.3098 45.457 43.3096Z" fill="#131313"/>
</g>
<path d="M6.29168 6.67294L7.34105 3.66815L5.21358 1.20306L2.08763 1.80173L1.03826 4.80652L3.16574 7.27162L6.29168 6.67294Z" fill="#DE392E"/>
<path d="M62.3237 45.8972L61.7211 39.9419L56.1343 37.4339L51.2838 40.9413L51.8864 46.8967L57.4732 49.4046L62.3237 45.8972Z" fill="#DE392E"/>
<defs>
<clipPath id="clip0_382_1244">
<rect width="37.3812" height="37.3812" fill="white" transform="translate(8.48145 8.47461)"/>
</clipPath>
</defs>
</svg>
