<svg width="56" height="50" viewBox="0 0 56 50" fill="none" xmlns="http://www.w3.org/2000/svg">
<g clip-path="url(#clip0_382_1307)">
<path d="M35.9272 15.2725V18.3601" stroke="#131313" stroke-width="1.07515" stroke-miterlimit="10" stroke-linecap="round" stroke-linejoin="round"/>
<path d="M19.8438 18.3601V15.2725" stroke="#131313" stroke-width="1.07515" stroke-miterlimit="10" stroke-linecap="round" stroke-linejoin="round"/>
<mask id="mask0_382_1307" style="mask-type:luminance" maskUnits="userSpaceOnUse" x="3" y="7" width="38" height="38">
<path d="M3.73828 7.35619H40.4368V44.0547H3.73828V7.35619Z" fill="white"/>
</mask>
<g mask="url(#mask0_382_1307)">
<path d="M34.272 37.4054V43.5171" stroke="#131313" stroke-width="1.07515" stroke-miterlimit="10" stroke-linecap="round" stroke-linejoin="round"/>
<path d="M21.5012 37.4054V43.5171" stroke="#131313" stroke-width="1.07515" stroke-miterlimit="10" stroke-linecap="round" stroke-linejoin="round"/>
<path d="M25.7893 29.3849C21.1072 29.6969 17.406 33.5938 17.406 38.355V39.5903" stroke="#131313" stroke-width="1.07515" stroke-miterlimit="10" stroke-linecap="round" stroke-linejoin="round"/>
<path d="M38.3663 43.5171V38.3551C38.3663 33.5863 34.6534 29.6848 29.9607 29.3834" stroke="#131313" stroke-width="1.07515" stroke-miterlimit="10" stroke-linecap="round" stroke-linejoin="round"/>
<path d="M17.406 42.0148V43.5171" stroke="#131313" stroke-width="1.07515" stroke-miterlimit="10" stroke-linecap="round" stroke-linejoin="round"/>
<path d="M29.7933 28.0015V30.6061C29.7933 31.659 28.9392 32.5129 27.8864 32.5129C26.8327 32.5129 25.9788 31.659 25.9788 30.6061V28.0015" stroke="#131313" stroke-width="1.07515" stroke-miterlimit="10" stroke-linecap="round" stroke-linejoin="round"/>
<path d="M34.3976 18.2818C34.5281 18.2567 34.6628 18.2439 34.8004 18.2439C36.0067 18.2439 36.9844 19.2215 36.9844 20.4278C36.9844 21.6342 36.0067 22.6118 34.8004 22.6118C34.6441 22.6118 34.4922 22.5953 34.3459 22.5638" stroke="#131313" stroke-width="1.07515" stroke-miterlimit="10" stroke-linecap="round" stroke-linejoin="round"/>
<path d="M21.4156 22.5667C21.2722 22.596 21.1238 22.6118 20.9712 22.6118C19.7648 22.6118 18.7864 21.6341 18.7864 20.4278C18.7864 19.2215 19.7648 18.2438 20.9712 18.2438C21.1081 18.2438 21.2428 18.2567 21.3725 18.2811" stroke="#131313" stroke-width="1.07515" stroke-miterlimit="10" stroke-linecap="round" stroke-linejoin="round"/>
<path d="M34.1662 17.0927C34.1777 17.2461 34.1834 17.4001 34.1834 17.5565V21.7524C34.1834 25.2251 31.4067 28.1022 27.9339 28.128C24.434 28.1532 21.5891 25.3247 21.5891 21.8312V17.5565C21.5891 17.4001 21.5948 17.2453 21.6063 17.0919" stroke="#131313" stroke-width="1.07515" stroke-miterlimit="10" stroke-linecap="round" stroke-linejoin="round"/>
<path d="M30.8406 20.2602L30.8472 20.2603" stroke="#131313" stroke-width="1.07515" stroke-miterlimit="10" stroke-linecap="round" stroke-linejoin="round"/>
<path d="M24.926 20.2603H24.9325" stroke="#131313" stroke-width="1.07515" stroke-miterlimit="10" stroke-linecap="round" stroke-linejoin="round"/>
<path d="M5.81128 27.3479H15.4272L20.6628 32.5835" stroke="#131313" stroke-width="1.07515" stroke-miterlimit="10" stroke-linecap="round" stroke-linejoin="round"/>
<path d="M7.20605 29.9658H14.0052" stroke="#131313" stroke-width="1.07515" stroke-miterlimit="10" stroke-linecap="round" stroke-linejoin="round"/>
<path d="M10.1326 31.8533H14.006" stroke="#131313" stroke-width="1.07515" stroke-miterlimit="10" stroke-linecap="round" stroke-linejoin="round"/>
<path d="M10.1326 33.7407H14.006" stroke="#131313" stroke-width="1.07515" stroke-miterlimit="10" stroke-linecap="round" stroke-linejoin="round"/>
<path d="M13.2669 39.6289H11.5486C11.1527 39.6289 10.8318 39.3079 10.8318 38.9121V37.1938C10.8318 36.798 11.1527 36.477 11.5486 36.477H13.2669C13.6627 36.477 13.9836 36.798 13.9836 37.1938V38.9121C13.9836 39.3079 13.6627 39.6289 13.2669 39.6289Z" stroke="#131313" stroke-width="1.07515" stroke-miterlimit="10" stroke-linecap="round" stroke-linejoin="round"/>
<path d="M15.501 16.6963V15.4628C15.501 15.3275 15.4085 15.2098 15.277 15.1778L11.1596 14.175C11.1139 14.164 11.0663 14.164 11.0207 14.175L6.90312 15.1778C6.77166 15.2098 6.6792 15.3275 6.6792 15.4628V19.9289C6.6792 20.5274 6.82571 21.1179 7.11284 21.6432C7.21807 21.8356 7.34572 22.0425 7.49961 22.2555C8.31407 23.3818 9.49086 24.1944 11.0018 24.6749C11.0591 24.693 11.1212 24.693 11.1783 24.6749C12.6893 24.1944 13.8661 23.3818 14.6805 22.2555C15.0753 21.7095 15.2969 21.203 15.4127 20.8771C15.4715 20.7118 15.501 20.5378 15.501 20.3624V19.1207" stroke="#131313" stroke-width="1.07515" stroke-miterlimit="10" stroke-linecap="round" stroke-linejoin="round"/>
<path d="M11.0906 17.8371V20.4277" stroke="#DE392E" stroke-width="1.07515" stroke-miterlimit="10" stroke-linecap="round" stroke-linejoin="round"/>
<path d="M12.3863 19.1326H9.79565" stroke="#DE392E" stroke-width="1.07515" stroke-miterlimit="10" stroke-linecap="round" stroke-linejoin="round"/>
<path d="M27.9875 7.89366H25.2542C22.4899 7.89366 20.0982 9.86298 19.6176 12.5853C19.5813 12.7907 19.5516 12.9988 19.5287 13.2094C19.4622 13.8219 19.5496 14.4416 19.7842 15.0114L19.7849 15.0133C20.3523 16.3921 21.6958 17.292 23.1867 17.292H32.5883C34.0809 17.292 35.4255 16.3902 35.9918 15.0094C36.225 14.4407 36.3118 13.8225 36.2455 13.2114C36.2227 13.0001 36.1929 12.7913 36.1565 12.5853C35.6759 9.86306 33.2841 7.89366 30.5198 7.89366H30.4119" stroke="#131313" stroke-width="1.07515" stroke-miterlimit="10" stroke-linecap="round" stroke-linejoin="round"/>
<path d="M26.0503 23.3405C26.0857 24.3243 26.8939 25.1108 27.8862 25.1108C28.8786 25.1108 29.6867 24.3243 29.7222 23.3405" stroke="#DE392E" stroke-width="1.07515" stroke-miterlimit="10" stroke-linecap="round" stroke-linejoin="round"/>
</g>
</g>
<path d="M6.29192 6.67294L7.3413 3.66815L5.21382 1.20306L2.08788 1.80173L1.0385 4.80652L3.16598 7.27162L6.29192 6.67294Z" fill="#DE392E"/>
<path d="M53.7617 44.3533L53.159 38.3979L47.5723 35.89L42.7218 39.3974L43.3244 45.3527L48.9112 47.8607L53.7617 44.3533Z" fill="#DE392E"/>
<defs>
<clipPath id="clip0_382_1307">
<rect width="36.6985" height="36.6985" fill="white" transform="translate(3.73828 7.3562)"/>
</clipPath>
</defs>
</svg>
