<svg width="65" height="51" viewBox="0 0 65 51" fill="none" xmlns="http://www.w3.org/2000/svg">
<g clip-path="url(#clip0_382_1335)">
<path d="M20.904 22.4119C20.7519 22.4119 20.6061 22.3515 20.4985 22.2439C20.391 22.1364 20.3306 21.9906 20.3306 21.8385V21.2651C20.3306 21.113 20.391 20.9671 20.4985 20.8596C20.6061 20.7521 20.7519 20.6917 20.904 20.6917C21.0561 20.6917 21.2019 20.7521 21.3094 20.8596C21.417 20.9671 21.4774 21.113 21.4774 21.2651V21.8385C21.4774 21.9906 21.417 22.1364 21.3094 22.2439C21.2019 22.3515 21.0561 22.4119 20.904 22.4119Z" fill="#131313"/>
<path d="M28.3583 22.4119C28.2062 22.4119 28.0604 22.3515 27.9529 22.2439C27.8453 22.1364 27.7849 21.9906 27.7849 21.8385V21.2651C27.7849 21.113 27.8453 20.9671 27.9529 20.8596C28.0604 20.7521 28.2062 20.6917 28.3583 20.6917C28.5104 20.6917 28.6563 20.7521 28.7638 20.8596C28.8713 20.9671 28.9317 21.113 28.9317 21.2651V21.8385C28.9317 21.9906 28.8713 22.1364 28.7638 22.2439C28.6563 22.3515 28.5104 22.4119 28.3583 22.4119Z" fill="#131313"/>
<path d="M24.9182 28.1459C22.7898 28.1436 20.7492 27.2971 19.2442 25.7921C17.7392 24.2871 16.8927 22.2465 16.8904 20.1181C16.8904 19.966 16.9508 19.8202 17.0583 19.7126C17.1659 19.6051 17.3117 19.5447 17.4638 19.5447C19.1645 19.5447 19.7001 18.8273 19.7575 16.4746C19.7567 16.3986 19.7716 16.3232 19.8012 16.2531C19.8308 16.183 19.8745 16.1198 19.9295 16.0673C19.9846 16.0148 20.0498 15.9742 20.1213 15.948C20.1927 15.9218 20.2687 15.9106 20.3446 15.915C20.4521 15.9176 20.5567 15.9504 20.6464 16.0096C20.7361 16.0688 20.8074 16.1521 20.8521 16.2498C20.868 16.1372 20.9167 16.0317 20.992 15.9465C21.0421 15.8903 21.1028 15.8445 21.1706 15.8117C21.2384 15.779 21.312 15.7599 21.3872 15.7556C21.4624 15.7513 21.5377 15.7618 21.6088 15.7866C21.6799 15.8114 21.7455 15.8499 21.8017 15.9001C22.8735 16.7626 24.0814 17.4408 25.3758 17.907C27.6067 18.8196 29.9684 19.3723 32.3726 19.5447C32.5246 19.5447 32.6705 19.6051 32.778 19.7126C32.8856 19.8202 32.946 19.966 32.946 20.1181C32.9446 22.2468 32.0984 24.2879 30.5932 25.7931C29.088 27.2983 27.0469 28.1445 24.9182 28.1459ZM18.0584 20.6611C18.1942 22.3866 18.9753 23.9976 20.246 25.1729C21.5167 26.3481 23.1836 27.0013 24.9144 27.0023C26.6453 27.0032 28.3129 26.3518 29.5849 25.1779C30.8568 24.0041 31.6397 22.3939 31.7774 20.6686C29.4358 20.417 27.1397 19.8459 24.9532 18.9713C23.5371 18.4498 22.2151 17.7017 21.039 16.7562C20.9824 16.7048 20.9365 16.6426 20.9043 16.5732C20.8469 18.5659 20.4329 20.4048 18.0584 20.6611Z" fill="#131313"/>
<path d="M21.4724 8.41489C21.3441 8.41387 21.2199 8.36986 21.1196 8.28988C21.0192 8.20991 20.9486 8.09859 20.919 7.97375C20.8894 7.8489 20.9026 7.71773 20.9563 7.60123C21.0101 7.48473 21.1014 7.38963 21.2156 7.33113C21.3522 7.26309 21.5102 7.2516 21.6553 7.29914C21.8004 7.34668 21.9209 7.44943 21.9908 7.58516C22.025 7.65193 22.0456 7.7248 22.0514 7.79956C22.0572 7.87433 22.0482 7.94952 22.0249 8.02078C22.0015 8.09205 21.9643 8.158 21.9154 8.21481C21.8664 8.27162 21.8067 8.31818 21.7397 8.35181L21.7288 8.35697C21.649 8.39586 21.5612 8.41568 21.4724 8.41489Z" fill="#131313"/>
<path d="M32.9449 20.6917H32.3715C32.2194 20.6917 32.0736 20.6313 31.966 20.5238C31.8585 20.4162 31.7981 20.2704 31.7981 20.1183C31.7981 19.9662 31.8585 19.8204 31.966 19.7129C32.0736 19.6053 32.2194 19.5449 32.3715 19.5449H32.9449C33.097 19.5449 33.2429 19.4845 33.3504 19.377C33.4579 19.2694 33.5183 19.1236 33.5183 18.9715V16.1044C33.5183 15.9523 33.5788 15.8065 33.6863 15.699C33.7938 15.5914 33.9397 15.531 34.0918 15.531C34.2438 15.531 34.3897 15.5914 34.4972 15.699C34.6048 15.8065 34.6652 15.9523 34.6652 16.1044V18.9715C34.6652 19.4277 34.4839 19.8653 34.1613 20.1879C33.8387 20.5105 33.4012 20.6917 32.9449 20.6917Z" fill="#131313"/>
<path d="M17.4638 20.6917H16.8904C16.4342 20.6917 15.9966 20.5105 15.674 20.1879C15.3514 19.8653 15.1702 19.4277 15.1702 18.9715V16.1044C15.1702 15.9523 15.2306 15.8065 15.3381 15.699C15.4457 15.5914 15.5915 15.531 15.7436 15.531C15.8957 15.531 16.0415 15.5914 16.149 15.699C16.2566 15.8065 16.317 15.9523 16.317 16.1044V18.9715C16.317 19.1236 16.3774 19.2694 16.4849 19.377C16.5925 19.4845 16.7383 19.5449 16.8904 19.5449H17.4638C17.6159 19.5449 17.7618 19.6053 17.8693 19.7129C17.9768 19.8204 18.0372 19.9662 18.0372 20.1183C18.0372 20.2704 17.9768 20.4162 17.8693 20.5238C17.7618 20.6313 17.6159 20.6917 17.4638 20.6917Z" fill="#131313"/>
<path d="M36.9603 43.0547H12.8769C12.7912 43.0548 12.7066 43.0357 12.6292 42.9987C12.5519 42.9618 12.4838 42.908 12.43 42.8412C12.3762 42.7745 12.338 42.6966 12.3183 42.6131C12.2986 42.5297 12.2979 42.4429 12.3161 42.3592L14.2543 33.4655C14.5647 32.4048 15.146 31.4432 15.9408 30.6754C16.7357 29.9075 17.7169 29.3599 18.7877 29.0864L21.9191 28.3065C21.993 28.2856 22.0704 28.2798 22.1467 28.2894C22.2229 28.299 22.2965 28.3238 22.3629 28.3624C22.4294 28.401 22.4874 28.4525 22.5335 28.514C22.5797 28.5754 22.613 28.6455 22.6316 28.7201C22.6501 28.7946 22.6534 28.8722 22.6414 28.9481C22.6294 29.024 22.6022 29.0967 22.5615 29.1619C22.5209 29.2271 22.4675 29.2834 22.4046 29.3276C22.3417 29.3718 22.2706 29.4028 22.1955 29.419L19.0646 30.1988C18.1931 30.4206 17.394 30.8648 16.7455 31.488C16.097 32.1111 15.6213 32.8919 15.365 33.754L13.5885 41.9079H36.2487L34.462 33.7081C34.201 32.8549 33.7242 32.0834 33.0778 31.4683C32.4314 30.8533 31.6372 30.4154 30.772 30.1971L27.6418 29.4172C27.5666 29.4011 27.4955 29.37 27.4326 29.3259C27.3698 29.2817 27.3164 29.2253 27.2757 29.1602C27.235 29.095 27.2079 29.0223 27.1959 28.9464C27.1838 28.8705 27.1872 28.7929 27.2057 28.7184C27.2242 28.6438 27.2576 28.5737 27.3037 28.5122C27.3499 28.4508 27.4079 28.3993 27.4743 28.3607C27.5408 28.3221 27.6143 28.2973 27.6906 28.2877C27.7668 28.2781 27.8442 28.2839 27.9182 28.3048L31.049 29.0847C32.1138 29.3547 33.0904 29.8964 33.8832 30.6569C34.676 31.4173 35.2579 32.3704 35.5721 33.4231L37.5217 42.3575C37.5403 42.4414 37.5397 42.5284 37.5201 42.6121C37.5005 42.6958 37.4624 42.774 37.4085 42.8409C37.3546 42.9079 37.2863 42.9619 37.2087 42.9989C37.1312 43.0359 37.0463 43.055 36.9603 43.0547Z" fill="#131313"/>
<path d="M24.9183 32.1599C24.0355 32.1608 23.1863 31.8218 22.5469 31.2132C21.9074 30.6046 21.5269 29.7732 21.4841 28.8915C21.4788 28.8343 21.4767 28.7769 21.4778 28.7194V26.9992C21.4778 26.8471 21.5382 26.7013 21.6458 26.5937C21.7533 26.4862 21.8991 26.4258 22.0512 26.4258C22.2033 26.4258 22.3492 26.4862 22.4567 26.5937C22.5642 26.7013 22.6246 26.8471 22.6246 26.9992V28.7194C22.6232 28.7443 22.6232 28.7692 22.6246 28.794C22.6511 29.3802 22.9013 29.9341 23.3238 30.3414C23.7462 30.7488 24.3087 30.9788 24.8956 30.984C25.4824 30.9892 26.0489 30.7693 26.4785 30.3695C26.9081 29.9697 27.1682 29.4204 27.2051 28.8347C27.2098 28.7965 27.2121 28.758 27.212 28.7194V26.9992C27.212 26.8471 27.2724 26.7013 27.3799 26.5937C27.4874 26.4862 27.6333 26.4258 27.7854 26.4258C27.9374 26.4258 28.0833 26.4862 28.1908 26.5937C28.2984 26.7013 28.3588 26.8471 28.3588 26.9992V28.7194C28.3596 28.7905 28.3562 28.8615 28.3485 28.9322C28.2986 29.807 27.915 30.6294 27.2769 31.2299C26.6387 31.8304 25.7945 32.1633 24.9183 32.1599Z" fill="#131313"/>
<path d="M24.9185 25.2788C24.525 25.3039 24.1305 25.2479 23.7595 25.1143C23.3885 24.9806 23.049 24.7722 22.7619 24.5019C22.7118 24.4445 22.6737 24.3778 22.6496 24.3056C22.6256 24.2334 22.6162 24.1571 22.622 24.0812C22.6278 24.0053 22.6486 23.9313 22.6833 23.8636C22.7179 23.7958 22.7657 23.7356 22.8239 23.6865C22.882 23.6374 22.9494 23.6004 23.022 23.5776C23.0946 23.5548 23.171 23.5467 23.2468 23.5537C23.3226 23.5608 23.3962 23.5828 23.4634 23.6186C23.5305 23.6544 23.5899 23.7032 23.638 23.7621C24.0051 24.0383 24.4608 24.1699 24.9185 24.132C25.3786 24.1717 25.837 24.0388 26.2046 23.7593C26.3035 23.6437 26.4442 23.5721 26.5958 23.5603C26.7475 23.5485 26.8976 23.5974 27.0132 23.6962C27.1287 23.7951 27.2003 23.9358 27.2121 24.0874C27.224 24.239 27.1751 24.3891 27.0762 24.5047C26.788 24.7736 26.4481 24.9809 26.0771 25.114C25.7061 25.2471 25.3119 25.3032 24.9185 25.2788Z" fill="#DE392E"/>
<path d="M24.9181 42.4813C24.7661 42.4813 24.6202 42.4209 24.5127 42.3134C24.4051 42.2059 24.3447 42.06 24.3447 41.9079V34.4535C24.3447 34.3015 24.4051 34.1556 24.5127 34.0481C24.6202 33.9405 24.7661 33.8801 24.9181 33.8801C25.0702 33.8801 25.2161 33.9405 25.3236 34.0481C25.4311 34.1556 25.4916 34.3015 25.4916 34.4535V41.9079C25.4916 42.06 25.4311 42.2059 25.3236 42.3134C25.2161 42.4209 25.0702 42.4813 24.9181 42.4813Z" fill="#131313"/>
<path d="M28.9321 33.8802C28.8544 33.8802 28.7776 33.8644 28.7062 33.8338L24.6923 32.1135C24.5547 32.0522 24.4467 31.9392 24.3918 31.7989C24.3368 31.6586 24.3393 31.5023 24.3987 31.3638C24.4581 31.2253 24.5695 31.1158 24.709 31.0589C24.8485 31.0019 25.0048 31.0022 25.1441 31.0596L29.158 32.7798C29.2794 32.8319 29.379 32.9242 29.4402 33.0412C29.5013 33.1583 29.5202 33.2928 29.4936 33.4221C29.4671 33.5515 29.3967 33.6677 29.2944 33.7511C29.1921 33.8346 29.0641 33.8802 28.9321 33.8802Z" fill="#131313"/>
<path d="M28.9321 33.8802C28.8413 33.8802 28.7518 33.8585 28.671 33.8171C28.5902 33.7757 28.5204 33.7157 28.4673 33.642C28.4142 33.5683 28.3794 33.4831 28.3657 33.3933C28.352 33.3035 28.3598 33.2118 28.3885 33.1256L29.5353 29.6851C29.5591 29.6136 29.5968 29.5474 29.6461 29.4905C29.6955 29.4335 29.7556 29.3868 29.823 29.353C29.8904 29.3192 29.9638 29.2991 30.039 29.2937C30.1142 29.2883 30.1897 29.2978 30.2613 29.3216C30.3328 29.3454 30.399 29.383 30.456 29.4324C30.5129 29.4818 30.5596 29.5419 30.5934 29.6093C30.6272 29.6767 30.6473 29.7501 30.6527 29.8253C30.6581 29.9005 30.6486 29.976 30.6248 30.0475L29.478 33.488C29.4399 33.6025 29.3666 33.7021 29.2686 33.7725C29.1705 33.8429 29.0528 33.8806 28.9321 33.8802Z" fill="#131313"/>
<path d="M20.9038 33.8802C20.7718 33.8802 20.6438 33.8346 20.5415 33.7511C20.4392 33.6677 20.3688 33.5515 20.3423 33.4221C20.3157 33.2928 20.3346 33.1583 20.3958 33.0412C20.4569 32.9242 20.5566 32.8319 20.6779 32.7798L24.6918 31.0596C24.8311 31.0022 24.9874 31.0019 25.1269 31.0589C25.2664 31.1158 25.3779 31.2253 25.4372 31.3638C25.4966 31.5023 25.4991 31.6586 25.4442 31.7989C25.3892 31.9392 25.2813 32.0522 25.1437 32.1135L21.1298 33.8338C21.0584 33.8644 20.9815 33.8802 20.9038 33.8802Z" fill="#131313"/>
<path d="M20.9043 33.8802C20.784 33.8801 20.6668 33.8422 20.5693 33.7718C20.4717 33.7014 20.3988 33.6021 20.3607 33.488L19.2139 30.0475C19.1901 29.976 19.1806 29.9005 19.186 29.8253C19.1914 29.7501 19.2116 29.6767 19.2453 29.6093C19.2791 29.5419 19.3258 29.4818 19.3828 29.4324C19.4398 29.383 19.5059 29.3454 19.5775 29.3216C19.649 29.2978 19.7245 29.2883 19.7997 29.2937C19.8749 29.2991 19.9483 29.3192 20.0157 29.353C20.0831 29.3868 20.1432 29.4335 20.1926 29.4905C20.242 29.5474 20.2796 29.6136 20.3034 29.6851L21.4502 33.1256C21.479 33.212 21.4868 33.3039 21.473 33.3938C21.4592 33.4838 21.4241 33.5692 21.3708 33.6429C21.3175 33.7166 21.2473 33.7766 21.1662 33.8179C21.0851 33.8592 20.9953 33.8805 20.9043 33.8802Z" fill="#131313"/>
<path d="M17.4637 24.132H16.8903C16.4045 24.0991 15.9514 23.8759 15.6293 23.5109C15.3072 23.1458 15.1422 22.6684 15.17 22.1824V21.4943C15.1422 21.0083 15.3072 20.5309 15.6293 20.1658C15.9514 19.8008 16.4045 19.5776 16.8903 19.5447H17.4637C17.6158 19.5447 17.7616 19.6051 17.8691 19.7126C17.9767 19.8202 18.0371 19.966 18.0371 20.1181C18.0371 20.2702 17.9767 20.416 17.8691 20.5236C17.7616 20.6311 17.6158 20.6915 17.4637 20.6915H16.8903C16.5795 20.6915 16.3168 21.0591 16.3168 21.4943V22.1824C16.3168 22.6176 16.5795 22.9852 16.8903 22.9852H17.4516C17.4356 22.9806 17.4556 22.9502 17.462 22.8992C17.4803 22.7481 17.5578 22.6106 17.6776 22.5168C17.7973 22.4229 17.9494 22.3805 18.1005 22.3988C18.2515 22.4172 18.389 22.4947 18.4828 22.6145C18.5767 22.7342 18.6191 22.8863 18.6008 23.0373C18.5769 23.3269 18.4482 23.5979 18.2389 23.7994C18.0296 24.0009 17.754 24.1192 17.4637 24.132Z" fill="#131313"/>
<path d="M32.9456 24.132H32.3722C32.0819 24.1192 31.8063 24.0009 31.597 23.7994C31.3876 23.5979 31.259 23.3269 31.2351 23.0373C31.2246 22.8905 31.2709 22.7452 31.3645 22.6316C31.458 22.518 31.5917 22.4447 31.7379 22.427C31.884 22.4092 32.0314 22.4483 32.1495 22.5362C32.2675 22.6241 32.3473 22.7541 32.3722 22.8992C32.3744 22.9351 32.3887 22.9693 32.4129 22.9961L32.9456 22.9852C33.2564 22.9852 33.519 22.6176 33.519 22.1824V21.4943C33.519 21.0591 33.2564 20.6915 32.9456 20.6915H32.3722C32.2201 20.6915 32.0743 20.6311 31.9667 20.5236C31.8592 20.416 31.7988 20.2702 31.7988 20.1181C31.7988 19.966 31.8592 19.8202 31.9667 19.7126C32.0743 19.6051 32.2201 19.5447 32.3722 19.5447H32.9456C33.4313 19.5776 33.8845 19.8008 34.2066 20.1658C34.5287 20.5309 34.6937 21.0083 34.6659 21.4943V22.1824C34.6937 22.6684 34.5287 23.1458 34.2066 23.5109C33.8845 23.8759 33.4313 24.0991 32.9456 24.132Z" fill="#131313"/>
<path d="M34.0929 14.361C33.953 14.3612 33.8178 14.3101 33.7129 14.2175C33.6079 14.1248 33.5405 13.997 33.5233 13.8581C33.5061 13.7192 33.5403 13.5788 33.6195 13.4634C33.6986 13.3479 33.8172 13.2654 33.953 13.2314L40.4005 11.6023L24.9183 7.5225L21.6647 8.38263C21.6487 8.38836 21.6332 8.39352 21.6183 8.39753L9.43611 11.6029L15.8824 13.2314C15.9555 13.2499 16.0242 13.2825 16.0846 13.3275C16.145 13.3725 16.196 13.429 16.2346 13.4937C16.2732 13.5584 16.2987 13.63 16.3096 13.7046C16.3205 13.7791 16.3166 13.8551 16.2982 13.9281C16.2797 14.0012 16.2471 14.0698 16.2021 14.1303C16.1571 14.1907 16.1006 14.2417 16.0359 14.2803C15.9712 14.3189 15.8995 14.3444 15.825 14.3553C15.7505 14.3662 15.6745 14.3623 15.6015 14.3438L7.00025 12.1706C6.87614 12.14 6.76583 12.0688 6.68683 11.9683C6.60783 11.8678 6.56467 11.7438 6.56421 11.616C6.56375 11.4881 6.60601 11.3638 6.68429 11.2628C6.76256 11.1617 6.87235 11.0897 6.99623 11.0582L21.2914 7.29429C21.3069 7.28855 21.3224 7.28339 21.3373 7.27938L24.7721 6.37338C24.8679 6.34787 24.9687 6.34787 25.0645 6.37338L42.8403 11.0582C42.9634 11.0905 43.0722 11.1628 43.1497 11.2637C43.2271 11.3647 43.2688 11.4885 43.2681 11.6158C43.2675 11.743 43.2245 11.8664 43.146 11.9665C43.0676 12.0666 42.958 12.1378 42.8346 12.1689L34.2334 14.3421C34.1875 14.354 34.1403 14.3603 34.0929 14.361Z" fill="#131313"/>
<path d="M34.0928 18.3979C33.9408 18.3979 33.7949 18.3375 33.6874 18.23C33.5798 18.1224 33.5194 17.9766 33.5194 17.8245V12.9373L33.1874 12.8226C33.1524 12.8106 33.118 12.7985 33.0813 12.7882C27.7013 11.0767 21.9194 11.0998 16.5532 12.8541C16.5372 12.8593 16.4959 12.8696 16.4816 12.8742L16.317 12.9316V17.8245C16.317 17.9766 16.2566 18.1224 16.149 18.23C16.0415 18.3375 15.8957 18.3979 15.7436 18.3979C15.5915 18.3979 15.4457 18.3375 15.3381 18.23C15.2306 18.1224 15.1702 17.9766 15.1702 17.8245V12.5261C15.1702 12.4066 15.2075 12.2901 15.277 12.1928C15.3465 12.0955 15.4447 12.0224 15.5578 11.9837L16.1599 11.7773C16.1759 11.7715 16.2172 11.7612 16.2327 11.7566C21.809 9.91145 27.8279 9.88976 33.4173 11.6947C33.4518 11.7039 33.5057 11.7216 33.5578 11.74L34.2769 11.9831C34.3904 12.0216 34.489 12.0947 34.5588 12.1921C34.6287 12.2895 34.6662 12.4063 34.6662 12.5261V17.8245C34.6662 17.9766 34.6058 18.1224 34.4983 18.23C34.3908 18.3375 34.2449 18.3979 34.0928 18.3979Z" fill="#131313"/>
<path d="M34.0919 18.2604C34.0293 18.2604 33.9671 18.2501 33.9078 18.23L33.2811 18.0167C27.8468 16.2397 21.9878 16.2397 16.5535 18.0167L15.9267 18.23C15.8552 18.2553 15.7793 18.266 15.7035 18.2617C15.6277 18.2574 15.5536 18.2381 15.4853 18.205C15.4171 18.1718 15.3561 18.1254 15.3059 18.0685C15.2557 18.0115 15.2173 17.9452 15.1929 17.8733C15.1686 17.8014 15.1587 17.7255 15.164 17.6497C15.1692 17.574 15.1894 17.5001 15.2234 17.4323C15.2574 17.3644 15.3046 17.304 15.3621 17.2545C15.4196 17.205 15.4864 17.1674 15.5586 17.144L16.1848 16.9312C21.8586 15.0757 27.976 15.0757 33.6498 16.9312L34.276 17.144C34.4047 17.1876 34.5137 17.2756 34.5835 17.3921C34.6534 17.5086 34.6797 17.6462 34.6576 17.7803C34.6355 17.9143 34.5665 18.0362 34.4629 18.1242C34.3593 18.2121 34.2278 18.2604 34.0919 18.2604Z" fill="#131313"/>
<path d="M37.5329 20.1182C37.3808 20.1182 37.235 20.0578 37.1274 19.9503C37.0199 19.8427 36.9595 19.6969 36.9595 19.5448V13.2372C36.9595 13.0852 37.0199 12.9393 37.1274 12.8318C37.235 12.7242 37.3808 12.6638 37.5329 12.6638C37.685 12.6638 37.8308 12.7242 37.9384 12.8318C38.0459 12.9393 38.1063 13.0852 38.1063 13.2372V19.5448C38.1063 19.6969 38.0459 19.8427 37.9384 19.9503C37.8308 20.0578 37.685 20.1182 37.5329 20.1182Z" fill="#131313"/>
<path d="M37.5327 22.4119C37.1925 22.4119 36.8599 22.311 36.577 22.122C36.2941 21.933 36.0736 21.6643 35.9434 21.35C35.8132 21.0357 35.7792 20.6898 35.8456 20.3561C35.9119 20.0224 36.0758 19.7159 36.3163 19.4753C36.5569 19.2347 36.8634 19.0709 37.1971 19.0045C37.5308 18.9381 37.8767 18.9722 38.191 19.1024C38.5054 19.2326 38.774 19.4531 38.9631 19.736C39.1521 20.0189 39.253 20.3514 39.253 20.6917C39.253 21.1479 39.0717 21.5855 38.7491 21.9081C38.4265 22.2307 37.989 22.4119 37.5327 22.4119ZM37.5327 20.1183C37.4193 20.1183 37.3085 20.1519 37.2142 20.2149C37.1199 20.2779 37.0464 20.3675 37.003 20.4722C36.9596 20.577 36.9482 20.6923 36.9703 20.8035C36.9925 20.9148 37.0471 21.017 37.1273 21.0971C37.2075 21.1773 37.3096 21.2319 37.4209 21.2541C37.5321 21.2762 37.6474 21.2648 37.7522 21.2214C37.857 21.178 37.9465 21.1045 38.0095 21.0103C38.0725 20.916 38.1062 20.8051 38.1062 20.6917C38.1062 20.5396 38.0457 20.3937 37.9382 20.2862C37.8307 20.1787 37.6848 20.1183 37.5327 20.1183Z" fill="#DE392E"/>
</g>
<path d="M6.29192 6.67294L7.3413 3.66815L5.21382 1.20306L2.08788 1.80173L1.0385 4.80652L3.16598 7.27162L6.29192 6.67294Z" fill="#DE392E"/>
<path d="M62.3239 45.8972L61.7213 39.9419L56.1345 37.4339L51.284 40.9413L51.8866 46.8967L57.4734 49.4046L62.3239 45.8972Z" fill="#DE392E"/>
<defs>
<clipPath id="clip0_382_1335">
<rect width="36.6985" height="36.6985" fill="white" transform="translate(6.56909 6.3562)"/>
</clipPath>
</defs>
</svg>
