<svg width="124" height="124" viewBox="0 0 124 124" fill="none" xmlns="http://www.w3.org/2000/svg">
<g clip-path="url(#clip0_334_1781)">
<path d="M120.069 61.1599C119.704 60.7344 119.17 60.4891 118.61 60.4891C109.443 60.4891 101.985 53.0312 101.985 43.8637C101.985 42.8011 101.124 41.9379 100.059 41.9379H81.1014V24.9303C81.1014 23.656 80.6253 22.514 79.7333 21.634L59.4655 1.35659C58.5639 0.467013 57.4243 -0.0018158 56.1693 -0.0018158H7.22833C4.65579 -0.0018158 2.56409 2.09469 2.56409 4.66964V96.1442C2.56409 98.7167 4.65579 100.808 7.22833 100.808H50.5169C51.2213 101.934 51.9522 103.023 52.7095 104.076C59.3381 113.284 67.7986 119.475 78.5769 123.004C78.7716 123.067 78.9736 123.101 79.1755 123.101C79.3775 123.101 79.5795 123.069 79.7742 123.004C90.5549 119.475 99.0154 113.282 105.644 104.076C112.967 93.901 117.831 80.3699 120.509 62.7035C120.598 62.1481 120.435 61.5855 120.069 61.1599ZM74.5305 21.8745H59.2323V6.57141L74.5305 21.8745ZM7.22833 96.9568C6.77874 96.9568 6.41329 96.5914 6.41329 96.1418V4.66964C6.41329 4.22486 6.78595 3.84739 7.22833 3.84739H55.3807V23.7979C55.3807 24.8605 56.2414 25.7237 57.3065 25.7237H77.2521V41.9379H58.297C57.2344 41.9379 56.3712 42.7987 56.3712 43.8637C56.3712 53.0312 48.9132 60.4891 39.7458 60.4891C39.1856 60.4891 38.6519 60.7344 38.2864 61.1599C37.921 61.5855 37.7575 62.1505 37.8441 62.7035C39.9454 76.5303 43.3811 87.8231 48.2857 96.9568H7.22833ZM79.178 119.146C68.229 115.419 59.7372 108.613 53.4453 98.3489C53.3515 98.0219 53.1736 97.731 52.9356 97.5002C47.8313 88.8521 44.2249 77.8334 41.9818 64.2181C51.594 63.1699 59.2299 55.4426 60.1339 45.7871H98.2268C99.1308 55.4402 106.767 63.1675 116.379 64.2181C111.349 94.7377 99.4891 112.233 79.178 119.146ZM95.9981 50.2038C95.7649 49.3719 95.0075 48.7949 94.1444 48.7949H64.2115C63.3484 48.7949 62.5886 49.3695 62.3578 50.2038C60.2493 57.7579 54.5368 63.7325 47.0788 66.1824C46.1532 66.4853 45.6026 67.4326 45.7901 68.3871C48.4011 81.5335 52.6014 92.194 58.273 100.07C63.5671 107.432 70.1812 112.546 78.4927 115.705C78.7139 115.789 78.9447 115.83 79.1755 115.83C79.4064 115.83 79.6396 115.789 79.8584 115.705C88.1698 112.546 94.7839 107.432 100.078 100.07C105.752 92.1916 109.952 81.5335 112.563 68.3871C112.753 67.4326 112.2 66.4877 111.277 66.1824C103.817 63.7277 98.1066 57.7555 95.9981 50.2038ZM96.955 97.8199C92.2619 104.345 86.4388 108.937 79.1755 111.837C71.9123 108.937 66.0916 104.345 61.3961 97.8175C56.2775 90.7106 52.4114 81.1056 49.8966 69.2502C57.3305 66.2834 63.0695 60.2295 65.63 52.6441H92.7211C95.2816 60.2247 101.023 66.2786 108.455 69.2502C105.94 81.1056 102.074 90.713 96.955 97.8199ZM90.1918 72.056H90.1125V68.666C90.1125 65.7617 88.9729 63.0184 86.9004 60.9363C84.8255 58.8687 82.0823 57.7315 79.1755 57.7315C76.2712 57.7315 73.528 58.8687 71.4459 60.9435C69.3782 63.0184 68.241 65.7617 68.241 68.6684V72.0584H68.1617C65.517 72.0584 63.3676 74.2102 63.3676 76.8525V91.7156C63.3676 94.3602 65.5194 96.5096 68.1617 96.5096H90.1894C92.8341 96.5096 94.9835 94.3578 94.9835 91.7156V76.8525C94.9859 74.2054 92.8341 72.056 90.1918 72.056ZM72.0926 68.6636C72.0926 66.7835 72.8331 65.0067 74.1699 63.6628C75.5187 62.3188 77.2978 61.5783 79.178 61.5783C81.0581 61.5783 82.8348 62.3188 84.1788 63.6555C85.5228 65.0043 86.2633 66.7835 86.2633 68.6636V72.0536H72.095V68.6636H72.0926ZM91.1343 91.7131C91.1343 92.2253 90.7015 92.658 90.1894 92.658H68.1617C67.6496 92.658 67.2168 92.2253 67.2168 91.7131V76.8501C67.2168 76.3283 67.64 75.9052 68.1617 75.9052H90.1894C90.7111 75.9052 91.1343 76.3283 91.1343 76.8501V91.7131ZM79.178 78.3599C76.6727 78.3599 74.6363 80.3987 74.6363 82.9016C74.6363 84.7168 75.711 86.2843 77.2521 87.0104V88.2727C77.2521 89.3353 78.1129 90.1985 79.178 90.1985C80.243 90.1985 81.1038 89.3377 81.1038 88.2727V87.0104C82.6473 86.2843 83.722 84.7192 83.722 82.9016C83.7196 80.3963 81.6832 78.3599 79.178 78.3599ZM79.178 82.2091C79.553 82.2091 79.8704 82.5265 79.8704 82.9016C79.8704 83.2838 79.5602 83.594 79.178 83.594C78.7957 83.594 78.4855 83.2838 78.4855 82.9016C78.4855 82.5265 78.8029 82.2091 79.178 82.2091ZM43.4796 42.3803C43.5782 42.3034 43.6672 42.2168 43.7489 42.1231C46.985 38.9326 48.9974 34.4992 48.9974 29.6065C48.9974 19.9102 41.109 12.0194 31.4103 12.0194C21.7115 12.0194 13.8232 19.9078 13.8232 29.6065C13.8232 34.5016 15.8356 38.9326 19.0717 42.1231C19.151 42.2168 19.2424 42.301 19.3385 42.3779C22.4905 45.3592 26.7388 47.1912 31.4079 47.1912C36.0793 47.1936 40.3277 45.3592 43.4796 42.3803ZM22.7285 40.2429C23.6133 38.108 25.7242 36.6438 28.0924 36.6438H34.7306C37.0987 36.6438 39.2073 38.108 40.0944 40.2429C37.7263 42.1808 34.7041 43.3444 31.4127 43.3444C28.1189 43.342 25.0967 42.1784 22.7285 40.2429ZM31.4103 30.7005C29.4628 30.7005 27.876 29.1161 27.876 27.1662C27.876 25.2212 29.4604 23.6392 31.4103 23.6392C33.3601 23.6392 34.9445 25.2212 34.9445 27.1662C34.9445 29.1161 33.3577 30.7005 31.4103 30.7005ZM31.4103 15.871C38.9837 15.871 45.1458 22.0331 45.1458 29.6065C45.1458 32.4219 44.2923 35.0425 42.8353 37.2232C41.3278 34.9007 38.8635 33.285 36.0721 32.8883C37.7335 31.5323 38.7962 29.4719 38.7962 27.1662C38.7962 23.0982 35.4831 19.79 31.4127 19.79C27.3423 19.79 24.0292 23.0982 24.0292 27.1662C24.0292 29.4719 25.0919 31.5323 26.7533 32.8883C23.9619 33.285 21.4976 34.9007 19.9901 37.2232C18.5307 35.0425 17.6772 32.4219 17.6772 29.6065C17.6748 22.0331 23.8369 15.871 31.4103 15.871Z" fill="white"/>
</g>
<defs>
<clipPath id="clip0_334_1781">
<rect width="123.098" height="123.098" fill="white"/>
</clipPath>
</defs>
</svg>
