<svg width="134" height="134" viewBox="0 0 134 134" fill="none" xmlns="http://www.w3.org/2000/svg">
<path fill-rule="evenodd" clip-rule="evenodd" d="M80.6901 82.1031C80.9977 82.8172 81.6766 83.3011 82.4519 83.3588C82.5041 83.3627 82.5558 83.3645 82.6077 83.3645C83.3257 83.3645 83.9983 82.9943 84.3807 82.3778L89.4376 74.2288L98.8329 76.1529C99.5955 76.3084 100.38 76.0285 100.871 75.4255C101.362 74.8226 101.476 73.9966 101.169 73.2825L94.1914 57.0821C94.4048 56.9916 94.6232 56.8984 94.8533 56.8001C98.4515 55.2592 100.557 51.6124 100.092 47.7259C100.006 47.004 99.9253 46.3617 99.853 45.7851C99.5632 43.4723 99.4173 42.3113 99.5739 41.4243C99.7304 40.5372 100.264 39.496 101.328 37.4219C101.593 36.9046 101.889 36.3288 102.216 35.6797C103.982 32.1863 103.251 28.0394 100.397 25.361C99.8671 24.8635 99.3923 24.4234 98.9665 24.0279C97.2574 22.4427 96.3996 21.647 95.9495 20.8669C95.499 20.0868 95.2389 18.9462 94.7205 16.6738C94.5911 16.1071 94.4471 15.4758 94.2811 14.7677C93.3883 10.9566 90.1627 8.25007 86.2545 8.03274C85.5287 7.9923 84.8822 7.96021 84.3017 7.93125C81.9735 7.81542 80.8049 7.75724 79.9586 7.44912C79.1122 7.14101 78.1798 6.43451 76.3217 5.02672C75.8586 4.67556 75.3423 4.28474 74.7605 3.84905C71.6267 1.50361 67.4164 1.50335 64.2825 3.84905C63.7007 4.28474 63.1844 4.67556 62.7213 5.02672C60.8632 6.43451 59.9308 7.14101 59.0845 7.44912C58.2381 7.75724 57.0693 7.81542 54.7414 7.93125C54.1606 7.96021 53.5144 7.9923 52.7886 8.03274C48.8804 8.25007 45.6544 10.9568 44.7619 14.7677C44.596 15.4758 44.452 16.1069 44.3226 16.6738C43.8042 18.9462 43.5441 20.0871 43.0935 20.8669C42.6432 21.647 41.7854 22.4427 40.0765 24.0279C39.6505 24.4234 39.1759 24.8635 38.646 25.361C35.7921 28.0396 35.0606 32.1866 36.8263 35.6799C37.1542 36.3285 37.4496 36.9043 37.7146 37.4214C38.7783 39.4958 39.3124 40.537 39.4689 41.424C39.6254 42.3108 39.4796 43.4718 39.1897 45.7843C39.1175 46.3612 39.0369 47.0038 38.9505 47.7259C38.4861 51.6124 40.5913 55.2592 44.1895 56.8001C44.8579 57.0863 45.4543 57.3378 45.9899 57.5634C46.1527 57.632 46.3072 57.6973 46.458 57.7609L37.8988 76.1445C37.5706 76.8495 37.6617 77.6781 38.1344 78.2954C38.6074 78.9124 39.3841 79.2163 40.1503 79.0814L49.5981 77.4308L54.4165 85.7227C54.7915 86.3674 55.4797 86.7611 56.2209 86.7611C56.2522 86.7611 56.284 86.7603 56.3156 86.759C57.0925 86.7238 57.7852 86.2597 58.1134 85.555L66.6313 67.2588C67.9979 66.8481 68.8262 66.6412 69.522 66.6412C70.4226 66.6412 71.5408 66.9861 73.7683 67.6736C74.0261 67.7532 74.299 67.8374 74.5852 67.9251L80.6901 82.1031ZM88.8498 69.8474C87.9936 69.6723 87.1186 70.049 86.6575 70.7915L82.9422 76.779L79.3951 68.5429C81.8297 68.205 84.058 66.8408 85.4825 64.6624C85.8803 64.0537 86.2315 63.51 86.5469 63.0216C87.8115 61.0633 88.446 60.0805 89.136 59.5014C89.4457 59.2415 89.8347 59.0067 90.3622 58.745L95.7528 71.2609L88.8498 69.8474ZM56.015 80.1681L52.475 74.0757C52.0356 73.3199 51.1721 72.9183 50.3111 73.0684L43.3698 74.281L50.1473 59.7242C50.7528 60.3258 51.3784 61.2937 52.4943 63.0219C52.8097 63.5102 53.1609 64.0539 53.5587 64.6624C55.3198 67.3556 58.3078 68.8064 61.3968 68.6086L56.015 80.1681ZM69.5205 62.4648C68.1002 62.4648 66.6793 62.8716 64.0433 63.685C63.4946 63.8544 62.8841 64.0427 62.1969 64.2504C60.2097 64.8505 58.1893 64.1163 57.0521 62.3777C56.6589 61.7769 56.3122 61.2397 56.001 60.7576C53.0077 56.1225 52.6941 55.8595 47.6096 53.7168C47.0807 53.494 46.4916 53.2456 45.8316 52.9628C43.9221 52.1449 42.8475 50.2837 43.094 48.2211C43.1793 47.5081 43.2589 46.8733 43.3304 46.3038C44.0168 40.8297 43.9456 40.4264 41.4277 35.5163C41.1657 35.0055 40.8743 34.437 40.5506 33.7965C39.6134 31.9426 39.9868 29.8262 41.5015 28.4046C42.0251 27.9134 42.4937 27.4787 42.9145 27.0882C46.9597 23.3357 47.1642 22.9812 48.3915 17.6023C48.519 17.0424 48.6612 16.4192 48.8251 15.7197C49.2986 13.6973 50.9451 12.3158 53.0192 12.2005C53.7361 12.1606 54.3745 12.1288 54.948 12.1003C60.4586 11.8259 60.8437 11.6858 65.2413 8.3539C65.6989 8.00717 66.2084 7.62105 66.7832 7.19084C68.4464 5.94611 70.5951 5.94611 72.2583 7.19084C72.833 7.62105 73.3426 8.00717 73.8002 8.3539C78.1978 11.6858 78.5829 11.8259 84.0935 12.1003C84.6667 12.1288 85.3053 12.1606 86.0223 12.2005C88.0964 12.3158 89.7426 13.6973 90.2164 15.7197C90.3802 16.4189 90.5224 17.0422 90.65 17.6021C91.8773 22.9809 92.0818 23.3357 96.127 27.0879C96.5478 27.4785 97.0163 27.9131 97.5399 28.4044C99.0547 29.826 99.4275 31.9424 98.4906 33.7963C98.1669 34.437 97.8752 35.006 97.613 35.5169C95.0956 40.4264 95.0244 40.8297 95.7111 46.3043C95.7823 46.8738 95.8621 47.5081 95.9472 48.2208C96.1937 50.2835 95.1191 52.1449 93.2096 52.9626C92.5496 53.2451 91.9605 53.4935 91.4316 53.7166C86.3473 55.8593 86.0338 56.1225 83.0405 60.7573C82.7293 61.2397 82.3825 61.7766 81.9894 62.3777C80.8527 64.116 78.8339 64.8515 76.8446 64.2504C76.1574 64.0427 75.5466 63.8541 74.9982 63.685C72.3616 62.8716 70.9408 62.4648 69.5205 62.4648ZM90.2347 35.3575C90.2347 23.9355 80.9424 14.6433 69.5205 14.6433C58.0988 14.6433 48.8065 23.9355 48.8065 35.3575C48.8065 46.7794 58.0988 56.0719 69.5205 56.0719C80.9421 56.0719 90.2347 46.7796 90.2347 35.3575ZM69.5202 51.8976C60.4001 51.8976 52.9806 44.4778 52.9806 35.3575C52.9806 26.2374 60.4001 18.8176 69.5202 18.8176C78.6403 18.8176 86.0601 26.2374 86.0601 35.3575C86.0604 44.4778 78.6403 51.8976 69.5202 51.8976ZM80.9834 30.4362L66.731 43.3705C66.3324 43.7324 65.8301 43.9122 65.3287 43.9122C64.7933 43.9122 64.259 43.7074 63.8526 43.3009L57.9845 37.4329C57.1695 36.6178 57.1695 35.2964 57.9845 34.4814C58.7998 33.6663 60.121 33.6663 60.9363 34.4814L65.3983 38.9434L78.1782 27.3454C79.0316 26.5711 80.3517 26.6347 81.1263 27.4884C81.9009 28.3415 81.837 29.6616 80.9834 30.4362ZM120.607 98.8207C123.358 96.0701 124.755 92.5999 124.647 88.7854L123.631 52.9039C123.53 49.3607 120.008 46.1859 116.21 46.1859C116.173 46.1859 116.137 46.1861 116.1 46.1866C114.247 46.2164 108.205 47.2146 108.249 58.8121L108.323 78.3032C108.325 78.7488 108.297 79.1816 108.239 79.6035C108.092 79.4276 107.934 79.2557 107.766 79.0877C105.19 76.5119 100.972 76.4793 98.1619 79.0133C98.092 79.0762 98.0263 79.1438 97.9657 79.2155C94.8217 82.9327 90.9586 86.1887 87.8543 88.8047C86.7656 89.7222 85.7376 90.5887 84.8934 91.3494C81.3533 94.5402 80.8808 98.9365 80.8855 102.816L80.9022 116.697L79.1023 116.682C77.8837 116.67 76.7352 117.137 75.8638 117.993C74.9925 118.85 74.5067 119.992 74.4962 121.209L74.4495 126.639C74.4391 127.856 74.9051 129.006 75.7616 129.878C76.6178 130.749 77.76 131.235 78.9771 131.245L107.184 131.487C107.197 131.487 107.211 131.488 107.224 131.488C108.426 131.488 109.561 131.023 110.422 130.175C111.294 129.319 111.779 128.177 111.79 126.96L111.836 121.53C111.847 120.313 111.381 119.163 110.524 118.291C109.668 117.42 108.526 116.935 107.309 116.924L104.988 116.904V114.439L120.607 98.8207ZM107.662 121.494L107.615 126.924C107.614 127.055 107.55 127.146 107.496 127.199C107.442 127.252 107.358 127.314 107.219 127.314L79.0126 127.071C78.8819 127.07 78.7911 127.006 78.7381 126.952C78.6852 126.898 78.6223 126.806 78.6236 126.675L78.6703 121.246C78.6713 121.115 78.7358 121.024 78.7898 120.971C78.843 120.918 78.9338 120.856 79.0624 120.856H79.0661H79.0663L107.273 121.098C107.486 121.1 107.664 121.282 107.662 121.494ZM85.0765 116.733L85.0598 102.811C85.0546 98.56 85.8162 96.1379 87.6883 94.4504C88.4807 93.7361 89.4369 92.9302 90.5441 91.9972C93.7353 89.3074 97.6996 85.9667 101.05 82.0332C102.221 81.0504 103.821 81.046 104.815 82.0397C105.872 83.0971 105.874 84.3551 104.824 85.7791C103.164 87.6445 101.419 89.3343 99.5728 91.1209C98.6866 91.9787 97.7698 92.8658 96.8452 93.7906C96.0302 94.6057 96.0302 95.9271 96.8455 96.7421C97.253 97.1496 97.7868 97.3534 98.3211 97.3534C98.8554 97.3534 99.3897 97.1496 99.7969 96.7419C100.697 95.8415 101.601 94.9665 102.476 94.1204C104.405 92.2537 106.227 90.4906 108.011 88.477C108.021 88.4663 109.409 86.7679 109.409 86.7679C111.499 84.195 112.51 81.4209 112.498 78.2878L112.423 58.7964C112.404 53.6305 113.839 50.398 116.167 50.3607C116.182 50.3604 116.195 50.3604 116.21 50.3604C117.759 50.3604 119.421 51.7158 119.458 53.0223L120.474 88.9038C120.55 91.5796 119.601 93.9232 117.655 95.8692L101.425 112.099C101.034 112.49 100.814 113.021 100.814 113.574V116.869L85.0765 116.733ZM80.6781 123.368C81.0222 122.502 82.0035 122.079 82.8694 122.424C83.7353 122.768 84.1582 123.749 83.8141 124.615C83.4697 125.481 82.4887 125.904 81.6228 125.559C80.7567 125.215 80.3337 124.234 80.6781 123.368ZM57.7114 117.994C56.84 117.137 55.6889 116.673 54.4726 116.682L52.673 116.698L52.6897 102.817C52.6944 98.9368 52.2219 94.5404 48.6818 91.35C47.8381 90.5889 46.8097 89.7228 45.7212 88.8055C42.6171 86.1892 38.7538 82.9333 35.6098 79.216C35.5492 79.1443 35.4837 79.0767 35.4138 79.0139C32.6027 76.4798 28.3838 76.5127 25.809 79.0882C25.6407 79.2562 25.4834 79.4282 25.3363 79.604C25.2781 79.1821 25.2502 78.7496 25.252 78.304L25.3264 58.8123C25.3702 47.2148 19.3282 46.2169 17.475 46.1869C17.4385 46.1864 17.4028 46.1861 17.366 46.1861C13.5676 46.1861 10.0448 49.3612 9.94484 52.9041L8.9284 88.7859C8.82065 92.6004 10.2177 96.0703 12.9686 98.8209L28.587 114.44V116.905L26.2664 116.925C25.0493 116.935 23.9071 117.421 23.0508 118.292C22.1943 119.163 21.7284 120.314 21.7388 121.531L21.7855 126.96C21.7959 128.177 22.2815 129.319 23.1529 130.176C24.0146 131.023 25.149 131.488 26.3514 131.488C26.3647 131.488 26.3783 131.488 26.3913 131.488L54.5981 131.246C55.8152 131.235 56.9574 130.75 57.8136 129.878C58.6702 129.007 59.1361 127.857 59.1257 126.64L59.079 121.21C59.0688 119.993 58.5828 118.851 57.7114 117.994ZM32.7613 113.574C32.7613 113.021 32.5414 112.49 32.15 112.099L15.9201 95.8689C13.9738 93.9229 13.0252 91.5796 13.1009 88.9038L14.1173 53.0221C14.1546 51.7035 15.857 50.338 17.408 50.3607C19.7367 50.398 21.1714 53.6305 21.1518 58.7962L21.0774 78.2878C21.0657 81.4209 22.0759 84.1947 24.1696 86.7723L25.5095 88.4128C25.5186 88.424 25.5546 88.4663 25.564 88.477C27.3488 90.4906 29.1706 92.2537 31.0997 94.1204C31.9742 94.9667 32.8779 95.8415 33.7785 96.7419C34.1861 97.1494 34.7201 97.3534 35.2544 97.3534C35.7885 97.3534 36.3228 97.1496 36.73 96.7421C37.5453 95.9271 37.5453 94.6057 36.7303 93.7906C35.8057 92.866 34.8889 91.9787 34.0026 91.1209C32.1563 89.334 30.4114 87.6445 28.7519 85.7791C27.7021 84.3554 27.7031 83.0974 28.7608 82.04C29.755 81.046 31.3541 81.0504 32.526 82.0332C35.8759 85.9669 39.8399 89.3077 43.0317 91.9975C44.1386 92.9307 45.0948 93.7364 45.8874 94.451C47.7593 96.1379 48.5209 98.5603 48.5157 102.812L48.499 116.734L32.7616 116.869L32.7613 113.574ZM54.8368 126.952C54.7839 127.006 54.6931 127.071 54.5624 127.072L26.3556 127.314C26.2223 127.314 26.1328 127.252 26.079 127.199C26.025 127.146 25.9606 127.056 25.9596 126.924L25.9129 121.495C25.9115 121.364 25.9744 121.272 26.0274 121.218C26.0803 121.164 26.1711 121.1 26.3018 121.099L54.5084 120.856H54.5123C54.6412 120.856 54.732 120.919 54.7852 120.971C54.8392 121.024 54.9036 121.115 54.9047 121.246L54.9514 126.676C54.9527 126.806 54.8898 126.898 54.8368 126.952ZM52.8971 123.368C53.2415 124.234 52.8186 125.215 51.9527 125.559C51.0868 125.904 50.1055 125.481 49.7614 124.615C49.417 123.749 49.8399 122.768 50.7059 122.424C51.5718 122.079 52.5527 122.502 52.8971 123.368Z" fill="white"/>
</svg>
