<svg width="54" height="36" viewBox="0 0 54 36" fill="none" xmlns="http://www.w3.org/2000/svg">
<path d="M6.29192 6.67294L7.3413 3.66815L5.21382 1.20306L2.08788 1.80173L1.0385 4.80652L3.16598 7.27162L6.29192 6.67294Z" fill="#DE392E"/>
<path d="M51.3183 30.8972L50.7157 24.9419L45.1289 22.4339L40.2784 25.9413L40.881 31.8967L46.4678 34.4046L51.3183 30.8972Z" fill="#DE392E"/>
<path d="M23.2625 19.8333C23.9989 19.8333 24.5959 19.2363 24.5959 18.5C24.5959 17.7636 23.9989 17.1666 23.2625 17.1666C22.5262 17.1666 21.9292 17.7636 21.9292 18.5C21.9292 19.2363 22.5262 19.8333 23.2625 19.8333Z" stroke="#131313" stroke-width="2.66667" stroke-linecap="round" stroke-linejoin="round"/>
<path d="M34.1959 29.4333C36.9159 26.7266 34.2225 19.62 28.1959 13.5666C22.1425 7.53997 15.0359 4.84664 12.3292 7.56664C9.60921 10.2733 12.3025 17.38 18.3292 23.4333C24.3825 29.46 31.4892 32.1533 34.1959 29.4333Z" stroke="#DE392E" stroke-width="2.66667" stroke-linecap="round" stroke-linejoin="round"/>
<path d="M28.1959 23.4333C34.2225 17.38 36.9159 10.2733 34.1959 7.56664C31.4892 4.84664 24.3825 7.53997 18.3292 13.5666C12.3025 19.62 9.60921 26.7266 12.3292 29.4333C15.0359 32.1533 22.1425 29.46 28.1959 23.4333Z" stroke="#131313" stroke-width="2.66667" stroke-linecap="round" stroke-linejoin="round"/>
</svg>
