<svg width="54" height="36" viewBox="0 0 54 36" fill="none" xmlns="http://www.w3.org/2000/svg">
<path d="M22.2166 11.8334V30.5" stroke="#DE392E" stroke-width="2.66667" stroke-linecap="round" stroke-linejoin="round"/>
<path d="M10.2166 26.5C9.86301 26.5 9.52387 26.3595 9.27383 26.1095C9.02378 25.8594 8.8833 25.5203 8.8833 25.1667V7.83333C8.8833 7.47971 9.02378 7.14057 9.27383 6.89052C9.52387 6.64048 9.86301 6.5 10.2166 6.5H16.8833C18.2978 6.5 19.6543 7.0619 20.6545 8.0621C21.6547 9.06229 22.2166 10.4188 22.2166 11.8333C22.2166 10.4188 22.7785 9.06229 23.7787 8.0621C24.7789 7.0619 26.1355 6.5 27.55 6.5H34.2166C34.5703 6.5 34.9094 6.64048 35.1594 6.89052C35.4095 7.14057 35.55 7.47971 35.55 7.83333V25.1667C35.55 25.5203 35.4095 25.8594 35.1594 26.1095C34.9094 26.3595 34.5703 26.5 34.2166 26.5H26.2166C25.1558 26.5 24.1384 26.9214 23.3882 27.6716C22.6381 28.4217 22.2166 29.4391 22.2166 30.5C22.2166 29.4391 21.7952 28.4217 21.0451 27.6716C20.2949 26.9214 19.2775 26.5 18.2166 26.5H10.2166Z" stroke="#131313" stroke-width="2.66667" stroke-linecap="round" stroke-linejoin="round"/>
<path d="M6.29168 6.67294L7.34105 3.66815L5.21358 1.20306L2.08763 1.80173L1.03826 4.80652L3.16574 7.27162L6.29168 6.67294Z" fill="#DE392E"/>
<path d="M51.3183 30.8972L50.7157 24.9419L45.1289 22.4339L40.2784 25.9413L40.881 31.8967L46.4678 34.4046L51.3183 30.8972Z" fill="#DE392E"/>
</svg>
