<svg width="54" height="36" viewBox="0 0 54 36" fill="none" xmlns="http://www.w3.org/2000/svg">
<path d="M22.2147 31.8333C29.5785 31.8333 35.548 25.8638 35.548 18.5C35.548 11.1362 29.5785 5.16663 22.2147 5.16663C14.8509 5.16663 8.88135 11.1362 8.88135 18.5C8.88135 25.8638 14.8509 31.8333 22.2147 31.8333Z" stroke="#131313" stroke-width="2.66667" stroke-linecap="round" stroke-linejoin="round"/>
<path d="M22.2146 26.5C26.6329 26.5 30.2146 22.9183 30.2146 18.5C30.2146 14.0817 26.6329 10.5 22.2146 10.5C17.7963 10.5 14.2146 14.0817 14.2146 18.5C14.2146 22.9183 17.7963 26.5 22.2146 26.5Z" stroke="#DE392E" stroke-width="2.66667" stroke-linecap="round" stroke-linejoin="round"/>
<path d="M22.2145 21.1667C23.6873 21.1667 24.8812 19.9728 24.8812 18.5C24.8812 17.0273 23.6873 15.8334 22.2145 15.8334C20.7418 15.8334 19.5479 17.0273 19.5479 18.5C19.5479 19.9728 20.7418 21.1667 22.2145 21.1667Z" stroke="#131313" stroke-width="2.66667" stroke-linecap="round" stroke-linejoin="round"/>
<path d="M6.29192 6.67294L7.3413 3.66815L5.21382 1.20306L2.08788 1.80173L1.0385 4.80652L3.16598 7.27162L6.29192 6.67294Z" fill="#DE392E"/>
<path d="M51.3183 30.8972L50.7157 24.9419L45.1289 22.4339L40.2784 25.9413L40.881 31.8967L46.4678 34.4046L51.3183 30.8972Z" fill="#DE392E"/>
</svg>
