<svg width="54" height="36" viewBox="0 0 54 36" fill="none" xmlns="http://www.w3.org/2000/svg">
<path d="M26.1825 5.16663H14.1825C13.4753 5.16663 12.797 5.44758 12.2969 5.94767C11.7968 6.44777 11.5159 7.12605 11.5159 7.83329V29.1666C11.5159 29.8739 11.7968 30.5521 12.2969 31.0522C12.797 31.5523 13.4753 31.8333 14.1825 31.8333H30.1825C30.8898 31.8333 31.5681 31.5523 32.0682 31.0522C32.5683 30.5521 32.8492 29.8739 32.8492 29.1666V11.8333L26.1825 5.16663Z" stroke="#131313" stroke-width="2.66667" stroke-linecap="round" stroke-linejoin="round"/>
<path d="M24.8494 5.16663V10.5C24.8494 11.2072 25.1303 11.8855 25.6304 12.3856C26.1305 12.8857 26.8088 13.1666 27.516 13.1666H32.8494" stroke="#131313" stroke-width="2.66667" stroke-linecap="round" stroke-linejoin="round"/>
<path d="M18.1826 22.5L20.8493 25.1667L26.1826 19.8334" stroke="#DE392E" stroke-width="2.66667" stroke-linecap="round" stroke-linejoin="round"/>
<path d="M6.29168 6.67294L7.34105 3.66815L5.21358 1.20306L2.08763 1.80173L1.03826 4.80652L3.16574 7.27162L6.29168 6.67294Z" fill="#DE392E"/>
<path d="M51.3181 30.8972L50.7154 24.9419L45.1287 22.4339L40.2782 25.9413L40.8808 31.8967L46.4676 34.4046L51.3181 30.8972Z" fill="#DE392E"/>
</svg>
