<svg width="20" height="20" viewBox="0 0 20 20" fill="none" xmlns="http://www.w3.org/2000/svg">
<path d="M7.56237 4.71652L7.2299 3.96846C7.01251 3.47934 6.90382 3.23477 6.74126 3.04761C6.53754 2.81306 6.27199 2.64049 5.97491 2.54959C5.73786 2.47705 5.47023 2.47705 4.93497 2.47705C4.15197 2.47705 3.76047 2.47705 3.43182 2.62757C3.04468 2.80487 2.69506 3.18986 2.55575 3.59223C2.4375 3.93381 2.47138 4.28485 2.53912 4.98691C3.26022 12.4598 7.35724 16.5568 14.8301 17.278C15.5322 17.3457 15.8833 17.3796 16.2248 17.2613C16.6273 17.122 17.0122 16.7724 17.1896 16.3853C17.34 16.0566 17.34 15.6651 17.34 14.8821C17.34 14.3469 17.34 14.0793 17.2675 13.8422C17.1766 13.5451 17.004 13.2796 16.7694 13.0758C16.5823 12.9133 16.3378 12.8045 15.8486 12.5871L15.1005 12.2547C14.5709 12.0193 14.306 11.9016 14.0369 11.876C13.7793 11.8514 13.5196 11.8876 13.2785 11.9815C13.0266 12.0796 12.804 12.2651 12.3586 12.6363C11.9153 13.0056 11.6937 13.1903 11.4229 13.2892C11.1828 13.377 10.8654 13.4095 10.6126 13.3722C10.3273 13.3302 10.1089 13.2134 9.67202 12.98C8.31293 12.2536 7.56342 11.5042 6.83709 10.1451C6.60364 9.7082 6.48692 9.4898 6.44489 9.20452C6.40762 8.9517 6.44011 8.6343 6.52781 8.39419C6.62675 8.12338 6.81145 7.90174 7.18085 7.45846C7.55194 7.01315 7.73749 6.79049 7.83559 6.53856C7.92947 6.29749 7.96561 6.03777 7.94111 5.78022C7.91551 5.51108 7.7978 5.24623 7.56237 4.71652Z" stroke="#1C1918" stroke-width="1.23854" stroke-linecap="round"/>
</svg>
