<svg width="88" height="88" viewBox="0 0 88 88" fill="none" xmlns="http://www.w3.org/2000/svg">
<path d="M77.2873 68.9488C76.7033 68.5063 76.0232 68.2077 75.3022 68.0773C74.5811 67.9468 73.8395 67.9882 73.1375 68.198L54.4086 73.7129H44.0339L36.6625 69.6176H50.5044C50.8665 69.6176 51.2137 69.4738 51.4697 69.2178C51.7257 68.9618 51.8695 68.6146 51.8695 68.2526V64.1573C51.8668 63.7954 51.7251 63.4484 51.4736 63.1881L48.7435 60.4579C48.552 60.2703 48.3101 60.1422 48.0473 60.0894L27.5711 55.9941C27.4809 55.9783 27.3896 55.9692 27.298 55.9668H19.1075C18.9345 55.9642 18.7626 55.9967 18.6025 56.0624L13.6472 58.0418V55.9668C13.6482 55.642 13.5332 55.3274 13.323 55.0797C13.1129 54.832 12.8212 54.6674 12.5005 54.6154L4.31006 53.2503C4.11405 53.2226 3.9144 53.2362 3.72397 53.2903C3.53353 53.3443 3.35653 53.4377 3.20434 53.5643C3.05527 53.6931 2.9355 53.8523 2.85309 54.0313C2.77068 54.2102 2.72754 54.4047 2.72656 54.6017V81.9034C2.72656 82.2654 2.87038 82.6126 3.12639 82.8686C3.38239 83.1246 3.7296 83.2685 4.09164 83.2685C4.16472 83.2707 4.23784 83.2662 4.31006 83.2548L12.5005 81.8897C12.8212 81.8378 13.1129 81.6731 13.323 81.4254C13.5332 81.1777 13.6482 80.8632 13.6472 80.5383V79.1732H17.5241L33.6866 84.5653C33.8284 84.6079 33.9754 84.6309 34.1234 84.6335H54.5997C54.7536 84.6341 54.9063 84.6063 55.0502 84.5516L76.0315 77.1529C76.9492 76.8286 77.7439 76.2279 78.3061 75.4334C78.8684 74.6389 79.1706 73.6897 79.1711 72.7164C79.1753 71.9845 79.007 71.262 78.6796 70.6074C78.3523 69.9528 77.8753 69.3845 77.2873 68.9488ZM10.9171 79.378L5.45673 80.2926V56.2125L10.9171 57.1271V79.378ZM75.1305 74.5729L54.3676 81.9034H34.3419L18.1793 76.5113C18.0375 76.4687 17.8905 76.4457 17.7425 76.4431H13.6472V60.9903L19.3669 58.697H27.1615L47.1054 62.683L49.1393 64.717V66.8875H31.3933C31.0922 66.8884 30.7999 66.9888 30.5618 67.1731C30.3237 67.3574 30.1533 67.6153 30.0769 67.9065C30.0006 68.1978 30.0227 68.5061 30.1398 68.7835C30.2569 69.0609 30.4624 69.2917 30.7244 69.4402L43.0101 76.2656C43.2128 76.3844 43.4441 76.4458 43.679 76.4431H54.5997C54.7292 76.446 54.8584 76.4275 54.9819 76.3884L73.9156 70.8189C74.2087 70.7298 74.5189 70.7118 74.8204 70.7664C75.1218 70.821 75.406 70.9466 75.6492 71.1329C75.9351 71.3466 76.1577 71.6339 76.2932 71.9641C76.4288 72.2943 76.4723 72.6551 76.4191 73.0081C76.3658 73.361 76.2179 73.693 75.991 73.9685C75.7641 74.2441 75.4667 74.4529 75.1305 74.5729Z" fill="#748D6E"/>
<path d="M43.6772 54.6034C55.72 54.6034 65.5186 41.7429 65.5186 25.9367V9.55568C65.5185 9.25501 65.4192 8.96277 65.2361 8.72433C65.0529 8.48589 64.7961 8.31458 64.5057 8.23701L44.0294 2.77668C43.7987 2.71506 43.5558 2.71506 43.3251 2.77668L22.8488 8.23701C22.5583 8.31458 22.3016 8.48589 22.1184 8.72433C21.9353 8.96277 21.836 9.25501 21.8359 9.55568V25.9367C21.8359 41.7429 31.6345 54.6034 43.6772 54.6034ZM24.5661 10.6054L43.6772 5.50821L62.7884 10.6054V25.9367C62.7884 40.2386 54.2157 51.8732 43.6772 51.8732C33.1388 51.8732 24.5661 40.2386 24.5661 25.9367V10.6054Z" fill="#748D6E"/>
<path d="M40.7853 19.5244V25.3019H35.0078V31.0794H40.7853V36.8569H46.5628V31.0794H52.3403V25.3019H46.5628V19.5244H40.7853Z" fill="#FC713C"/>
<path d="M70.9802 10.921H73.7103V8.1908H76.4405V5.46063H73.7103V2.73047H70.9802V5.46063H68.25V8.1908H70.9802V10.921Z" fill="#748D6E"/>
<path d="M84.628 13.6511H81.8978V10.9209H79.1677V13.6511H76.4375V16.3812H79.1677V19.1114H81.8978V16.3812H84.628V13.6511Z" fill="#748D6E"/>
<path d="M65.5192 45.0479V47.778H62.7891V50.5082H65.5192V53.2383H68.2494V50.5082H70.9796V47.778H68.2494V45.0479H65.5192Z" fill="#748D6E"/>
<path d="M76.4369 36.8564H73.7067V39.5866H70.9766V42.3168H73.7067V45.0469H76.4369V42.3168H79.1671V39.5866H76.4369V36.8564Z" fill="#748D6E"/>
<path d="M13.6442 10.921H16.3744V8.1908H19.1046V5.46063H16.3744V2.73047H13.6442V5.46063H10.9141V8.1908H13.6442V10.921Z" fill="#748D6E"/>
<path d="M5.45673 19.1114H8.18689V16.3812H10.9171V13.6511H8.18689V10.9209H5.45673V13.6511H2.72656V16.3812H5.45673V19.1114Z" fill="#748D6E"/>
<path d="M19.1052 45.0479V47.778H16.375V50.5082H19.1052V53.2383H21.8353V50.5082H24.5655V47.778H21.8353V45.0479H19.1052Z" fill="#748D6E"/>
<path d="M13.6478 45.0469V42.3168H16.378V39.5866H13.6478V36.8564H10.9177V39.5866H8.1875V42.3168H10.9177V45.0469H13.6478Z" fill="#748D6E"/>
</svg>
