<svg width="88" height="88" viewBox="0 0 88 88" fill="none" xmlns="http://www.w3.org/2000/svg">
<path d="M77.6287 83.2704C80.7275 83.2704 83.2529 80.745 83.2529 77.5508L81.4373 53.3479C81.3827 52.638 80.7957 52.092 80.0722 52.092H73.6836V49.9488C73.6836 46.7955 71.1173 44.2291 67.9639 44.2291H63.3909C60.2376 44.2291 57.6712 46.7955 57.6712 49.9488V52.092H51.5147C50.8049 52.092 50.2042 52.638 50.1496 53.3479L50.095 54.085L43.6928 53.1977V50.4129C46.928 48.338 49.4671 45.2393 50.8185 41.5126L56.47 39.6834C63.6503 43.178 72.182 41.7583 77.8471 36.0796C81.3827 32.544 83.3211 27.8481 83.3211 22.8519C83.3211 17.8557 81.369 13.1598 77.8471 9.62428C74.3116 6.08872 69.6157 4.15031 64.6195 4.15031C59.6233 4.15031 54.9274 6.10237 51.3919 9.62428C50.8185 10.1976 50.2998 10.8119 49.8084 11.4398C45.9315 6.81222 40.1982 4.0957 34.1099 4.0957C22.8207 4.0957 13.6337 13.2827 13.6337 24.5719V26.7015C12.0092 27.6434 10.9035 29.3907 10.9035 31.3973C10.9035 34.4142 13.347 36.8577 16.3639 36.8577H16.4594C17.0328 42.4818 20.1315 47.3688 24.5543 50.3174V53.1977L17.2648 54.2079C15.1216 54.5082 13.0877 55.218 11.2312 56.3374C6.82194 58.9993 4.07812 63.859 4.07812 69.019V81.9054C4.07812 82.6562 4.69241 83.2704 5.44321 83.2704H77.6014H77.6287ZM60.4014 49.9351C60.4014 48.2834 61.7392 46.9456 63.3909 46.9456H67.9639C69.6157 46.9456 70.9535 48.2834 70.9535 49.9351V52.0783H60.4014V49.9351ZM53.3439 11.5627C56.3608 8.54587 60.3741 6.88047 64.6331 6.88047C68.8922 6.88047 72.9055 8.54587 75.9224 11.5627C78.9392 14.5795 80.6046 18.5929 80.6046 22.8519C80.6046 27.111 78.9392 31.1243 75.9224 34.1412C70.9535 39.11 63.4319 40.2567 57.2207 36.9942C56.8931 36.8304 56.5246 36.7894 56.1696 36.8986L48.0747 39.5059C47.9518 39.5469 47.9518 39.3831 47.9518 39.3831L50.5592 31.2881C50.6684 30.9332 50.6411 30.5646 50.4636 30.237C47.2011 24.0122 48.3477 16.5043 53.3166 11.5354L53.3439 11.5627ZM16.3912 24.5719C16.3912 14.7843 24.3496 6.82587 34.1372 6.82587C39.6931 6.82587 44.8941 9.46047 48.2385 13.8697C46.2182 17.5281 45.4947 21.7189 46.1636 25.8278C42.1503 25.4729 38.2598 24.1761 34.8471 22.0602C34.4102 21.7872 33.8506 21.7872 33.4137 22.0602C29.3185 24.5992 24.5953 25.9507 19.7766 25.9507H16.3912V24.5856V24.5719ZM13.661 31.3973C13.661 29.8957 14.8896 28.6672 16.3912 28.6672V34.1275C14.8896 34.1275 13.661 32.8989 13.661 31.3973ZM19.1213 34.9465V28.6672H19.7766C24.8274 28.6672 29.7826 27.3294 34.1372 24.804C38.0004 27.0427 42.355 28.3396 46.8461 28.5989C47.1055 29.418 47.4331 30.2234 47.8153 31.0151L45.3718 38.5777C45.0442 39.5878 45.3036 40.6935 46.068 41.4443C46.4912 41.8675 47.0099 42.1269 47.5696 42.2224C45.0033 47.3142 39.6385 50.645 33.8642 50.5221C25.742 50.372 19.135 43.3964 19.135 34.9602L19.1213 34.9465ZM33.8096 53.2386H34.1236C36.5125 53.2386 38.8331 52.7472 40.9626 51.8463V55.8459C40.9626 57.1701 40.3074 58.3987 39.2017 59.1358C36.1302 61.1834 32.1442 61.1834 29.0728 59.1358C27.9671 58.3987 27.3118 57.1701 27.3118 55.8459V51.8053C29.3185 52.679 31.5163 53.1977 33.8096 53.2386ZM6.83559 69.019C6.83559 64.8145 9.07432 60.8558 12.6781 58.6853C14.2207 57.7571 15.8997 57.1564 17.6743 56.9107L24.5953 55.9415C24.6226 58.1393 25.7283 60.1869 27.5712 61.4155C29.5642 62.7533 31.8575 63.4085 34.1509 63.4085C36.4442 63.4085 38.7375 62.7396 40.7306 61.4155C42.5734 60.1869 43.6655 58.1529 43.7064 55.9415L49.9039 56.8015L48.3341 77.6463C48.3341 78.7111 48.648 79.6939 49.1668 80.5403H16.1454V73.3872C16.1454 72.6365 15.5312 72.0222 14.7804 72.0222C14.0296 72.0222 13.4153 72.6365 13.4153 73.3872V80.5403H6.83559V69.019ZM77.6287 80.5403H53.9446C52.3474 80.5403 51.0506 79.2434 51.0506 77.7555L52.7842 54.8085H57.6712V58.5215C57.6712 59.2723 58.2855 59.8866 59.0363 59.8866C59.7871 59.8866 60.4014 59.2723 60.4014 58.5215V54.8085H70.9535V58.5215C70.9535 59.2723 71.5678 59.8866 72.3186 59.8866C73.0694 59.8866 73.6836 59.2723 73.6836 58.5215V54.8085H78.8027L80.5227 77.6463C80.5227 79.2434 79.2259 80.5403 77.6287 80.5403Z" fill="#748D6E"/>
<path d="M64.8003 34.4551C64.5682 34.4551 64.3361 34.4005 64.1314 34.2776C63.7355 34.0456 54.3438 28.6535 54.3438 20.5859C54.3438 16.7773 57.1968 13.5693 60.5685 13.5693C62.1657 13.5693 63.6673 14.2109 64.8003 15.3439C65.9333 14.2246 67.4349 13.5693 69.032 13.5693C72.4038 13.5693 75.2568 16.7773 75.2568 20.5859C75.2568 28.6535 65.865 34.0456 65.4692 34.2776C65.2644 34.4005 65.0323 34.4551 64.8003 34.4551Z" fill="#FC713C"/>
</svg>
