<svg width="88" height="88" viewBox="0 0 88 88" fill="none" xmlns="http://www.w3.org/2000/svg">
<path d="M55.1823 40.9732C55.0116 40.6285 54.6653 40.4084 54.2813 40.4033C54.1022 40.4016 53.9281 40.4477 53.7762 40.5296C51.9044 37.0077 48.1385 34.8218 43.6866 34.8218C39.2347 34.8218 35.4688 37.0077 33.5952 40.5313C33.4416 40.4477 33.2693 40.4016 33.0901 40.4033C32.7062 40.4101 32.3581 40.6302 32.1892 40.9732L29.6621 46.094L23.9373 47.1195C23.5602 47.1878 23.2513 47.4608 23.1387 47.8276C23.0261 48.1945 23.1284 48.5938 23.4032 48.8617L27.4916 52.8477L26.6981 58.6101C26.6452 58.9906 26.8108 59.3677 27.1247 59.5878C27.3005 59.7107 27.5069 59.7738 27.7134 59.7738C27.8772 59.7738 28.0393 59.7346 28.1895 59.6561L33.2437 56.9993L36.6922 58.6698L36.281 61.0655C36.2162 61.4443 36.368 61.8266 36.6752 62.0569C36.9823 62.2873 37.3918 62.3265 37.7365 62.1593L43.5398 59.3472L49.1452 62.2941C49.2954 62.3726 49.4592 62.4118 49.6213 62.4118C49.8277 62.4118 50.0342 62.3487 50.21 62.2258C50.5239 62.0057 50.6877 61.6286 50.6366 61.2481L50.3055 58.8507L54.1312 56.9976L59.1854 59.6544C59.3355 59.7329 59.4993 59.7721 59.6615 59.7721C59.8679 59.7721 60.0744 59.709 60.2501 59.5861C60.5641 59.366 60.7279 58.9889 60.6767 58.6084L59.8833 52.846L63.9717 48.86C64.2464 48.5921 64.3488 48.1928 64.2362 47.8259C64.1236 47.4591 63.8147 47.1861 63.4376 47.1178L57.7128 46.0923L55.1823 40.9732ZM43.6849 36.8677C46.8382 36.8677 50.9642 38.383 52.4658 42.6147L50.6161 46.0701L46.9338 46.6042L44.6029 41.8793C44.434 41.5346 44.0859 41.3145 43.7019 41.3094C43.3197 41.3025 42.9631 41.5124 42.7822 41.8503L40.2517 46.5786L36.752 46.0701L34.9023 42.6147C36.4056 38.383 40.5315 36.8677 43.6849 36.8677ZM33.6686 54.9261C33.3768 54.7844 33.0338 54.7896 32.7454 54.9414L28.9966 56.9123L29.5887 52.6105C29.6331 52.288 29.5221 51.9638 29.2884 51.7369L26.2562 48.7798L30.5306 48.0153C30.8514 47.9573 31.1244 47.7526 31.2677 47.4608L33.1413 43.6624L35.1907 47.4898C35.3442 47.7764 35.6241 47.9727 35.9466 48.0205L36.1718 48.0529L33.4724 48.4453C33.0918 48.4999 32.7762 48.7627 32.6516 49.1262C32.527 49.4896 32.6158 49.8906 32.882 50.167L37.3492 54.8186L37.0506 56.5625L33.6686 54.9261ZM44.033 57.2911C43.8845 57.2126 43.7207 57.1733 43.5569 57.1733C43.405 57.1733 43.2515 57.2075 43.1098 57.2757L38.6324 59.4445L39.4531 54.6565C39.5077 54.3357 39.407 54.008 39.1818 53.7743L35.735 50.1858L40.5418 49.4879C40.8643 49.4418 41.1441 49.2439 41.2977 48.9572L43.6456 44.5702L45.7956 48.9265C45.939 49.2183 46.2137 49.4248 46.5328 49.4811L51.43 50.3582L47.9508 53.7487C47.7187 53.9756 47.6061 54.2998 47.6504 54.6223L48.3296 59.5503L44.033 57.2911ZM58.0797 51.7386C57.8476 51.9655 57.735 52.2897 57.7793 52.6122L58.3715 56.914L54.6226 54.9431C54.3342 54.7913 53.993 54.7861 53.6995 54.9278L50.0069 56.716L49.751 54.8578L54.2864 50.4384C54.5612 50.1705 54.6635 49.7712 54.5509 49.4043C54.4383 49.0374 54.1312 48.7644 53.7524 48.6962L50.6331 48.1382L51.4232 48.0239C51.7457 47.9778 52.0255 47.7799 52.1791 47.4932L54.2284 43.6658L56.102 47.4642C56.2453 47.756 56.5201 47.9624 56.8391 48.0187L61.1136 48.7832L58.0797 51.7386ZM82.3798 35.1546L75.1278 33.5967C74.7593 33.5182 74.4982 33.2878 74.3736 32.9329C73.976 31.7999 73.5102 30.6754 72.9864 29.5884C72.8225 29.2489 72.8447 28.9025 73.0495 28.5851L77.0782 22.3518C77.8716 21.1232 77.7044 19.5431 76.6704 18.5091L68.8621 10.7008C67.8281 9.66677 66.2463 9.49785 65.0194 10.293L58.7861 14.3217C58.4687 14.5265 58.1223 14.5486 57.7828 14.3848C56.6958 13.861 55.5713 13.3934 54.44 12.9976C54.0851 12.873 53.8547 12.6119 53.7762 12.2434L52.2183 4.99137C51.9112 3.56145 50.6741 2.56152 49.2118 2.56152H38.1682C36.7059 2.56152 35.4688 3.55974 35.1616 4.99137L33.6037 12.2434C33.5253 12.6119 33.2949 12.873 32.94 12.9976C31.807 13.3952 30.6825 13.861 29.5972 14.3848C29.2577 14.5486 28.9113 14.5265 28.5939 14.3217L22.3606 10.293C21.132 9.49955 19.5519 9.66677 18.5179 10.7008L10.7096 18.5091C9.67556 19.5431 9.50664 21.1232 10.3018 22.3518L14.3305 28.5851C14.5353 28.9025 14.5574 29.2489 14.3936 29.5884C13.8698 30.6754 13.4022 31.7999 13.0064 32.9312C12.8818 33.2861 12.6207 33.5165 12.2522 33.595L5.00016 35.1529C3.57024 35.46 2.57031 36.6971 2.57031 38.1594V49.203C2.57031 50.6653 3.56853 51.9024 5.00016 52.2096L12.2522 53.7675C12.6207 53.8459 12.8818 54.0763 13.0064 54.4312C13.4039 55.5659 13.8715 56.6904 14.3936 57.774C14.5574 58.1135 14.5353 58.4599 14.3305 58.7773L10.3018 65.0106C9.50834 66.2392 9.67556 67.8193 10.7096 68.8533L18.5179 76.6616C19.5519 77.6956 21.132 77.8629 22.3606 77.0694L28.5939 73.0407C28.9113 72.8359 29.2577 72.8138 29.5972 72.9776C30.6842 73.5014 31.8087 73.969 32.94 74.3648C33.2949 74.4894 33.5253 74.7505 33.6037 75.119L35.1616 82.371C35.4688 83.801 36.7042 84.8009 38.1682 84.8009H49.2118C50.6741 84.8009 51.9112 83.8027 52.2183 82.371L53.7762 75.119C53.8547 74.7505 54.0851 74.4894 54.44 74.3648C55.573 73.9672 56.6975 73.5014 57.7828 72.9776C58.1223 72.8138 58.4704 72.8359 58.7861 73.0407L65.0194 77.0694C66.248 77.8629 67.8281 77.6956 68.8621 76.6616L76.6704 68.8533C77.7044 67.8193 77.8734 66.2392 77.0782 65.0106L73.0495 58.7773C72.8447 58.4599 72.8225 58.1135 72.9864 57.774C73.5102 56.687 73.9778 55.5625 74.3736 54.4312C74.4982 54.0763 74.7593 53.8459 75.1278 53.7675L82.3798 52.2096C83.8098 51.9024 84.808 50.667 84.808 49.203V38.1594C84.808 36.6988 83.8098 35.4617 82.3798 35.1546ZM82.7603 49.2047C82.7603 49.7012 82.4344 50.1039 81.9481 50.2097L74.6961 51.7676C73.6245 51.998 72.8021 52.7232 72.4403 53.7572C72.0683 54.8169 71.6315 55.8714 71.1401 56.8884C70.664 57.8763 70.7323 58.9718 71.3278 59.8933L75.3565 66.1266C75.6261 66.5429 75.5715 67.0599 75.22 67.4114L67.4117 75.2197C67.0602 75.5712 66.5449 75.6258 66.1285 75.3562L59.8935 71.3258C58.9721 70.7303 57.8766 70.662 56.8886 71.1381C55.8716 71.6278 54.8171 72.0664 53.7575 72.4384C52.7234 72.8001 51.9982 73.6226 51.7679 74.6942L50.21 81.9462C50.1059 82.4308 49.7015 82.7584 49.2049 82.7584H38.1614C37.6649 82.7584 37.2622 82.4325 37.1564 81.9462L35.5985 74.6942C35.3681 73.6226 34.6429 72.8001 33.6089 72.4384C32.5492 72.0664 31.4947 71.6295 30.4777 71.1381C30.0426 70.9282 29.587 70.8242 29.1331 70.8242C28.5581 70.8242 27.9881 70.9931 27.4728 71.3258L21.2395 75.3545C20.8232 75.6241 20.3061 75.5695 19.9546 75.218L12.1464 67.4097C11.7949 67.0582 11.7403 66.5429 12.0099 66.1249L16.042 59.8915C16.6375 58.9701 16.7057 57.8746 16.2297 56.8867C15.7399 55.8714 15.3031 54.8169 14.9294 53.7555C14.5677 52.7215 13.7452 51.9963 12.6736 51.7659L5.42163 50.208C4.93702 50.1039 4.6094 49.6995 4.6094 49.203V38.1594C4.6094 37.6629 4.93532 37.2602 5.42163 37.1544L12.6736 35.5965C13.7452 35.3662 14.5677 34.6409 14.9294 33.6069C15.3014 32.5473 15.7382 31.4927 16.2297 30.4757C16.7057 29.4878 16.6375 28.3923 16.042 27.4709L12.0133 21.2375C11.7437 20.8212 11.7983 20.3042 12.1498 19.9544L19.958 12.1461C20.3096 11.7946 20.8249 11.74 21.2429 12.0096L27.4762 16.04C28.3977 16.6355 29.4931 16.7038 30.4811 16.2277C31.4981 15.738 32.5526 15.2994 33.6123 14.9275C34.6463 14.5657 35.3715 13.7433 35.6019 12.6717L37.1598 5.41966C37.2639 4.93506 37.6683 4.60744 38.1648 4.60744H49.2083C49.7049 4.60744 50.1076 4.93335 50.2134 5.41966L51.7713 12.6717C52.0016 13.7433 52.7268 14.5657 53.7609 14.9275C54.8205 15.2994 55.8751 15.7363 56.892 16.2277C57.88 16.7038 58.9755 16.6355 59.8969 16.04L66.1302 12.0113C66.5466 11.7417 67.0636 11.7963 67.4151 12.1478L75.2234 19.9561C75.5749 20.3076 75.6295 20.8229 75.3599 21.241L71.3278 27.4743C70.7323 28.3957 70.664 29.4912 71.1401 30.4792C71.6298 31.4961 72.0683 32.5507 72.4403 33.6103C72.8021 34.6444 73.6245 35.3696 74.6961 35.5982L81.9481 37.1561C82.4327 37.2602 82.7603 37.6646 82.7603 38.1612V49.2047ZM43.6849 16.7993C28.8618 16.7993 16.8013 28.8598 16.8013 43.6829C16.8013 58.506 28.8618 70.5665 43.6849 70.5665C58.508 70.5665 70.5685 58.506 70.5685 43.6829C70.5685 28.8598 58.508 16.7993 43.6849 16.7993ZM43.6849 68.5189C29.9897 68.5189 18.8489 57.3781 18.8489 43.6829C18.8489 29.9877 29.9897 18.847 43.6849 18.847C57.3801 18.847 68.5208 29.9877 68.5208 43.6829C68.5208 57.3781 57.3801 68.5189 43.6849 68.5189Z" fill="#748D6E"/>
<path d="M47.7192 26.9491C47.7192 24.7223 45.9071 22.9102 43.6803 22.9102C41.4535 22.9102 39.6414 24.7223 39.6414 26.9491C39.6414 29.1759 41.4535 30.988 43.6803 30.988C45.9071 30.988 47.7192 29.1759 47.7192 26.9491Z" fill="#FC713C"/>
</svg>
