<svg width="88" height="88" viewBox="0 0 88 88" fill="none" xmlns="http://www.w3.org/2000/svg">
<g clip-path="url(#clip0_867_2035)">
<path d="M63.6719 75.6514H75.0766" stroke="#748D6E" stroke-width="2.55953" stroke-miterlimit="10" stroke-linecap="round" stroke-linejoin="round"/>
<path d="M81.0507 75.6514H84.2406C85.183 75.6514 85.947 74.8875 85.947 73.945V60.2183C85.947 56.8482 83.2149 54.1162 79.8449 54.1162H61.5495C58.66 54.1162 56.2409 56.1251 55.6094 58.822" stroke="#748D6E" stroke-width="2.55953" stroke-miterlimit="10" stroke-linecap="round" stroke-linejoin="round"/>
<path d="M70.6953 54.1162V61.0723" stroke="#748D6E" stroke-width="2.55953" stroke-miterlimit="10" stroke-linejoin="round"/>
<path d="M1.41406 68.3289V73.9449C1.41406 74.8873 2.178 75.6512 3.12041 75.6512H23.6873V66.8217C23.6873 62.4036 27.2689 58.822 31.687 58.822H31.7516C31.1201 56.1251 28.701 54.1162 25.8115 54.1162H7.51615C4.1461 54.1162 1.41406 56.8482 1.41406 60.2183V62.3567" stroke="#748D6E" stroke-width="2.55953" stroke-miterlimit="10" stroke-linecap="round" stroke-linejoin="round"/>
<path d="M16.6641 54.1162V61.0723" stroke="#748D6E" stroke-width="2.55953" stroke-miterlimit="10" stroke-linejoin="round"/>
<path d="M37.3586 58.8213H31.6872C27.2691 58.8213 23.6875 62.4029 23.6875 66.821V84.3789C23.6875 85.3213 24.4514 86.0852 25.3939 86.0852H61.9656C62.908 86.0852 63.6719 85.3213 63.6719 84.3789V66.8212C63.6719 62.4031 60.0903 58.8215 55.6722 58.8215H50.0008" stroke="#748D6E" stroke-width="2.55953" stroke-miterlimit="10" stroke-linejoin="round"/>
<path d="M37.3594 55.3086V62.2029C37.3594 62.7894 38.0124 63.1397 38.5009 62.8152L43.6804 59.3755L48.8598 62.8152C49.3484 63.1396 50.0014 62.7894 50.0014 62.2029V55.3086" stroke="#748D6E" stroke-width="2.55953" stroke-miterlimit="10" stroke-linejoin="round"/>
<path d="M43.6797 59.374V67.5715" stroke="#748D6E" stroke-width="2.55953" stroke-miterlimit="10" stroke-linecap="round" stroke-linejoin="round"/>
<path d="M43.6797 73.5459V86.0876" stroke="#748D6E" stroke-width="2.55953" stroke-miterlimit="10" stroke-linecap="round" stroke-linejoin="round"/>
<path d="M16.6641 31.2268V21.6357" stroke="#748D6E" stroke-width="2.55953" stroke-miterlimit="10" stroke-linecap="round" stroke-linejoin="round"/>
<path d="M70.6953 31.2268V21.6357" stroke="#748D6E" stroke-width="2.55953" stroke-miterlimit="10" stroke-linecap="round" stroke-linejoin="round"/>
<path d="M43.6875 30.2577V29.0938" stroke="#748D6E" stroke-width="2.55953" stroke-miterlimit="10" stroke-linecap="round" stroke-linejoin="round"/>
<path d="M36.4375 28.3156L37.0194 27.3076" stroke="#748D6E" stroke-width="2.55953" stroke-miterlimit="10" stroke-linecap="round" stroke-linejoin="round"/>
<path d="M31.1406 23.0135L32.1484 22.4316" stroke="#748D6E" stroke-width="2.55953" stroke-miterlimit="10" stroke-linecap="round" stroke-linejoin="round"/>
<path d="M29.1953 15.7676H30.3592" stroke="#748D6E" stroke-width="2.55953" stroke-miterlimit="10" stroke-linecap="round" stroke-linejoin="round"/>
<path d="M31.1406 8.52344L32.1484 9.1053" stroke="#748D6E" stroke-width="2.55953" stroke-miterlimit="10" stroke-linecap="round" stroke-linejoin="round"/>
<path d="M36.4375 3.22168L37.0194 4.22962" stroke="#748D6E" stroke-width="2.55953" stroke-miterlimit="10" stroke-linecap="round" stroke-linejoin="round"/>
<path d="M43.6875 1.28125V2.44498" stroke="#748D6E" stroke-width="2.55953" stroke-miterlimit="10" stroke-linecap="round" stroke-linejoin="round"/>
<path d="M50.9256 3.22168L50.3438 4.22962" stroke="#748D6E" stroke-width="2.55953" stroke-miterlimit="10" stroke-linecap="round" stroke-linejoin="round"/>
<path d="M56.2265 8.52344L55.2188 9.1053" stroke="#748D6E" stroke-width="2.55953" stroke-miterlimit="10" stroke-linecap="round" stroke-linejoin="round"/>
<path d="M58.1717 15.7676H57.0078" stroke="#748D6E" stroke-width="2.55953" stroke-miterlimit="10" stroke-linecap="round" stroke-linejoin="round"/>
<path d="M56.2267 23.0137L55.2188 22.4316" stroke="#748D6E" stroke-width="2.55953" stroke-miterlimit="10" stroke-linecap="round" stroke-linejoin="round"/>
<path d="M50.9256 28.3154L50.3438 27.3076" stroke="#748D6E" stroke-width="2.55953" stroke-miterlimit="10" stroke-linecap="round" stroke-linejoin="round"/>
<path d="M70.9227 21.6365C73.4689 21.6365 75.5329 19.5724 75.5329 17.0262C75.5329 14.4801 73.4689 12.416 70.9227 12.416C68.3766 12.416 66.3125 14.4801 66.3125 17.0262C66.3125 19.5724 68.3766 21.6365 70.9227 21.6365Z" stroke="#748D6E" stroke-width="2.55953" stroke-miterlimit="10" stroke-linecap="round" stroke-linejoin="round"/>
<path d="M16.8915 21.6365C19.4376 21.6365 21.5017 19.5724 21.5017 17.0262C21.5017 14.4801 19.4376 12.416 16.8915 12.416C14.3453 12.416 12.2812 14.4801 12.2812 17.0262C12.2812 19.5724 14.3453 21.6365 16.8915 21.6365Z" stroke="#748D6E" stroke-width="2.55953" stroke-miterlimit="10" stroke-linecap="round" stroke-linejoin="round"/>
<path d="M44.4389 7.89797L46.6705 11.146C46.7901 11.3202 46.966 11.448 47.1687 11.5079L50.9475 12.6266C51.5677 12.8102 51.8111 13.559 51.4172 14.0721L49.0178 17.1981C48.8891 17.3658 48.8219 17.5725 48.8275 17.7837L48.9312 21.7232C48.9483 22.3699 48.3113 22.8326 47.7016 22.6166L43.9871 21.3005C43.788 21.2299 43.5704 21.2299 43.3713 21.3005L39.6567 22.6166C39.0469 22.8326 38.41 22.3699 38.4271 21.7232L38.5309 17.7837C38.5365 17.5725 38.4693 17.3657 38.3406 17.1981L35.9411 14.0721C35.5473 13.559 35.7905 12.8102 36.4109 12.6266L40.1896 11.5079C40.3923 11.4479 40.5681 11.3202 40.6879 11.146L42.9194 7.89797C43.2853 7.36474 44.0726 7.36474 44.4389 7.89797Z" fill="#FC713C"/>
<path d="M16.6636 54.1152C21.2153 54.1152 24.9052 50.4253 24.9052 45.8735C24.9052 41.3218 21.2153 37.6318 16.6636 37.6318C12.1118 37.6318 8.42188 41.3218 8.42188 45.8735C8.42188 50.4253 12.1118 54.1152 16.6636 54.1152Z" stroke="#748D6E" stroke-width="2.55953" stroke-miterlimit="10" stroke-linejoin="round"/>
<path d="M43.6796 57.3524C49.6469 57.3524 54.4842 52.515 54.4842 46.5478C54.4842 40.5806 49.6469 35.7432 43.6796 35.7432C37.7124 35.7432 32.875 40.5806 32.875 46.5478C32.875 52.515 37.7124 57.3524 43.6796 57.3524Z" stroke="#748D6E" stroke-width="2.55953" stroke-miterlimit="10" stroke-linejoin="round"/>
<path d="M70.6948 54.1152C75.2466 54.1152 78.9365 50.4253 78.9365 45.8735C78.9365 41.3218 75.2466 37.6318 70.6948 37.6318C66.1431 37.6318 62.4531 41.3218 62.4531 45.8735C62.4531 50.4253 66.1431 54.1152 70.6948 54.1152Z" stroke="#748D6E" stroke-width="2.55953" stroke-miterlimit="10" stroke-linejoin="round"/>
</g>
<defs>
<clipPath id="clip0_867_2035">
<rect width="87.3652" height="87.3652" fill="white"/>
</clipPath>
</defs>
</svg>
