<svg width="88" height="88" viewBox="0 0 88 88" fill="none" xmlns="http://www.w3.org/2000/svg">
<path d="M43.6817 77.8989C24.8641 77.8989 9.55469 62.5895 9.55469 43.7719C9.55469 39.42 10.3628 35.1828 11.9559 31.1749C12.233 30.4746 13.0234 30.1293 13.7277 30.4105C14.4294 30.6889 14.7707 31.4821 14.4922 32.1823C13.0275 35.8681 12.2849 39.7681 12.2849 43.7719C12.2849 61.0839 26.3698 75.1688 43.6817 75.1688C48.6834 75.1688 53.4625 74.0289 57.8868 71.7793C58.5598 71.4366 59.3802 71.7056 59.7228 72.3772C60.0641 73.0488 59.7965 73.8706 59.1249 74.2132C54.313 76.6594 49.1161 77.8989 43.6817 77.8989Z" fill="#748D6E"/>
<path d="M75.3414 53.6127C75.224 53.6127 75.1052 53.5977 74.9879 53.5663C74.2603 53.3711 73.8262 52.6244 74.0214 51.8954C74.7244 49.2595 75.0807 46.5266 75.0807 43.7746C75.0807 36.9273 72.9157 30.4213 68.8204 24.9597C68.3672 24.3563 68.4901 23.5004 69.0934 23.0485C69.6941 22.594 70.5513 22.7182 71.0032 23.3216C75.4561 29.2597 77.8095 36.3321 77.8095 43.7746C77.8095 46.7641 77.4218 49.7345 76.656 52.5998C76.4935 53.21 75.942 53.6141 75.3387 53.6141L75.3414 53.6127Z" fill="#748D6E"/>
<path d="M31.3351 14.785C30.7959 14.785 30.2853 14.4642 30.0697 13.9346C29.7857 13.2357 30.1215 12.4398 30.8191 12.1545C34.9075 10.4891 39.2362 9.64551 43.6864 9.64551C46.2609 9.64551 48.8273 9.93354 51.3172 10.5014C52.0516 10.6693 52.5116 11.401 52.3437 12.1368C52.1758 12.8726 51.4414 13.3312 50.7097 13.1633C48.4191 12.6405 46.0561 12.3743 43.6864 12.3743C39.5911 12.3743 35.6078 13.151 31.8497 14.6827C31.6805 14.7509 31.5071 14.7837 31.3351 14.7837V14.785Z" fill="#748D6E"/>
<path d="M63.2578 21.2891C62.2354 21.2891 61.217 21.0352 60.2396 20.5246C57.0644 18.866 54.7301 14.6616 54.5636 10.3002C54.5486 9.92885 54.6878 9.56711 54.9445 9.29955C55.2011 9.03336 55.556 8.88184 55.9273 8.88184H55.9314C60.5317 8.89549 64.5383 10.2578 66.6473 12.5239C67.1606 13.0754 67.1305 13.9395 66.5777 14.4527C66.0248 14.9646 65.1621 14.9373 64.6475 14.3831C63.2837 12.917 60.6055 11.9246 57.4521 11.6734C57.9545 14.5019 59.5325 17.0723 61.505 18.103C62.7691 18.7623 64.0577 18.7036 65.345 17.9323C65.5839 17.7262 65.8938 17.602 66.2337 17.602C66.9886 17.602 67.5988 18.2135 67.5988 18.9671C67.5988 19.18 67.5469 19.3943 67.4513 19.5854C67.3435 19.8107 67.1742 20.0059 66.9572 20.1438C65.7696 20.9041 64.5123 21.285 63.2592 21.285L63.2578 21.2891Z" fill="#748D6E"/>
<path d="M69.5957 21.2933C68.1651 21.2933 66.7809 20.9056 65.5114 20.1275C65.308 20.0033 65.1401 19.8272 65.0254 19.617C63.1635 16.2056 63.9361 13.5246 64.9121 11.8756C67.2096 7.99194 73.1477 5.56892 80.4113 5.5498H80.4154C80.7853 5.5498 81.1402 5.69996 81.3982 5.96752C81.6549 6.23508 81.7941 6.59546 81.7791 6.96676C81.5757 12.3575 78.3623 17.7673 73.9667 20.1234C72.5116 20.9042 71.0318 21.2933 69.5971 21.2933H69.5957ZM67.2492 17.9775C69.2995 19.0559 71.3171 18.443 72.6767 17.7154C75.8683 16.005 78.2968 12.2756 78.9083 8.32229C73.3811 8.62533 68.8955 10.501 67.2601 13.2666C66.4206 14.6877 66.4165 16.2698 67.2492 17.9775Z" fill="#748D6E"/>
<path d="M66.2269 20.331C65.8352 20.331 65.4461 20.1631 65.1758 19.8395C64.6926 19.2607 64.7718 18.3994 65.3519 17.9175L73.9192 10.7863C74.4993 10.3017 75.3621 10.3836 75.8412 10.9624C76.3245 11.5412 76.2453 12.4026 75.6651 12.8844L67.0979 20.0156C66.8426 20.2286 66.5341 20.331 66.2269 20.331Z" fill="#748D6E"/>
<path d="M66.2227 20.3312C65.8992 20.3312 65.573 20.2179 65.3136 19.9845L61.4327 16.5213C60.8702 16.0189 60.8211 15.1562 61.3235 14.5938C61.8244 14.0314 62.6913 13.9822 63.2509 14.4846L67.1319 17.9478C67.6943 18.4501 67.7434 19.3129 67.2411 19.8753C66.9722 20.177 66.5968 20.3312 66.2227 20.3312Z" fill="#748D6E"/>
<path d="M43.6861 67.3589C30.6809 67.3589 20.1016 56.7781 20.1016 43.773C20.1016 30.7679 30.6809 20.1885 43.6861 20.1885C56.6912 20.1885 67.2706 30.7679 67.2706 43.773C67.2706 56.7781 56.6899 67.3589 43.6861 67.3589ZM43.6861 22.9186C32.1866 22.9186 22.8317 32.2749 22.8317 43.773C22.8317 55.2711 32.188 64.6287 43.6861 64.6287C55.1842 64.6287 64.5404 55.2724 64.5404 43.773C64.5404 32.2735 55.1842 22.9186 43.6861 22.9186Z" fill="#748D6E"/>
<path d="M71.1747 71.0799C67.5149 71.0799 64.5391 68.1027 64.5391 64.4443C64.5391 60.7858 67.5163 57.8086 71.1747 57.8086C74.8331 57.8086 77.8104 60.7858 77.8104 64.4443C77.8104 68.1027 74.8331 71.0799 71.1747 71.0799ZM71.1747 60.5374C69.0206 60.5374 67.2692 62.2902 67.2692 64.4429C67.2692 66.5956 69.0206 68.3484 71.1747 68.3484C73.3288 68.3484 75.0802 66.5956 75.0802 64.4429C75.0802 62.2902 73.3288 60.5374 71.1747 60.5374Z" fill="#748D6E"/>
<path d="M80.5389 81.8152H61.7949C61.3704 81.8152 60.9704 81.6186 60.7124 81.2814C60.4544 80.9456 60.3671 80.5088 60.4749 80.0993L62.2905 73.2684C63.0604 70.3717 65.6909 68.3486 68.6886 68.3486H73.6466C76.6429 68.3486 79.2734 70.3717 80.0447 73.2684L81.8603 80.0993C81.9681 80.5088 81.8821 80.9456 81.6227 81.2814C81.3647 81.6186 80.9634 81.8152 80.5389 81.8152ZM63.5695 79.085H78.7629L77.4033 73.97C76.9514 72.2678 75.4062 71.0802 73.6452 71.0802H68.6872C66.9263 71.0802 65.381 72.2691 64.9292 73.97L63.5695 79.085Z" fill="#748D6E"/>
<path d="M16.0253 26.6785C10.2005 26.6785 5.46094 21.939 5.46094 16.1142C5.46094 10.2894 10.2005 5.5498 16.0253 5.5498C21.8501 5.5498 26.5897 10.2894 26.5897 16.1142C26.5897 21.939 21.8501 26.6785 16.0253 26.6785ZM16.0253 8.2786C11.7048 8.2786 8.1911 11.7937 8.1911 16.1128C8.1911 20.4319 11.7048 23.947 16.0253 23.947C20.3458 23.947 23.8595 20.4319 23.8595 16.1128C23.8595 11.7937 20.3444 8.2786 16.0253 8.2786Z" fill="#748D6E"/>
<path d="M16.0218 26.6785C12.7661 26.6785 11.0625 21.3629 11.0625 16.1142C11.0625 10.8654 12.7661 5.5498 16.0218 5.5498C19.2776 5.5498 20.9826 10.8654 20.9826 16.1142C20.9826 21.3629 19.2789 26.6785 16.0218 26.6785ZM16.0218 8.2786C15.4485 8.2786 13.7927 10.9719 13.7927 16.1128C13.7927 21.2537 15.4485 23.947 16.0218 23.947C16.5952 23.947 18.2524 21.2537 18.2524 16.1128C18.2524 10.9719 16.5952 8.2786 16.0218 8.2786Z" fill="#748D6E"/>
<path d="M25.2246 17.4811H6.82602C6.07249 17.4811 5.46094 16.8696 5.46094 16.1161C5.46094 15.3625 6.07249 14.751 6.82602 14.751H25.2246C25.9781 14.751 26.5897 15.3625 26.5897 16.1161C26.5897 16.8696 25.9781 17.4811 25.2246 17.4811Z" fill="#748D6E"/>
<path d="M15.8802 37.4292C15.4174 37.4292 14.9669 37.1944 14.7103 36.7698L12.6395 33.3394L8.75992 34.7167C8.04734 34.9665 7.26925 34.598 7.01671 33.8868C6.76417 33.1756 7.13547 32.3961 7.84668 32.1436L12.776 30.3935C13.3848 30.1765 14.066 30.4181 14.4004 30.9737L17.0473 35.357C17.4377 36.0026 17.2303 36.8408 16.5846 37.2312C16.3634 37.365 16.1204 37.4278 15.8802 37.4278V37.4292Z" fill="#748D6E"/>
<path d="M47.6632 15.9086C47.2646 15.9086 46.8701 15.7353 46.6012 15.4022C46.1262 14.8152 46.2176 13.9566 46.8032 13.4829L49.1389 11.5936L47.2523 9.03271C46.806 8.42524 46.9356 7.5707 47.5431 7.12432C48.1506 6.67794 49.0037 6.80626 49.4515 7.41372L52.1107 11.0257C52.542 11.6127 52.4369 12.4372 51.869 12.8959L48.5191 15.6056C48.2652 15.8103 47.9635 15.91 47.6619 15.91L47.6632 15.9086Z" fill="#748D6E"/>
<path d="M75.339 53.6115C74.9268 53.6115 74.5227 53.4259 74.2565 53.0805L71.2683 49.2078C70.8083 48.6112 70.9189 47.754 71.5154 47.2939C72.1147 46.8312 72.9706 46.9445 73.4306 47.541L75.7103 50.4964L79.2227 48.5989C79.8861 48.2413 80.7161 48.4884 81.0724 49.1518C81.4314 49.8152 81.1829 50.6425 80.5209 51.0015L75.9874 53.4504C75.7827 53.561 75.5602 53.6143 75.339 53.6143V53.6115Z" fill="#748D6E"/>
<path d="M41.4792 51.1957C41.1557 51.1957 40.8308 51.0824 40.57 50.849L36.1827 46.9339C35.6202 46.4316 35.5711 45.5689 36.0735 45.0064C36.5744 44.444 37.4372 44.3935 38.0009 44.8972L42.3883 48.8123C42.9507 49.3146 42.9999 50.1774 42.4975 50.7398C42.2286 51.0415 41.8546 51.1957 41.4778 51.1957H41.4792Z" fill="#748D6E"/>
<path d="M38.1329 52.2698C37.0067 52.2698 35.8846 51.9899 34.8076 51.4275C31.2679 49.5805 28.6647 44.8942 28.4777 40.0332C28.4627 39.6619 28.6005 39.3001 28.8599 39.0326C29.1165 38.7664 29.4715 38.6162 29.8414 38.6162H29.8455C35.0246 38.634 39.5116 40.1533 41.8473 42.6828C42.2022 43.0664 42.306 43.6192 42.1148 44.1066C41.5183 45.6286 41.6848 47.2913 42.6076 49.0482C42.7646 49.2693 42.8574 49.5382 42.8574 49.8276C42.8574 50.046 42.8028 50.2631 42.7032 50.4583C42.5953 50.6794 42.4274 50.8692 42.2145 51.0071C40.9054 51.8479 39.5171 52.2698 38.1329 52.2698ZM31.3525 41.401C31.8863 44.7304 33.7401 47.7923 36.0703 49.0086C37.2661 49.6324 38.4824 49.7102 39.6959 49.2447C38.9888 47.4619 38.8482 45.6832 39.2823 44.0069C37.5705 42.579 34.682 41.6303 31.3525 41.401Z" fill="#748D6E"/>
<path d="M45.3005 52.2782C43.7497 52.2782 42.2481 51.8673 40.8653 51.0441C40.621 50.9213 40.4135 50.7274 40.2797 50.4817C38.9146 47.9713 38.6703 45.4227 39.5753 43.113C41.5165 38.1209 48.5616 34.872 57.522 34.8379H57.5275C57.8974 34.8379 58.251 34.9881 58.509 35.2542C58.767 35.5218 58.9062 35.8822 58.8912 36.2535C58.6646 42.283 55.0772 48.3345 50.167 50.9704C48.5453 51.8414 46.8962 52.2782 45.3005 52.2782ZM56.4694 36.9004C58.8815 38.2041 47.2853 49.4224 48.8756 48.5665C48.8756 45.284 55.3898 42.2052 56.0341 37.6063C49.0285 37.9475 48.4568 44.6905 42.1185 44.1041C45.7784 40.2472 55.6449 35.2214 56.4694 36.9004Z" fill="#FC713C"/>
<path d="M41.4829 51.1952C41.0912 51.1952 40.7035 51.0272 40.4332 50.7037C39.95 50.1249 40.0305 49.2636 40.6093 48.7817L50.2946 40.7209C50.8733 40.2363 51.7374 40.3182 52.2166 40.897C52.6998 41.4758 52.6207 42.3371 52.0405 42.819L42.3552 50.8798C42.1 51.0928 41.7901 51.1952 41.4829 51.1952Z" fill="#748D6E"/>
<path d="M41.4823 55.9149C40.7287 55.9149 40.1172 55.3034 40.1172 54.5498V49.8622C40.1172 49.1086 40.7287 48.4971 41.4823 48.4971C42.2358 48.4971 42.8474 49.1086 42.8474 49.8622V54.5498C42.8474 55.3034 42.2358 55.9149 41.4823 55.9149Z" fill="#748D6E"/>
</svg>
