<svg width="19" height="19" viewBox="0 0 19 19" fill="none" xmlns="http://www.w3.org/2000/svg">
<g clip-path="url(#clip0_756_4099)">
<path d="M9.18994 16.8496C13.4197 16.8496 16.8486 13.4207 16.8486 9.19092C16.8486 4.96114 13.4197 1.53223 9.18994 1.53223C4.96016 1.53223 1.53125 4.96114 1.53125 9.19092C1.53125 13.4207 4.96016 16.8496 9.18994 16.8496Z" stroke="#131313" stroke-width="1.53174" stroke-linecap="round" stroke-linejoin="round"/>
<path d="M9.19092 13.7861C11.7288 13.7861 13.7861 11.7288 13.7861 9.19092C13.7861 6.65305 11.7288 4.5957 9.19092 4.5957C6.65305 4.5957 4.5957 6.65305 4.5957 9.19092C4.5957 11.7288 6.65305 13.7861 9.19092 13.7861Z" stroke="#DE392E" stroke-width="1.53174" stroke-linecap="round" stroke-linejoin="round"/>
<path d="M9.18994 10.7217C10.0359 10.7217 10.7217 10.0359 10.7217 9.18994C10.7217 8.34399 10.0359 7.6582 9.18994 7.6582C8.34399 7.6582 7.6582 8.34399 7.6582 9.18994C7.6582 10.0359 8.34399 10.7217 9.18994 10.7217Z" stroke="#131313" stroke-width="1.53174" stroke-linecap="round" stroke-linejoin="round"/>
</g>
<defs>
<clipPath id="clip0_756_4099">
<rect width="18.3809" height="18.3809" fill="white"/>
</clipPath>
</defs>
</svg>
