<svg width="20" height="20" viewBox="0 0 20 20" fill="none" xmlns="http://www.w3.org/2000/svg">
<g clip-path="url(#clip0_325_1314)">
<path d="M15.8808 12.8939V14.6587C15.8815 14.8225 15.8479 14.9847 15.7823 15.1348C15.7167 15.2849 15.6204 15.4197 15.4997 15.5304C15.3789 15.6412 15.2364 15.7255 15.0812 15.778C14.926 15.8305 14.7615 15.85 14.5984 15.8352C12.7881 15.6385 11.0493 15.02 9.52154 14.0292C8.10016 13.126 6.89508 11.9209 5.99188 10.4996C4.99768 8.96487 4.37896 7.21756 4.18587 5.3992C4.17117 5.23652 4.1905 5.07257 4.24264 4.91777C4.29477 4.76297 4.37857 4.62073 4.48869 4.50009C4.59881 4.37945 4.73285 4.28307 4.88226 4.21707C5.03168 4.15107 5.1932 4.11691 5.35654 4.11676H7.12137C7.40686 4.11395 7.68364 4.21504 7.90011 4.40121C8.11658 4.58737 8.25797 4.84589 8.29792 5.12859C8.37241 5.69338 8.51056 6.24792 8.70972 6.78165C8.78887 6.99221 8.806 7.22104 8.75908 7.44104C8.71216 7.66104 8.60316 7.86297 8.44499 8.02292L7.69788 8.77003C8.53533 10.2428 9.75477 11.4622 11.2275 12.2997L11.9747 11.5526C12.1346 11.3944 12.3365 11.2854 12.5565 11.2385C12.7765 11.1916 13.0054 11.2087 13.2159 11.2879C13.7496 11.487 14.3042 11.6252 14.869 11.6996C15.1547 11.74 15.4157 11.8839 15.6023 12.1041C15.7888 12.3243 15.888 12.6053 15.8808 12.8939Z" stroke="#DE392E" stroke-width="1.17655" stroke-linecap="round" stroke-linejoin="round"/>
</g>
<defs>
<clipPath id="clip0_325_1314">
<rect width="14.1187" height="14.1187" fill="white" transform="translate(2.94043 2.94043)"/>
</clipPath>
</defs>
</svg>
