<svg width="20" height="20" viewBox="0 0 20 20" fill="none" xmlns="http://www.w3.org/2000/svg">
<path d="M3.75033 7.91602H3.33366C2.54798 7.91602 2.15515 7.91602 1.91107 8.16009C1.66699 8.40418 1.66699 8.79702 1.66699 9.58268V16.666C1.66699 17.4517 1.66699 17.8445 1.91107 18.0886C2.15515 18.3327 2.54798 18.3327 3.33366 18.3327H3.75033C4.536 18.3327 4.92883 18.3327 5.17292 18.0886C5.41699 17.8445 5.41699 17.4517 5.41699 16.666V9.58268C5.41699 8.79702 5.41699 8.40418 5.17292 8.16009C4.92883 7.91602 4.536 7.91602 3.75033 7.91602Z" stroke="#DE392E" stroke-width="1.25"/>
<path d="M5.41699 3.54102C5.41699 4.57655 4.57753 5.41602 3.54199 5.41602C2.50646 5.41602 1.66699 4.57655 1.66699 3.54102C1.66699 2.50548 2.50646 1.66602 3.54199 1.66602C4.57753 1.66602 5.41699 2.50548 5.41699 3.54102Z" stroke="#DE392E" stroke-width="1.25"/>
<path d="M10.272 7.91602H9.58366C8.79799 7.91602 8.40516 7.91602 8.16107 8.16009C7.91699 8.40418 7.91699 8.79702 7.91699 9.58268V16.666C7.91699 17.4517 7.91699 17.8445 8.16107 18.0886C8.40516 18.3327 8.79799 18.3327 9.58366 18.3327H10.0003C10.786 18.3327 11.1788 18.3327 11.4229 18.0886C11.667 17.8445 11.667 17.4517 11.667 16.666L11.6671 13.7494C11.6671 12.3688 12.1071 11.2494 13.4069 11.2494C14.0567 11.2494 14.5837 11.8091 14.5837 12.4994V16.2494C14.5837 17.0351 14.5837 17.4279 14.8277 17.672C15.0717 17.9161 15.4647 17.9161 16.2503 17.9161H16.6659C17.4514 17.9161 17.8442 17.9161 18.0882 17.6721C18.3323 17.4281 18.3324 17.0354 18.3326 16.2499L18.3337 11.6662C18.3337 9.59518 16.364 7.91622 14.4143 7.91622C13.3044 7.91622 12.3142 8.46027 11.6671 9.31102C11.667 8.78593 11.667 8.52343 11.553 8.32852C11.4807 8.20507 11.3779 8.10229 11.2545 8.03007C11.0596 7.91602 10.7971 7.91602 10.272 7.91602Z" stroke="#DE392E" stroke-width="1.25" stroke-linejoin="round"/>
</svg>
