<svg width="69" height="80" viewBox="0 0 69 80" fill="none" xmlns="http://www.w3.org/2000/svg">
<path d="M34.1358 79.1643C15.2832 79.1386 0.0208717 63.8349 0.0462489 44.9824C0.0717578 26.1297 15.3755 10.8675 34.2281 10.8929C34.6814 10.8935 35.1327 10.9059 35.5816 10.924L35.5963 0.0480299C42.0238 4.07731 53.6676 13.5074 59.4494 22.0764C64.9695 28.1499 68.3297 36.2208 68.3177 45.0748C68.292 63.9274 52.9884 79.1898 34.1358 79.1643Z" fill="#FFDEDB"/>
<circle cx="34.1888" cy="47.2832" r="21.9189" fill="#DE392E"/>
<g clip-path="url(#clip0_334_1489)">
<path d="M45.0317 49.2514V39.9576H35.7379V49.2514H41.9338C41.9338 52.6677 39.1543 55.4472 35.7379 55.4472V58.5452C40.8628 58.5452 45.0317 54.3763 45.0317 49.2514V49.2514Z" fill="white"/>
<path d="M23.3462 55.4472V58.5452C28.4711 58.5452 32.64 54.3763 32.64 49.2514V39.9576H23.3462L23.3462 49.2514H29.5421C29.5421 52.6677 26.7625 55.4472 23.3462 55.4472V55.4472Z" fill="white"/>
</g>
<defs>
<clipPath id="clip0_334_1489">
<rect width="21.6855" height="21.6855" fill="white" transform="matrix(-1 0 0 -1 45.0317 60.0941)"/>
</clipPath>
</defs>
</svg>
