<svg width="20" height="20" viewBox="0 0 20 20" fill="none" xmlns="http://www.w3.org/2000/svg">
<g clip-path="url(#clip0_325_1325)">
<path d="M15.4319 4.74589C14.0538 3.36778 12.2216 2.60889 10.2727 2.60889C8.32384 2.60889 6.49158 3.36778 5.11353 4.74589C3.73548 6.12394 2.97653 7.95616 2.97653 9.90504C2.97653 11.2914 3.36455 12.6326 4.10044 13.7971L2.47257 16.893C2.40739 17.017 2.4251 17.1683 2.51715 17.2739C2.58287 17.3493 2.67675 17.3902 2.773 17.3902C2.8117 17.3902 2.85075 17.3836 2.88853 17.37L6.40893 16.0947C7.56698 16.8192 8.89904 17.2012 10.2727 17.2012C12.2216 17.2012 14.0538 16.4422 15.4319 15.0642C16.8099 13.6861 17.5689 11.8539 17.5689 9.90504C17.5689 7.95619 16.8099 6.12394 15.4319 4.74589ZM10.2727 16.5225C8.97468 16.5225 7.71769 16.1465 6.63776 15.4351C6.58162 15.3981 6.51662 15.3791 6.45108 15.3791C6.41215 15.3791 6.37307 15.3858 6.33553 15.3994L3.48102 16.4335L4.79389 13.9366C4.85192 13.8263 4.84476 13.693 4.77526 13.5895C4.04253 12.4985 3.65525 11.2245 3.65525 9.90504C3.65525 6.25619 6.62384 3.28758 10.2727 3.28758C13.9216 3.28758 16.8901 6.25619 16.8901 9.90504C16.8901 13.5539 13.9216 16.5225 10.2727 16.5225Z" fill="#DE392E"/>
<path d="M12.7006 10.7305C12.4623 10.4921 12.0745 10.4921 11.8362 10.7305L11.3804 11.1862L8.81515 8.62095L9.27092 8.16521C9.50927 7.92686 9.50927 7.53908 9.27092 7.30073L8.16212 6.19193C7.92374 5.9536 7.53596 5.9536 7.29766 6.19193L6.47546 7.01411C6.17804 7.31153 6.01422 7.70699 6.01422 8.12763C6.01422 8.54827 6.17804 8.94368 6.47546 9.24113L10.7602 13.5259C11.0672 13.8329 11.4705 13.9864 11.8738 13.9864C12.277 13.9864 12.6803 13.8329 12.9873 13.5259L13.8095 12.7037C14.0478 12.4654 14.0478 12.0776 13.8095 11.8392L12.7006 10.7305ZM13.4148 12.3091L12.5926 13.1313C12.4006 13.3233 12.1453 13.4291 11.8737 13.4291C11.6022 13.4291 11.3469 13.3233 11.1549 13.1313L6.87009 8.84649C6.6781 8.6545 6.57236 8.39921 6.57236 8.12765C6.57236 7.8561 6.6781 7.6008 6.87012 7.40881L7.69232 6.58661C7.70268 6.57625 7.71626 6.57107 7.72988 6.57107C7.74349 6.57107 7.75708 6.57628 7.76746 6.58661L8.87627 7.69541C8.897 7.71613 8.897 7.74987 8.87627 7.77058L8.2232 8.42364C8.17089 8.47595 8.14148 8.54696 8.14148 8.62095C8.14148 8.69495 8.17089 8.76596 8.2232 8.81827L11.1831 11.7782C11.2354 11.8305 11.3064 11.8599 11.3804 11.8599C11.4544 11.8599 11.5254 11.8305 11.5777 11.7782L12.2308 11.1251C12.2515 11.1044 12.2852 11.1044 12.3059 11.1251L13.4148 12.2339C13.4355 12.2547 13.4355 12.2884 13.4148 12.3091Z" fill="#DE392E"/>
</g>
<defs>
<clipPath id="clip0_325_1325">
<rect width="15.1353" height="15.1353" fill="white" transform="translate(2.43359 2.43213)"/>
</clipPath>
</defs>
</svg>
