<svg width="50" height="50" viewBox="0 0 50 50" fill="none" xmlns="http://www.w3.org/2000/svg">
<foreignObject x="0" y="0" width="0" height="0"><div xmlns="http://www.w3.org/1999/xhtml" style="backdrop-filter:blur(10px);clip-path:url(#bgblur_0_325_1575_clip_path);height:100%;width:100%"></div></foreignObject><g data-figma-bg-blur-radius="20">
<mask id="path-1-inside-1_325_1575" fill="white">
<path d="M0 25C0 11.1929 11.1929 0 25 0V0C38.8071 0 50 11.1929 50 25V25C50 38.8071 38.8071 50 25 50V50C11.1929 50 0 38.8071 0 25V25Z"/>
</mask>
<path d="M0 25C0 11.1929 11.1929 0 25 0V0C38.8071 0 50 11.1929 50 25V25C50 38.8071 38.8071 50 25 50V50C11.1929 50 0 38.8071 0 25V25Z" fill="#05C241" fill-opacity="0.81"/>
<g clip-path="url(#paint0_angular_325_1575_clip_path)" data-figma-skip-parse="true" mask="url(#path-1-inside-1_325_1575)"><g transform="matrix(0.0269886 0.00610465 -0.0053207 0.0235648 25 26.4535)"><foreignObject x="-1345.85" y="-1345.85" width="2691.71" height="2691.71"><div xmlns="http://www.w3.org/1999/xhtml" style="background:conic-gradient(from 90deg,rgba(178, 178, 178, 0.5) 0deg,rgba(156, 156, 156, 0.5) 10.5206deg,rgba(156, 156, 156, 0.35) 32.1212deg,rgba(255, 255, 255, 0.5) 60.2813deg,rgba(255, 255, 255, 0.5) 107.788deg,rgba(156, 156, 156, 0.35) 187.591deg,rgba(249, 249, 249, 1) 207.58deg,rgba(255, 255, 255, 0.5) 287.308deg,rgba(249, 249, 249, 0.5) 327.047deg,rgba(178, 178, 178, 0.5) 360deg);height:100%;width:100%;opacity:1"></div></foreignObject></g></g><path d="M0 25M50 25M50 25M0 25M25 0M50 25M25 50M0 25M25 50V49C11.7452 49 1 38.2548 1 25H0H-1C-1 39.3594 10.6406 51 25 51V50ZM50 25H49C49 38.2548 38.2548 49 25 49V50V51C39.3594 51 51 39.3594 51 25H50ZM25 0V1C38.2548 1 49 11.7452 49 25H50H51C51 10.6406 39.3594 -1 25 -1V0ZM25 0V-1C10.6406 -1 -1 10.6406 -1 25H0H1C1 11.7452 11.7452 1 25 1V0Z" data-figma-gradient-fill="{&#34;type&#34;:&#34;GRADIENT_ANGULAR&#34;,&#34;stops&#34;:[{&#34;color&#34;:{&#34;r&#34;:0.61176472902297974,&#34;g&#34;:0.61176472902297974,&#34;b&#34;:0.61176472902297974,&#34;a&#34;:0.50},&#34;position&#34;:0.029223963618278503},{&#34;color&#34;:{&#34;r&#34;:0.61176472902297974,&#34;g&#34;:0.61176472902297974,&#34;b&#34;:0.61176472902297974,&#34;a&#34;:0.34999999403953552},&#34;position&#34;:0.089225620031356812},{&#34;color&#34;:{&#34;r&#34;:1.0,&#34;g&#34;:1.0,&#34;b&#34;:1.0,&#34;a&#34;:0.50},&#34;position&#34;:0.16744795441627502},{&#34;color&#34;:{&#34;r&#34;:1.0,&#34;g&#34;:1.0,&#34;b&#34;:1.0,&#34;a&#34;:0.50},&#34;position&#34;:0.29941025376319885},{&#34;color&#34;:{&#34;r&#34;:0.61343151330947876,&#34;g&#34;:0.61343151330947876,&#34;b&#34;:0.61343151330947876,&#34;a&#34;:0.34999999403953552},&#34;position&#34;:0.52108556032180786},{&#34;color&#34;:{&#34;r&#34;:0.97664386034011841,&#34;g&#34;:0.97664386034011841,&#34;b&#34;:0.97664386034011841,&#34;a&#34;:1.0},&#34;position&#34;:0.57661086320877075},{&#34;color&#34;:{&#34;r&#34;:1.0,&#34;g&#34;:1.0,&#34;b&#34;:1.0,&#34;a&#34;:0.50},&#34;position&#34;:0.79807692766189575},{&#34;color&#34;:{&#34;r&#34;:0.97647058963775635,&#34;g&#34;:0.97647058963775635,&#34;b&#34;:0.97647058963775635,&#34;a&#34;:0.50},&#34;position&#34;:0.90846514701843262}],&#34;stopsVar&#34;:[{&#34;color&#34;:{&#34;r&#34;:0.61176472902297974,&#34;g&#34;:0.61176472902297974,&#34;b&#34;:0.61176472902297974,&#34;a&#34;:0.50},&#34;position&#34;:0.029223963618278503},{&#34;color&#34;:{&#34;r&#34;:0.61176472902297974,&#34;g&#34;:0.61176472902297974,&#34;b&#34;:0.61176472902297974,&#34;a&#34;:0.34999999403953552},&#34;position&#34;:0.089225620031356812},{&#34;color&#34;:{&#34;r&#34;:1.0,&#34;g&#34;:1.0,&#34;b&#34;:1.0,&#34;a&#34;:0.50},&#34;position&#34;:0.16744795441627502},{&#34;color&#34;:{&#34;r&#34;:1.0,&#34;g&#34;:1.0,&#34;b&#34;:1.0,&#34;a&#34;:0.50},&#34;position&#34;:0.29941025376319885},{&#34;color&#34;:{&#34;r&#34;:0.61343151330947876,&#34;g&#34;:0.61343151330947876,&#34;b&#34;:0.61343151330947876,&#34;a&#34;:0.34999999403953552},&#34;position&#34;:0.52108556032180786},{&#34;color&#34;:{&#34;r&#34;:0.97664386034011841,&#34;g&#34;:0.97664386034011841,&#34;b&#34;:0.97664386034011841,&#34;a&#34;:1.0},&#34;position&#34;:0.57661086320877075},{&#34;color&#34;:{&#34;r&#34;:1.0,&#34;g&#34;:1.0,&#34;b&#34;:1.0,&#34;a&#34;:0.50},&#34;position&#34;:0.79807692766189575},{&#34;color&#34;:{&#34;r&#34;:0.97647058963775635,&#34;g&#34;:0.97647058963775635,&#34;b&#34;:0.97647058963775635,&#34;a&#34;:0.50},&#34;position&#34;:0.90846514701843262}],&#34;transform&#34;:{&#34;m00&#34;:53.977272033691406,&#34;m01&#34;:-10.641407966613770,&#34;m02&#34;:3.3320686817169189,&#34;m10&#34;:12.209300994873047,&#34;m11&#34;:47.129573822021484,&#34;m12&#34;:-3.2159483432769775},&#34;opacity&#34;:1.0,&#34;blendMode&#34;:&#34;NORMAL&#34;,&#34;visible&#34;:true}" mask="url(#path-1-inside-1_325_1575)"/>
<g clip-path="url(#clip1_325_1575)">
<path d="M34.299 16.0057C31.9393 13.6459 28.802 12.3464 25.4649 12.3464C22.1278 12.3464 18.9903 13.6459 16.6307 16.0057C14.271 18.3653 12.9714 21.5027 12.9714 24.8398C12.9714 27.2137 13.6358 29.5103 14.8959 31.5042L12.1085 36.8054C11.9969 37.0178 12.0272 37.2769 12.1848 37.4577C12.2973 37.5868 12.4581 37.6569 12.6229 37.6569C12.6892 37.6569 12.7561 37.6456 12.8207 37.6222L18.8488 35.4385C20.8318 36.6791 23.1127 37.3332 25.4649 37.3332C28.802 37.3332 31.9393 36.0336 34.299 33.674C36.6587 31.3143 37.9583 28.1769 37.9583 24.8398C37.9583 21.5028 36.6587 18.3653 34.299 16.0057ZM25.4649 36.1711C23.2422 36.1711 21.0898 35.5272 19.2407 34.3091C19.1445 34.2458 19.0332 34.2133 18.921 34.2133C18.8543 34.2133 18.7874 34.2247 18.7231 34.248L13.8353 36.0186L16.0833 31.7432C16.1827 31.5543 16.1705 31.3261 16.0514 31.1488C14.7968 29.2807 14.1336 27.0991 14.1336 24.8398C14.1336 18.5918 19.2168 13.5086 25.4649 13.5086C31.7129 13.5086 36.7961 18.5918 36.7961 24.8398C36.7961 31.0878 31.7129 36.1711 25.4649 36.1711Z" fill="white"/>
<path d="M31.0871 26.361C30.5908 25.8647 29.7833 25.8648 29.287 26.361L28.338 27.31L22.9964 21.9685L23.9454 21.0195C24.4417 20.5231 24.4417 19.7157 23.9454 19.2194L21.6366 16.9105C21.1402 16.4143 20.3328 16.4143 19.8366 16.9105L18.1245 18.6225C17.5052 19.2418 17.1641 20.0653 17.1641 20.9412C17.1641 21.8171 17.5052 22.6405 18.1245 23.2598L27.0466 32.1819C27.6859 32.8212 28.5255 33.1408 29.3653 33.1408C30.2049 33.1408 31.0446 32.8212 31.6839 32.1819L33.396 30.4699C33.8923 29.9736 33.8923 29.1662 33.396 28.6698L31.0871 26.361ZM32.5741 29.6482L30.8621 31.3603C30.4623 31.7601 29.9307 31.9803 29.3652 31.9803C28.7998 31.9803 28.2682 31.7601 27.8684 31.3603L18.9462 22.4381C18.5464 22.0383 18.3263 21.5067 18.3263 20.9413C18.3263 20.3758 18.5464 19.8442 18.9463 19.4444L20.6583 17.7324C20.6799 17.7108 20.7082 17.7 20.7365 17.7C20.7649 17.7 20.7932 17.7109 20.8148 17.7324L23.1236 20.0412C23.1668 20.0843 23.1668 20.1546 23.1236 20.1977L21.7638 21.5576C21.6549 21.6665 21.5936 21.8144 21.5936 21.9685C21.5936 22.1225 21.6549 22.2704 21.7638 22.3793L27.9272 28.5427C28.0361 28.6516 28.184 28.7129 28.338 28.7129C28.4921 28.7129 28.64 28.6516 28.7489 28.5427L30.1088 27.1828C30.1519 27.1397 30.2221 27.1396 30.2652 27.1828L32.5741 29.4917C32.6173 29.5349 32.6173 29.6051 32.5741 29.6482Z" fill="white"/>
</g>
</g>
<defs>
<clipPath id="bgblur_0_325_1575_clip_path" transform="translate(0 0)"><path d="M0 25C0 11.1929 11.1929 0 25 0V0C38.8071 0 50 11.1929 50 25V25C50 38.8071 38.8071 50 25 50V50C11.1929 50 0 38.8071 0 25V25Z"/>
</clipPath><clipPath id="paint0_angular_325_1575_clip_path"><path d="M0 25M50 25M50 25M0 25M25 0M50 25M25 50M0 25M25 50V49C11.7452 49 1 38.2548 1 25H0H-1C-1 39.3594 10.6406 51 25 51V50ZM50 25H49C49 38.2548 38.2548 49 25 49V50V51C39.3594 51 51 39.3594 51 25H50ZM25 0V1C38.2548 1 49 11.7452 49 25H50H51C51 10.6406 39.3594 -1 25 -1V0ZM25 0V-1C10.6406 -1 -1 10.6406 -1 25H0H1C1 11.7452 11.7452 1 25 1V0Z" mask="url(#path-1-inside-1_325_1575)"/></clipPath><clipPath id="clip1_325_1575">
<rect width="25.9165" height="25.9165" fill="white" transform="translate(12.0417 12.0417)"/>
</clipPath>
</defs>
</svg>
