<svg width="26" height="26" viewBox="0 0 26 26" fill="none" xmlns="http://www.w3.org/2000/svg">
<path d="M21.6667 14.0834C21.6667 19.5 17.875 22.2084 13.3683 23.7792C13.1323 23.8592 12.876 23.8553 12.6425 23.7684C8.12499 22.2084 4.33333 19.5 4.33333 14.0834V6.50002C4.33333 6.2127 4.44747 5.93715 4.65063 5.73399C4.85379 5.53082 5.12934 5.41669 5.41666 5.41669C7.58333 5.41669 10.2917 4.11669 12.1767 2.47002C12.4062 2.27393 12.6981 2.1662 13 2.1662C13.3019 2.1662 13.5938 2.27393 13.8233 2.47002C15.7192 4.12752 18.4167 5.41669 20.5833 5.41669C20.8706 5.41669 21.1462 5.53082 21.3494 5.73399C21.5525 5.93715 21.6667 6.2127 21.6667 6.50002V14.0834Z" stroke="#DD3A30" stroke-width="2" stroke-linecap="round" stroke-linejoin="round"/>
</svg>
