<svg width="20" height="20" viewBox="0 0 20 20" fill="none" xmlns="http://www.w3.org/2000/svg">
<g clip-path="url(#clip0_393_1714)">
<path d="M8.28038 12.9165C8.20598 12.6281 8.05566 12.3649 7.84506 12.1543C7.63446 11.9437 7.37127 11.7934 7.08288 11.719L1.97038 10.4006C1.88315 10.3759 1.80638 10.3233 1.75172 10.251C1.69706 10.1787 1.66748 10.0905 1.66748 9.9998C1.66748 9.90913 1.69706 9.82094 1.75172 9.7486C1.80638 9.67626 1.88315 9.62372 1.97038 9.59897L7.08288 8.2798C7.37117 8.20547 7.63429 8.05528 7.84488 7.84483C8.05547 7.63439 8.20585 7.37137 8.28038 7.08313L9.59871 1.97063C9.62322 1.88307 9.6757 1.80592 9.74814 1.75096C9.82059 1.69601 9.90903 1.66626 9.99996 1.66626C10.0909 1.66626 10.1793 1.69601 10.2518 1.75096C10.3242 1.80592 10.3767 1.88307 10.4012 1.97063L11.7187 7.08313C11.7931 7.37153 11.9434 7.63471 12.154 7.84532C12.3646 8.05592 12.6278 8.20624 12.9162 8.28063L18.0287 9.59813C18.1166 9.62238 18.1942 9.67481 18.2494 9.74736C18.3047 9.81992 18.3346 9.9086 18.3346 9.9998C18.3346 10.091 18.3047 10.1797 18.2494 10.2522C18.1942 10.3248 18.1166 10.3772 18.0287 10.4015L12.9162 11.719C12.6278 11.7934 12.3646 11.9437 12.154 12.1543C11.9434 12.3649 11.7931 12.6281 11.7187 12.9165L10.4004 18.029C10.3759 18.1165 10.3234 18.1937 10.2509 18.2486C10.1785 18.3036 10.0901 18.3333 9.99913 18.3333C9.90819 18.3333 9.81976 18.3036 9.74731 18.2486C9.67486 18.1937 9.62238 18.1165 9.59788 18.029L8.28038 12.9165Z" stroke="#DE392E" stroke-width="1.66667" stroke-linecap="round" stroke-linejoin="round"/>
<path d="M16.6663 2.5V5.83333" stroke="#DE392E" stroke-width="1.66667" stroke-linecap="round" stroke-linejoin="round"/>
<path d="M18.3333 4.16626H15" stroke="#DE392E" stroke-width="1.66667" stroke-linecap="round" stroke-linejoin="round"/>
<path d="M3.33374 14.1663V15.8329" stroke="#DE392E" stroke-width="1.66667" stroke-linecap="round" stroke-linejoin="round"/>
<path d="M4.16667 15H2.5" stroke="#DE392E" stroke-width="1.66667" stroke-linecap="round" stroke-linejoin="round"/>
</g>
<defs>
<clipPath id="clip0_393_1714">
<rect width="20" height="20" fill="white"/>
</clipPath>
</defs>
</svg>
