<svg width="26" height="26" viewBox="0 0 26 26" fill="none" xmlns="http://www.w3.org/2000/svg">
<path d="M6.5 19.5H15.1667" stroke="#DD3A2F" stroke-width="2" stroke-linecap="round" stroke-linejoin="round"/>
<path d="M3.25 23.8329H22.75" stroke="#DD3A2F" stroke-width="2" stroke-linecap="round" stroke-linejoin="round"/>
<path d="M15.1669 23.8338C17.1781 23.8338 19.107 23.0348 20.5291 21.6127C21.9513 20.1905 22.7502 18.2617 22.7502 16.2504C22.7502 14.2392 21.9513 12.3104 20.5291 10.8882C19.107 9.46607 17.1781 8.66711 15.1669 8.66711H14.0836" stroke="#DD3A2F" stroke-width="2" stroke-linecap="round" stroke-linejoin="round"/>
<path d="M9.75 15.1671H11.9167" stroke="#DD3A2F" stroke-width="2" stroke-linecap="round" stroke-linejoin="round"/>
<path d="M9.75022 13C9.17559 13 8.62449 12.7717 8.21816 12.3654C7.81183 11.9591 7.58356 11.408 7.58356 10.8333V6.5H14.0836V10.8333C14.0836 11.408 13.8553 11.9591 13.449 12.3654C13.0426 12.7717 12.4915 13 11.9169 13H9.75022Z" stroke="#DD3A2F" stroke-width="2" stroke-linecap="round" stroke-linejoin="round"/>
<path d="M12.9998 6.50045V3.25045C12.9998 2.96313 12.8856 2.68758 12.6825 2.48442C12.4793 2.28125 12.2038 2.16711 11.9164 2.16711H9.74978C9.46246 2.16711 9.18691 2.28125 8.98374 2.48442C8.78058 2.68758 8.66644 2.96313 8.66644 3.25045V6.50045" stroke="#DD3A2F" stroke-width="2" stroke-linecap="round" stroke-linejoin="round"/>
</svg>
