<svg width="26" height="26" viewBox="0 0 26 26" fill="none" xmlns="http://www.w3.org/2000/svg">
<path d="M16.7668 13.9642L18.408 23.2007C18.4264 23.3094 18.4111 23.4212 18.3643 23.5211C18.3174 23.6209 18.2412 23.7041 18.1458 23.7595C18.0504 23.8148 17.9403 23.8397 17.8304 23.8309C17.7204 23.822 17.6158 23.7798 17.5305 23.7098L13.6522 20.7989C13.4649 20.659 13.2375 20.5835 13.0038 20.5835C12.7701 20.5835 12.5426 20.659 12.3554 20.7989L8.47059 23.7088C8.38535 23.7786 8.28086 23.8207 8.17104 23.8296C8.06123 23.8385 7.95132 23.8137 7.85597 23.7584C7.76063 23.7032 7.68439 23.6203 7.63742 23.5206C7.59045 23.421 7.57498 23.3093 7.59309 23.2007L9.23326 13.9642" stroke="#DE392E" stroke-width="2" stroke-linecap="round" stroke-linejoin="round"/>
<path d="M13 15.1667C16.5899 15.1667 19.5 12.2565 19.5 8.66669C19.5 5.07684 16.5899 2.16669 13 2.16669C9.41015 2.16669 6.5 5.07684 6.5 8.66669C6.5 12.2565 9.41015 15.1667 13 15.1667Z" stroke="#DE392E" stroke-width="2" stroke-linecap="round" stroke-linejoin="round"/>
</svg>
