<svg width="564" height="500" viewBox="0 0 564 500" fill="none" xmlns="http://www.w3.org/2000/svg">
<path d="M123.972 477.033C128.003 484.016 133.802 489.815 140.785 493.846C147.767 497.878 155.688 500 163.751 500L399.387 500C407.45 500 415.371 497.878 422.354 493.846C429.337 489.815 435.135 484.016 439.167 477.033L556.984 272.967C561.016 265.984 563.138 258.063 563.138 250C563.138 241.937 561.016 234.016 556.984 227.033L439.167 22.9668C435.135 15.984 429.337 10.1854 422.354 6.15393C415.371 2.12242 407.45 -9.59224e-06 399.387 0H163.751C155.688 3.90083e-06 147.767 2.12244 140.785 6.15396C133.802 10.1855 128.003 15.9841 123.972 22.9669L6.15399 227.033C2.12247 234.016 0 241.937 0 250C0 258.063 2.12247 265.984 6.15399 272.967L123.972 477.033Z" fill="black"/>
</svg>
