<svg width="21" height="21" viewBox="0 0 21 21" fill="none" xmlns="http://www.w3.org/2000/svg">
<path d="M17.3025 20.3667C18.7083 19.8235 19.8197 18.7122 20.3628 17.3064C20.62 16.6405 20.7999 15.8807 20.8488 14.7693C20.8604 14.509 20.8694 14.2904 20.8777 14.0712V6.64577C20.8719 6.49086 20.8655 6.32952 20.8571 6.14826C20.8083 5.03688 20.6283 4.27325 20.3712 3.61118C20.1057 2.90861 19.6969 2.27932 19.1621 1.75674C18.6389 1.22515 18.0057 0.812483 17.3109 0.551512C16.645 0.294397 15.8852 0.114417 14.7738 0.0655655C13.6541 0.0122142 13.2986 0 10.4594 0C7.62024 0 7.26413 0.0122137 6.1489 0.0610655C5.03752 0.109917 4.27389 0.289897 3.61182 0.547012C2.90925 0.812483 2.27996 1.2213 1.75674 1.75674C1.22579 2.27997 0.813124 2.91311 0.55151 3.60732C0.294395 4.27325 0.114415 5.03302 0.0655635 6.1444C0.0122122 7.26413 0 7.61959 0 10.4594C0 13.2993 0.0122118 13.6547 0.0610636 14.77C0.109915 15.8813 0.289896 16.6456 0.547654 17.307C0.813125 18.0096 1.22579 18.6389 1.75674 19.1621C2.27996 19.6931 2.91311 20.1064 3.60796 20.3673C4.27389 20.6245 5.03366 20.8044 6.14504 20.8533C7.26028 20.9028 7.61574 20.915 10.4556 20.915C13.2954 20.915 13.6502 20.9028 14.7661 20.8533C15.8775 20.8044 16.6405 20.6238 17.3025 20.3667ZM10.4633 19.0348C7.6723 19.0348 7.33741 19.0226 6.23825 18.9738C5.21686 18.9288 4.66535 18.7572 4.29767 18.6145C3.84451 18.4467 3.43184 18.1812 3.0963 17.8341C2.7492 17.4947 2.48309 17.0866 2.31596 16.6327C2.17326 16.2651 2.00164 15.7091 1.95664 14.6922C1.90779 13.5892 1.89558 13.2581 1.89558 10.4671C1.89558 7.67616 1.90779 7.34127 1.95664 6.24275C2.00164 5.22136 2.17326 4.66985 2.31596 4.30217C2.48373 3.84837 2.7492 3.4357 3.1008 3.1008C3.43955 2.7537 3.84836 2.48823 4.30153 2.32046C4.6692 2.17776 5.22521 2.00614 6.2421 1.96114C7.34512 1.91229 7.67616 1.90008 10.4665 1.90008C13.2568 1.90008 13.5924 1.91229 14.6915 1.96114C15.7129 2.00614 16.2644 2.17776 16.6321 2.32046C17.0853 2.48823 17.4979 2.7537 17.8328 3.1008C18.1799 3.4402 18.4461 3.84837 18.6132 4.30217C18.7559 4.66985 18.9275 5.22521 18.9725 6.24275C19.0213 7.34577 19.0336 7.6768 19.0336 10.4671C19.0336 13.2575 19.0213 13.5847 18.9725 14.6877C18.9275 15.7091 18.7559 16.2606 18.6132 16.6282C18.2616 17.5397 17.5384 18.2629 16.6276 18.6138C16.2599 18.7565 15.7046 18.9281 14.687 18.9731C13.584 19.022 13.2536 19.0348 10.4633 19.0348Z" fill="#F6F4E6"/>
<path d="M10.4596 5.08577C7.49318 5.08577 5.08659 7.49237 5.08659 10.4588C5.08659 13.4253 7.49318 15.8319 10.4596 15.8319C13.4261 15.8319 15.8321 13.4253 15.8321 10.4588C15.8321 7.49237 13.4255 5.08577 10.4596 5.08577ZM10.4596 13.9434C8.53514 13.9434 6.97446 12.3827 6.97446 10.4582C6.97446 8.53368 8.53514 6.973 10.4596 6.973C12.3841 6.973 13.9448 8.53368 13.9448 10.4582C13.9448 12.3827 12.3841 13.9434 10.4596 13.9434Z" fill="#F6F4E6"/>
<path d="M17.2975 4.87335C17.2975 4.18043 16.7357 3.61927 16.0428 3.61927C15.3499 3.61927 14.7887 4.18107 14.7887 4.87335C14.7887 5.56563 15.3505 6.12743 16.0428 6.12743C16.7351 6.12743 17.2975 5.56627 17.2975 4.87335Z" fill="#F6F4E6"/>
</svg>
