<svg width="1920" height="1441" viewBox="0 0 1920 1441" fill="none" xmlns="http://www.w3.org/2000/svg">
<path d="M483.444 291.336C319.848 156.126 97.7756 87.8329 7.10577 67.9643C3.3915 67.1504 0 70.0153 0 73.8177V1435C0 1438.31 2.68629 1441 6 1441H1914C1917.31 1441 1920 1438.31 1920 1435V258.641C1920 257.152 1919.39 255.655 1918.39 254.554C1526.02 -176.509 1138.12 37.2974 955.197 190.546C883.918 250.262 796.216 342.721 705.406 362.729C674.549 369.528 647.149 371.013 624.098 369.73C570.499 366.745 524.823 325.536 483.444 291.336Z" fill="#F5F8FD"/>
</svg>
