<svg width="1920" height="1853" viewBox="0 0 1920 1853" fill="none" xmlns="http://www.w3.org/2000/svg">
<path d="M811.249 135.593C976.385 60.573 1031.92 -27.8521 1167.76 8.38563C1275.51 37.154 1417.55 9.62529 1495.55 2.90614C1567.23 -3.27593 1576.35 3.21942 1686.89 81.8886L1693.06 86.2753C1822.74 178.517 1855.14 195.25 1920 226.105V1673.49C1855.14 1697.87 1822.74 1711.09 1693.06 1783.97L1686.89 1787.44C1576.35 1849.59 1567.23 1854.73 1495.55 1849.84C1417.55 1844.53 1275.51 1822.78 1167.76 1845.51C1031.92 1874.14 976.385 1804.28 811.249 1745.01C666.021 1692.85 528.692 1628.16 343.307 1612.11C221.522 1601.59 154.013 1542.74 0 1456.84V500.319C154.013 391.606 221.522 317.108 343.307 303.8C528.693 283.479 666.021 201.61 811.249 135.593Z" fill="#F5F8FD"/>
</svg>
