<svg width="1920" height="1162" viewBox="0 0 1920 1162" fill="none" xmlns="http://www.w3.org/2000/svg">
<path d="M1920 989.183C1897.66 994.477 1877.51 1000.19 1859.2 1005.87C1802.55 1023.42 1747.89 1043.79 1683.85 1057.93C1640.23 1067.68 1604.19 1073.1 1563.22 1072.46C1553.47 1072.36 1543.74 1071.83 1534.06 1070.88C1471.61 1064.61 1448.84 1038.65 1335.14 1005.55C1327.42 1003.33 1319.33 1001.11 1310.86 998.882C1218.36 975.149 1104.06 965.096 1016.31 972.191C929.99 979.108 882.215 996.657 846.364 1030.02C837.031 1038.74 831.798 1048.24 825.54 1057.85C812.619 1077.71 805.092 1094.17 772.154 1117.34C749.899 1132.98 717.367 1149.82 681.543 1157.96C627.591 1170.21 598.538 1153.35 549.361 1121.28C498.917 1088.3 425.974 1039.36 316.075 979.975C296.572 969.477 277.257 958.244 256.729 947.768C194.064 915.828 113.298 867.696 0 834.333V580.69H0.969727V327.303C114.153 293.974 194.837 245.89 257.438 213.982C277.946 203.517 297.242 192.296 316.726 181.808C426.514 122.481 499.383 73.5972 549.776 40.6452C598.903 8.60438 627.927 -8.23753 681.824 4.00555C717.612 12.138 750.111 28.9583 772.344 44.5788C805.248 67.7317 812.767 84.1741 825.675 104.016C831.927 113.615 837.155 123.103 846.479 131.813C882.293 165.143 930.02 182.674 1016.25 189.585C1103.92 196.673 1218.1 186.63 1310.5 162.922C1318.97 160.7 1327.05 158.478 1334.76 156.256C1448.35 123.193 1471.09 97.2618 1533.48 90.9958C1543.15 90.0433 1552.87 89.5162 1562.61 89.4177C1603.54 88.7733 1639.55 94.1952 1683.12 103.927C1747.1 118.059 1801.7 138.413 1858.29 155.944C1876.59 161.61 1896.72 167.321 1919.03 172.609V580.69H1920V989.183Z" fill="#F5F8FD"/>
</svg>
