<svg width="1920" height="1149" viewBox="0 0 1920 1149" fill="none" xmlns="http://www.w3.org/2000/svg">
<path d="M514.063 273.292C356.633 148.17 94.487 55.7422 8.79959 36.9863C5.06448 36.1688 8.79949 70.6989 8.29294 74.489C-8.34929 199.011 4.47961 1071.27 8.79959 1147.55C8.98439 1150.81 74.8015 1147.55 78.0693 1147.55H1917.43C1919.33 1147.55 1921.97 286.349 1917.71 249.678C1917.57 248.507 1916.98 247.969 1916.18 247.097C1550.12 -155.514 1188.02 21.4326 1003.27 167.766C919.992 233.725 819.283 342.356 713.969 356.286C700.467 358.071 687.82 358.818 676.125 358.809C614.798 358.762 562.075 311.451 514.063 273.292Z" fill="#F5F8FD"/>
</svg>
