<svg width="182" height="47" viewBox="0 0 182 47" fill="none" xmlns="http://www.w3.org/2000/svg">
<path d="M4.55505 9.11009C7.07073 9.11009 9.11009 7.07073 9.11009 4.55505C9.11009 2.03936 7.07073 0 4.55505 0C2.03936 0 0 2.03936 0 4.55505C0 7.07073 2.03936 9.11009 4.55505 9.11009Z" fill="#F1662B"/>
<path d="M145.952 40.1089C136.724 31.4843 137.36 17.3118 147.122 9.20005L129.265 9.13186V45.9541L124.587 45.9814V9.1755L121.005 9.08549L121 4.56863L159.882 4.50589C171.13 4.4868 181.214 12.2822 181.839 23.8662L182.002 45.9568L177.305 45.9786L177.18 38.3551C169.073 47.6643 154.931 48.5016 145.955 40.1116L145.952 40.1089ZM177.043 25.2164C177.043 16.1826 169.72 8.86183 160.689 8.86183C151.658 8.86183 144.334 16.1854 144.334 25.2164C144.334 34.2473 151.658 41.5709 160.689 41.5709C169.72 41.5709 177.043 34.2473 177.043 25.2164Z" fill="#748D6E"/>
<path d="M71.3699 41.5272L71.4027 46.0141C63.7654 46.0577 56.8265 42.1791 52.9043 35.6848C47.4137 26.5965 49.8712 15.0016 58.3894 8.67907C66.2148 2.87207 77.0896 2.96208 84.8114 8.96001C90.5502 13.4169 93.4442 20.2904 92.7814 27.412H54.789C56.1255 35.6357 63.0045 41.3554 71.3672 41.5272H71.3699ZM88.0354 22.9388C86.4616 13.5178 77.7333 7.76534 68.8196 9.14276C61.657 10.2502 55.9864 15.6535 54.8026 22.9552L88.0381 22.9388H88.0354Z" fill="#748D6E"/>
<path d="M42.9288 24.2586C42.8797 16.4196 36.5136 10.4544 29.0837 9.18058C19.5263 7.54404 10.1189 14.3766 9.59518 24.2204L9.43698 45.9564L4.84375 45.9892L4.90103 24.4086C4.91739 18.1979 8.14957 12.5928 13.0128 8.86691C20.7782 2.91807 31.6776 2.87989 39.4621 8.81781C44.1862 12.4209 47.5603 17.8406 47.5848 23.8904L47.6803 45.9864H43.0652L42.9288 24.2559V24.2586Z" fill="#748D6E"/>
<path d="M118.663 46.0224C111.113 46.0579 104.393 42.392 100.026 35.7231L99.8322 45.9433L95.1953 45.9651V4.5524L99.824 4.54694L99.9713 14.7617C104.27 8.15552 111.01 4.38874 118.669 4.40238L118.655 8.89469C112.985 9.02289 107.712 11.6441 104.551 16.4119C100.863 21.9761 100.986 29.0187 104.859 34.4548C108.064 38.9525 113.173 41.4155 118.655 41.5383L118.663 46.017V46.0224Z" fill="#748D6E"/>
</svg>
