<svg width="214" height="54" viewBox="0 0 214 54" fill="none" xmlns="http://www.w3.org/2000/svg">
<g clip-path="url(#clip0_849_2121)">
<path d="M5.35593 10.6893C8.31393 10.6893 10.7119 8.29639 10.7119 5.34463C10.7119 2.39287 8.31393 0 5.35593 0C2.39793 0 0 2.39287 0 5.34463C0 8.29639 2.39793 10.6893 5.35593 10.6893Z" fill="#F1662B"/>
<path d="M171.612 47.0617C160.763 36.9421 161.51 20.3129 172.988 10.795L151.991 10.715V53.9201L146.491 53.9521V10.7662L142.28 10.6606L142.273 5.36076L187.991 5.28715C201.218 5.26475 213.074 14.4114 213.809 28.0034L214.001 53.9233L208.479 53.9489L208.331 45.0039C198.799 55.9268 182.17 56.9093 171.616 47.0649L171.612 47.0617ZM208.171 29.5876C208.171 18.988 199.559 10.3982 188.941 10.3982C178.322 10.3982 169.711 18.9912 169.711 29.5876C169.711 40.1841 178.322 48.7771 188.941 48.7771C199.559 48.7771 208.171 40.1841 208.171 29.5876Z" fill="#F6F4E6"/>
<path d="M83.9205 48.7252L83.9589 53.9898C74.9789 54.041 66.82 49.4901 62.2081 41.87C55.7521 31.2063 58.6417 17.6015 68.6576 10.183C77.8589 3.36941 90.6458 3.47503 99.7253 10.5127C106.473 15.7421 109.876 23.807 109.097 32.1632H64.4242C65.9957 41.8124 74.0841 48.5236 83.9172 48.7252H83.9205ZM103.516 26.9146C101.666 15.8605 91.4027 9.1109 80.9218 10.7271C72.4998 12.0264 65.8321 18.3664 64.4402 26.9338L103.519 26.9146H103.516Z" fill="#F6F4E6"/>
<path d="M50.4767 28.4634C50.419 19.2655 42.9335 12.2662 34.1972 10.7717C22.9594 8.85144 11.8979 16.8684 11.2822 28.4186L11.0961 53.9224L5.69531 53.9608L5.76266 28.6394C5.78191 21.3521 9.58237 14.7753 15.3007 10.4036C24.4315 3.4236 37.2472 3.37879 46.4004 10.346C51.9552 14.5737 55.9224 20.9329 55.9513 28.0313L56.0635 53.9576H50.637L50.4767 28.4602V28.4634Z" fill="#F6F4E6"/>
<path d="M139.524 54.0006C130.647 54.0423 122.744 49.7409 117.61 41.916L117.382 53.9078L111.93 53.9334V5.34208L117.372 5.33568L117.545 17.3211C122.6 9.56978 130.525 5.15006 139.53 5.16606L139.514 10.4371C132.847 10.5875 126.647 13.6631 122.93 19.2573C118.594 25.7861 118.738 34.0495 123.293 40.4278C127.061 45.7053 133.068 48.5952 139.514 48.7392L139.524 53.9942V54.0006Z" fill="#F6F4E6"/>
</g>
<defs>
<clipPath id="clip0_849_2121">
<rect width="214" height="54" fill="white"/>
</clipPath>
</defs>
</svg>
