<svg width="66" height="66" viewBox="0 0 66 66" fill="none" xmlns="http://www.w3.org/2000/svg">
<path d="M54.9694 11.2486H49.1069V8.86079C49.1069 8.59085 48.9996 8.33197 48.8088 8.14109C48.6179 7.95022 48.359 7.84299 48.0891 7.84299H44.1349C44.0359 6.26896 43.3409 4.79179 42.1913 3.71214C41.0416 2.63248 39.5237 2.03149 37.9466 2.03149C36.3695 2.03149 34.8516 2.63248 33.702 3.71214C32.5523 4.79179 31.8573 6.26896 31.7583 7.84299H27.8021C27.5322 7.84299 27.2733 7.95022 27.0824 8.14109C26.8916 8.33197 26.7843 8.59085 26.7843 8.86079V11.2486H20.9238C19.7251 11.2499 18.576 11.7267 17.7284 12.5743C16.8808 13.4218 16.404 14.571 16.4027 15.7697V36.5808C14.8817 36.9837 13.5087 37.8155 12.4473 38.977C11.3858 40.1385 10.6808 41.5808 10.4162 43.1318C10.1515 44.6828 10.3385 46.2772 10.9547 47.725C11.5709 49.1727 12.5905 50.4128 13.8918 51.2972C11.5978 52.0505 9.58406 53.4777 8.1134 55.3927C6.64274 57.3076 5.78341 59.6214 5.64753 62.032C5.63962 62.1705 5.6601 62.3091 5.7077 62.4394C5.7553 62.5696 5.82901 62.6888 5.92432 62.7896C6.01964 62.8903 6.13453 62.9705 6.26196 63.0252C6.38938 63.08 6.52665 63.1081 6.66534 63.1079H30.367C30.5057 63.1081 30.643 63.08 30.7704 63.0252C30.8978 62.9705 31.0127 62.8903 31.108 62.7896C31.2033 62.6888 31.277 62.5696 31.3246 62.4394C31.3722 62.3091 31.3927 62.1705 31.3848 62.032C31.3458 61.4157 31.2597 60.8032 31.1273 60.2H54.9694C56.1678 60.1987 57.3167 59.722 58.1641 58.8746C59.0115 58.0272 59.4882 56.8783 59.4895 55.6799V15.7697C59.4882 14.5712 59.0115 13.4222 58.1642 12.5746C57.3168 11.7271 56.1679 11.2502 54.9694 11.2486ZM37.9456 4.07099C38.9826 4.07235 39.9821 4.45914 40.7499 5.15622C41.5178 5.8533 41.999 6.8109 42.1003 7.84299H33.7909C33.8919 6.81082 34.3732 5.85308 35.141 5.15596C35.9089 4.45883 36.9085 4.07212 37.9456 4.07099ZM32.7548 9.8786H47.0713V14.645H28.8199V12.2755V12.2664V12.2562V9.8786H32.7548ZM12.3386 44.5095C12.3383 43.2906 12.6985 42.0989 13.3738 41.0843C14.0491 40.0696 15.0094 39.2774 16.1339 38.8072C17.2584 38.337 18.4968 38.2098 19.6934 38.4417C20.89 38.6736 21.9912 39.2542 22.8586 40.1105C23.726 40.9668 24.3208 42.0604 24.5682 43.2539C24.8156 44.4474 24.7045 45.6873 24.2488 46.8178C23.7932 47.9483 23.0134 48.9188 22.0076 49.6072C21.0018 50.2955 19.8148 50.6711 18.5961 50.6866H18.4383C16.814 50.6646 15.2635 50.0044 14.1221 48.8485C12.9807 47.6926 12.34 46.1339 12.3386 44.5095ZM7.80223 61.0682C8.19128 58.736 9.39496 56.6174 11.1992 55.0891C13.0034 53.5609 15.2912 52.7222 17.6556 52.7222H18.4383H18.5167C18.5167 52.7222 18.5696 52.7222 18.5961 52.7222H19.3788C21.7429 52.7234 24.03 53.5626 25.834 55.0906C27.6379 56.6186 28.8419 58.7365 29.2322 61.0682H7.80223ZM57.4539 55.6799C57.4534 56.3387 57.1914 56.9703 56.7256 57.4361C56.2598 57.9019 55.6282 58.1638 54.9694 58.1644H30.4983C29.839 56.5566 28.8397 55.1104 27.569 53.9251C26.2983 52.7397 24.7862 51.8433 23.1365 51.2972C24.5896 50.3102 25.6878 48.8831 26.2698 47.2257C26.8518 45.5682 26.8869 43.7679 26.3699 42.089C25.8529 40.4102 24.8111 38.9414 23.3976 37.8985C21.9841 36.8555 20.2733 36.2934 18.5167 36.2948C18.4902 36.2948 18.4648 36.2948 18.4383 36.2948V15.7697C18.4388 15.1106 18.7009 14.4788 19.1669 14.0128C19.6329 13.5468 20.2648 13.2847 20.9238 13.2842H26.7843V15.6628C26.7843 15.9327 26.8916 16.1916 27.0824 16.3825C27.2733 16.5734 27.5322 16.6806 27.8021 16.6806H48.0891C48.359 16.6806 48.6179 16.5734 48.8088 16.3825C48.9996 16.1916 49.1069 15.9327 49.1069 15.6628V13.2842H54.9694C55.6283 13.285 56.2599 13.5471 56.7257 14.0131C57.1915 14.4791 57.4534 15.1108 57.4539 15.7697V55.6799Z" fill="#131313"/>
<path d="M53.1183 36.8993H46.4639C46.1939 36.8993 45.935 37.0065 45.7442 37.1974C45.5533 37.3883 45.4461 37.6472 45.4461 37.9171V40.1257H39.8094C39.5395 40.1257 39.2806 40.233 39.0897 40.4238C38.8989 40.6147 38.7916 40.8736 38.7916 41.1435V44.6153H33.155C32.8851 44.6153 32.6262 44.7225 32.4353 44.9134C32.2444 45.1043 32.1372 45.3632 32.1372 45.6331V53.1649C32.1372 53.4348 32.2444 53.6937 32.4353 53.8846C32.6262 54.0754 32.8851 54.1827 33.155 54.1827H39.7962H39.8105H53.1183C53.3882 54.1827 53.6471 54.0754 53.838 53.8846C54.0289 53.6937 54.1361 53.4348 54.1361 53.1649V37.9171C54.1361 37.6472 54.0289 37.3883 53.838 37.1974C53.6471 37.0065 53.3882 36.8993 53.1183 36.8993ZM45.4461 42.1614V52.146H40.8313V45.6321C40.8313 45.6249 40.8313 45.6188 40.8313 45.6127V42.1614H45.4461ZM34.1728 46.6509H38.7916V52.1471H34.1728V46.6509ZM52.1005 52.1471H47.4817V38.9349H52.1005V52.1471Z" fill="#DE392E"/>
<path d="M39.9078 33.5532C40.0669 33.4652 40.1995 33.3362 40.2918 33.1795C40.3842 33.0229 40.4329 32.8444 40.4329 32.6626V22.0347C40.4329 21.7647 40.3257 21.5058 40.1348 21.315C39.944 21.1241 39.6851 21.0168 39.4151 21.0168H24.0462C23.7763 21.0168 23.5174 21.1241 23.3266 21.315C23.1357 21.5058 23.0284 21.7647 23.0284 22.0347V32.6626C23.0285 32.8444 23.0772 33.0229 23.1695 33.1795C23.2619 33.3362 23.3945 33.4652 23.5536 33.5532L31.236 37.8046C31.387 37.8881 31.5566 37.932 31.7292 37.932C31.9017 37.932 32.0714 37.8881 32.2223 37.8046L39.9078 33.5532ZM25.0661 32.0611V23.0525H38.3994V32.0611L31.7337 35.7496L25.0661 32.0611Z" fill="#DE392E"/>
<path d="M34.0293 25.5333L30.7255 28.8371L29.4319 27.5445C29.3373 27.4498 29.225 27.3747 29.1014 27.3234C28.9778 27.2721 28.8453 27.2456 28.7115 27.2455C28.4412 27.2453 28.1819 27.3525 27.9906 27.5435C27.7994 27.7345 27.6918 27.9936 27.6917 28.2639C27.6915 28.5342 27.7986 28.7934 27.9896 28.9847L30.0018 30.9959C30.0964 31.0905 30.2086 31.1656 30.3322 31.2168C30.4557 31.268 30.5882 31.2944 30.7219 31.2944C30.8557 31.2944 30.9881 31.268 31.1117 31.2168C31.2352 31.1656 31.3475 31.0905 31.442 30.9959L35.4685 26.9715C35.6539 26.7795 35.7565 26.5224 35.7541 26.2555C35.7518 25.9887 35.6448 25.7334 35.4561 25.5447C35.2674 25.356 35.0121 25.2489 34.7452 25.2466C34.4784 25.2443 34.2213 25.3479 34.0293 25.5333Z" fill="#DE392E"/>
<path d="M54.3971 16.7384C54.1271 16.7384 53.8683 16.8456 53.6774 17.0365C53.4865 17.2274 53.3793 17.4863 53.3793 17.7562V19.8183C53.3793 20.0882 53.4865 20.3471 53.6774 20.538C53.8683 20.7289 54.1271 20.8361 54.3971 20.8361C54.667 20.8361 54.9259 20.7289 55.1168 20.538C55.3077 20.3471 55.4149 20.0882 55.4149 19.8183V17.7562C55.4149 17.4863 55.3077 17.2274 55.1168 17.0365C54.9259 16.8456 54.667 16.7384 54.3971 16.7384Z" fill="#131313"/>
<path d="M54.3971 22.109C54.1271 22.109 53.8683 22.2162 53.6774 22.4071C53.4865 22.598 53.3793 22.8569 53.3793 23.1268V31.1186C53.3793 31.3886 53.4865 31.6475 53.6774 31.8383C53.8683 32.0292 54.1271 32.1364 54.3971 32.1364C54.667 32.1364 54.9259 32.0292 55.1168 31.8383C55.3077 31.6475 55.4149 31.3886 55.4149 31.1186V23.1268C55.4149 22.8569 55.3077 22.598 55.1168 22.4071C54.9259 22.2162 54.667 22.109 54.3971 22.109Z" fill="#131313"/>
</svg>
