<svg width="65" height="65" viewBox="0 0 65 65" fill="none" xmlns="http://www.w3.org/2000/svg">
<path d="M46.9066 19.9815L44.7864 16.3092C44.5384 15.8813 44.1562 15.547 43.6991 15.358C43.2421 15.169 42.7354 15.1359 42.2576 15.2637L40.0983 15.8457C39.2242 15.1764 38.2665 14.6242 37.2494 14.203L36.6738 12.0424C36.5467 11.564 36.2651 11.141 35.8727 10.8391C35.4804 10.5373 34.9994 10.3735 34.5044 10.3732H30.264C29.7694 10.3733 29.2887 10.5367 28.8966 10.8381C28.5045 11.1396 28.223 11.562 28.0957 12.0399L27.5189 14.203C26.5018 14.6242 25.5441 15.1764 24.6701 15.8457L22.5106 15.2637C22.0328 15.1359 21.5262 15.169 21.0691 15.358C20.612 15.547 20.2299 15.8813 19.9819 16.3092L17.8617 19.9815C17.6149 20.4101 17.5163 20.9082 17.5812 21.3985C17.6462 21.8889 17.8711 22.3441 18.221 22.6937L19.8022 24.2712C19.6521 25.3636 19.6521 26.4715 19.8022 27.564L18.221 29.1415C17.8711 29.491 17.6462 29.9463 17.5812 30.4366C17.5163 30.9269 17.6149 31.425 17.8617 31.8536L19.9819 35.5259C20.23 35.9538 20.6121 36.288 21.0692 36.477C21.5262 36.666 22.0328 36.6992 22.5106 36.5715L24.6701 35.9896C25.5441 36.6588 26.5019 37.211 27.5189 37.6321L28.0945 39.7928C28.2217 40.2712 28.5033 40.6942 28.8956 40.996C29.2879 41.2979 29.769 41.4617 30.264 41.462H34.5044C34.9989 41.4619 35.4796 41.2984 35.8716 40.9971C36.2637 40.6957 36.5453 40.2732 36.6725 39.7954L37.2494 37.6321C38.2665 37.211 39.2242 36.6588 40.0983 35.9896L42.2576 36.5715C42.7354 36.6994 43.2421 36.6663 43.6992 36.4773C44.1564 36.2883 44.5385 35.954 44.7864 35.5259L46.9066 31.8536C47.1534 31.425 47.252 30.9269 47.1871 30.4366C47.1221 29.9463 46.8973 29.4911 46.5474 29.1415L44.966 27.564C45.1161 26.4715 45.1161 25.3636 44.966 24.2712L46.5474 22.6937C46.8973 22.3441 47.1221 21.8889 47.1871 21.3985C47.252 20.9082 47.1534 20.4102 46.9066 19.9815ZM42.3803 24.4882C42.5237 25.4361 42.5237 26.4003 42.3803 27.3483C42.3284 27.6961 42.3585 28.0512 42.4681 28.3854C42.5777 28.7195 42.7638 29.0235 43.0116 29.273L44.5296 30.7879L42.675 34.0009L40.5954 33.4406C40.2578 33.3495 39.9034 33.3394 39.5612 33.411C39.2189 33.4827 38.8984 33.6341 38.6257 33.853C37.869 34.4483 37.0306 34.9316 36.1362 35.2881C35.8117 35.4174 35.5217 35.6202 35.2888 35.8806C35.0559 36.1409 34.8866 36.4517 34.7941 36.7885L34.2387 38.8712H30.5297L29.9743 36.7852C29.881 36.4489 29.7113 36.1386 29.4782 35.8788C29.2452 35.619 28.9552 35.4166 28.6309 35.2874C27.7375 34.9314 26.8998 34.4487 26.1438 33.8543C25.8707 33.6351 25.5499 33.4834 25.2072 33.4115C24.8645 33.3397 24.5098 33.3496 24.1717 33.4406L22.0932 34.0009L20.2387 30.7879L21.7554 29.2743C22.0037 29.0245 22.1902 28.7202 22.3 28.3856C22.4098 28.051 22.4399 27.6954 22.3879 27.3471C22.2445 26.3991 22.2445 25.4349 22.3879 24.4869C22.4399 24.1391 22.4098 23.7839 22.3003 23.4498C22.1907 23.1156 22.0045 22.8117 21.7567 22.5622L20.2387 21.0474L22.0932 17.8342L24.173 18.3946C24.5106 18.485 24.8648 18.4947 25.2069 18.4231C25.549 18.3515 25.8695 18.2005 26.1425 17.9822C26.8992 17.3869 27.7377 16.9036 28.6321 16.5471C28.9565 16.4178 29.2466 16.215 29.4795 15.9547C29.7124 15.6944 29.8817 15.3836 29.9743 15.0468L30.5297 12.9639H34.2387L34.7941 15.0499C34.8873 15.3863 35.057 15.6965 35.2901 15.9564C35.5231 16.2162 35.8132 16.4186 36.1374 16.5477C37.0309 16.9038 37.8685 17.3865 38.6246 17.9809C38.8976 18.2 39.2185 18.3517 39.5612 18.4235C39.9038 18.4954 40.2586 18.4855 40.5967 18.3946L42.675 17.8342L44.5296 21.0474L43.0128 22.5609C42.7646 22.8107 42.5781 23.115 42.4683 23.4496C42.3585 23.7842 42.3283 24.1399 42.3803 24.4882Z" fill="#DE392E"/>
<path d="M32.3834 19.4403C31.1024 19.4403 29.8502 19.8202 28.7851 20.5319C27.72 21.2435 26.8899 22.2551 26.3996 23.4386C25.9094 24.622 25.7812 25.9243 26.0311 27.1807C26.281 28.4371 26.8978 29.5911 27.8036 30.4969C28.7094 31.4027 29.8635 32.0196 31.1199 32.2695C32.3763 32.5194 33.6785 32.3912 34.862 31.9009C36.0455 31.4107 37.057 30.5806 37.7687 29.5155C38.4804 28.4504 38.8603 27.1981 38.8603 25.9171C38.8582 24.2 38.1752 22.5538 36.961 21.3396C35.7468 20.1254 34.1006 19.4424 32.3834 19.4403ZM32.3834 29.8032C31.6149 29.8032 30.8635 29.5753 30.2245 29.1483C29.5854 28.7213 29.0873 28.1144 28.7932 27.4043C28.4991 26.6942 28.4221 25.9128 28.572 25.159C28.722 24.4052 29.0921 23.7127 29.6356 23.1693C30.1791 22.6258 30.8715 22.2557 31.6253 22.1057C32.3791 21.9558 33.1605 22.0327 33.8706 22.3269C34.5807 22.621 35.1876 23.1191 35.6146 23.7582C36.0416 24.3972 36.2695 25.1485 36.2695 25.9171C36.2684 26.9474 35.8586 27.9352 35.13 28.6637C34.4015 29.3923 33.4137 29.8021 32.3834 29.8032Z" fill="#DE392E"/>
<path d="M48.7961 8.86951C46.2124 6.54099 43.1613 4.79107 39.8467 3.73681C36.5322 2.68256 33.0308 2.34828 29.5767 2.75635C24.6773 3.3153 20.059 5.33412 16.3214 8.55076C12.5838 11.7674 9.89944 16.0333 8.61675 20.7947C7.33407 25.5562 7.51231 30.5932 9.12834 35.2521C10.7444 39.911 13.7236 43.9765 17.6792 46.9209C18.6337 47.6465 19.4061 48.5845 19.935 49.6605C20.464 50.7365 20.735 51.9209 20.7266 53.1199C20.7295 53.9404 20.9925 54.7389 21.4778 55.4005C21.9632 56.0621 22.6459 56.5527 23.4278 56.8017C23.6842 58.3057 24.4636 59.6708 25.6284 60.6562C26.7932 61.6416 28.2686 62.1839 29.7943 62.1875H34.9758C36.5016 62.1838 37.977 61.6414 39.1419 60.656C40.3067 59.6705 41.086 58.3053 41.3424 56.8013C42.1287 56.5477 42.814 56.0509 43.2995 55.3825C43.7849 54.7141 44.0455 53.9087 44.0434 53.0826C44.0386 51.8905 44.311 50.7136 44.839 49.6448C45.3669 48.576 46.1361 47.6445 47.0858 46.924C50.1712 44.6489 52.6766 41.6785 54.3987 38.2536C56.1209 34.8288 57.0112 31.0461 56.9973 27.2127C56.995 23.7508 56.2635 20.3281 54.8504 17.1676C53.4374 14.0072 51.3745 11.1798 48.7961 8.86951ZM34.9758 59.5967H29.7943C28.9908 59.5958 28.2073 59.3462 27.5512 58.8824C26.8951 58.4186 26.3985 57.7631 26.1296 57.006H38.6406C38.3717 57.7631 37.8751 58.4186 37.219 58.8824C36.5629 59.3462 35.7794 59.5957 34.9758 59.5967ZM40.1574 54.4154H24.6128C24.4399 54.4141 24.269 54.3785 24.1099 54.3106C23.9509 54.2427 23.8069 54.1439 23.6864 54.0199C23.5659 53.8959 23.4712 53.7492 23.4078 53.5883C23.3445 53.4274 23.3137 53.2555 23.3174 53.0826C23.3165 52.6621 23.29 52.2419 23.2381 51.8246H41.5362C41.4819 52.2543 41.454 52.6868 41.4527 53.1199C41.4524 53.4634 41.3158 53.7927 41.0729 54.0355C40.8301 54.2784 40.5008 54.415 40.1574 54.4154ZM45.5375 44.8468C44.0437 45.9731 42.8916 47.4918 42.2094 49.2338H22.563C21.8773 47.4909 20.723 45.9715 19.2277 44.8437C15.6891 42.21 13.0238 38.5735 11.5777 34.4062C10.1316 30.2389 9.97135 25.7332 11.1178 21.4737C12.2643 17.2142 14.6646 13.3977 18.0071 10.5193C21.3496 7.64092 25.4802 5.83362 29.8626 5.33195C30.7103 5.23724 31.5625 5.18971 32.4154 5.18956C37.8272 5.17352 43.051 7.17363 47.0682 10.7999C49.3752 12.8671 51.221 15.3969 52.4853 18.2248C53.7497 21.0527 54.4043 24.1151 54.4066 27.2127C54.4188 30.6424 53.6221 34.0266 52.0811 37.0905C50.5401 40.1545 48.2982 42.8118 45.5375 44.8468Z" fill="#131313"/>
<path d="M55.7013 10.3731C55.8715 10.3733 56.04 10.3399 56.1971 10.2748C56.3543 10.2097 56.4971 10.1141 56.6172 9.99364L61.7987 4.81225C62.0339 4.56777 62.1638 4.24079 62.1605 3.90156C62.1572 3.56233 62.021 3.23793 61.7811 2.99806C61.5412 2.75819 61.2168 2.62198 60.8775 2.61871C60.5383 2.61544 60.2113 2.74537 59.9669 2.98057L54.7855 8.16196C54.6085 8.34465 54.4887 8.57513 54.4411 8.82502C54.3934 9.07491 54.4199 9.33329 54.5172 9.56832C54.6146 9.80335 54.7785 10.0048 54.9889 10.1478C55.1993 10.2908 55.447 10.3691 55.7013 10.3731Z" fill="#131313"/>
<path d="M8.15099 9.99354C8.39548 10.2286 8.72241 10.3584 9.06157 10.3551C9.40072 10.3518 9.72505 10.2156 9.96488 9.97574C10.2047 9.73591 10.3409 9.41159 10.3442 9.07243C10.3476 8.73328 10.2178 8.40634 9.98267 8.16185L4.80129 2.98034C4.55822 2.73818 4.229 2.60234 3.88588 2.60266C3.54277 2.60298 3.2138 2.73942 2.97118 2.98204C2.72856 3.22466 2.59212 3.55363 2.5918 3.89675C2.59148 4.23986 2.72731 4.56908 2.96948 4.81215L8.15099 9.99354Z" fill="#131313"/>
<path d="M8.15142 45.7276L2.96991 50.9091C2.84964 51.0294 2.75424 51.1721 2.68915 51.3293C2.62407 51.4864 2.59057 51.6549 2.59058 51.825C2.59058 51.9951 2.62409 52.1635 2.68919 52.3206C2.75429 52.4778 2.8497 52.6205 2.96998 52.7408C3.09025 52.8611 3.23304 52.9565 3.39019 53.0216C3.54734 53.0867 3.71577 53.1202 3.88586 53.1202C4.05595 53.1201 4.22438 53.0866 4.38152 53.0215C4.53867 52.9564 4.68145 52.861 4.80172 52.7408L9.98323 47.5594C10.2178 47.3148 10.3471 46.988 10.3435 46.6491C10.34 46.3103 10.2038 45.9863 9.96415 45.7467C9.72452 45.507 9.40054 45.3708 9.06168 45.3673C8.72282 45.3637 8.39604 45.493 8.15142 45.7276Z" fill="#131313"/>
<path d="M56.6158 45.7273C56.3714 45.4921 56.0444 45.3622 55.7051 45.3655C55.3659 45.3688 55.0415 45.5051 54.8016 45.7449C54.5618 45.9848 54.4256 46.3092 54.4223 46.6485C54.419 46.9877 54.549 47.3147 54.7842 47.5591L59.9657 52.7405C60.0858 52.8612 60.2287 52.9571 60.3859 53.0225C60.5432 53.0879 60.7118 53.1217 60.8821 53.1219C61.0524 53.1221 61.2211 53.0887 61.3785 53.0236C61.5359 52.9585 61.6789 52.863 61.7994 52.7426C61.9198 52.6221 62.0153 52.4791 62.0804 52.3217C62.1455 52.1643 62.1789 51.9956 62.1787 51.8253C62.1785 51.655 62.1448 51.4863 62.0793 51.3291C62.0139 51.1718 61.9181 51.029 61.7974 50.9088L56.6158 45.7273Z" fill="#131313"/>
</svg>
