<svg width="65" height="65" viewBox="0 0 65 65" fill="none" xmlns="http://www.w3.org/2000/svg">
<g clip-path="url(#clip0_334_1470)">
<path d="M64.482 33.1051C64.576 33.0111 64.6505 32.8995 64.7014 32.7768C64.7523 32.654 64.7785 32.5223 64.7785 32.3894C64.7785 32.2565 64.7523 32.1249 64.7014 32.0021C64.6505 31.8793 64.576 31.7678 64.482 31.6738L59.1528 26.3446C58.9526 26.1443 58.7149 25.9853 58.4533 25.8769C58.1916 25.7684 57.9112 25.7126 57.628 25.7125C57.3448 25.7124 57.0643 25.7682 56.8027 25.8765C56.541 25.9848 56.3032 26.1436 56.1029 26.3439C55.7346 26.7064 55.5126 27.1919 55.4792 27.7077C55.4413 28.1882 55.2658 28.6477 54.9736 29.0311C54.6813 29.4145 54.2848 29.7055 53.8315 29.8694C53.3801 30.0353 52.8907 30.0686 52.4211 29.9652C51.9514 29.8619 51.5211 29.6263 51.1811 29.2863C50.841 28.9463 50.6054 28.516 50.502 28.0464C50.3987 27.5767 50.4319 27.0873 50.5978 26.6359C50.7617 26.1825 51.0528 25.786 51.4363 25.4938C51.8198 25.2016 52.2794 25.0262 52.76 24.9885C53.2755 24.9543 53.7605 24.7325 54.1236 24.365C54.5272 23.9601 54.7538 23.4116 54.7537 22.8399C54.7536 22.2681 54.5268 21.7198 54.1231 21.3149L48.7934 15.9852L43.4642 10.6555C43.4393 10.6307 43.4253 10.597 43.4252 10.5619C43.4251 10.5267 43.439 10.493 43.4637 10.468C43.4779 10.4521 43.4962 10.4404 43.5166 10.4341C44.3864 10.3728 45.2201 10.0619 45.9178 9.53874C46.6154 9.01561 47.1474 8.30242 47.4501 7.48462C47.7636 6.66985 47.8318 5.78112 47.6463 4.92805C47.4607 4.07498 47.0295 3.29489 46.4058 2.68399C45.7949 2.06033 45.0149 1.62914 44.1618 1.44361C43.3088 1.25808 42.4201 1.32633 41.6054 1.63995C40.7878 1.94235 40.0747 2.47412 39.5517 3.17153C39.0286 3.86893 38.7178 4.70238 38.6564 5.57197C38.6501 5.59306 38.6379 5.61192 38.6213 5.62634C38.609 5.63861 38.5945 5.64836 38.5785 5.655C38.5624 5.66165 38.5452 5.66507 38.5279 5.66507C38.5105 5.66507 38.4934 5.66165 38.4773 5.655C38.4613 5.64836 38.4467 5.63861 38.4345 5.62634L33.1048 0.296654C33.0109 0.202645 32.8993 0.12807 32.7765 0.0771902C32.6537 0.0263102 32.5221 0.00012207 32.3892 0.00012207C32.2563 0.00012207 32.1247 0.0263102 32.0019 0.0771902C31.8791 0.12807 31.7675 0.202645 31.6736 0.296654L26.3434 5.62634C25.9398 6.03131 25.7132 6.57976 25.7133 7.15149C25.7134 7.72322 25.9402 8.2716 26.3439 8.67643C26.7068 9.04408 27.1919 9.2659 27.7074 9.2999C28.1879 9.33765 28.6474 9.51307 29.0307 9.80516C29.4141 10.0973 29.7052 10.4937 29.8691 10.9469C30.0352 11.3983 30.0685 11.8878 29.9652 12.3575C29.8619 12.8272 29.6263 13.2575 29.2862 13.5976C28.9461 13.9377 28.5158 14.1733 28.046 14.2766C27.5763 14.3799 27.0868 14.3466 26.6355 14.1806C26.1821 14.0166 25.7856 13.7254 25.4934 13.3419C25.2013 12.9584 25.0259 12.4988 24.9882 12.0181C24.954 11.503 24.7323 11.0183 24.365 10.6555C24.1647 10.4552 23.927 10.2963 23.6653 10.1879C23.4036 10.0795 23.1231 10.0237 22.8398 10.0237C22.5566 10.0237 22.2761 10.0795 22.0144 10.1879C21.7527 10.2963 21.5149 10.4552 21.3147 10.6555L15.985 15.9852L10.6548 21.3149C10.6428 21.3274 10.6284 21.3373 10.6124 21.344C10.5964 21.3506 10.5792 21.354 10.5619 21.3537C10.5443 21.3539 10.5269 21.3505 10.5107 21.3438C10.4945 21.3371 10.4798 21.3272 10.4675 21.3147C10.4516 21.3004 10.4399 21.2821 10.4334 21.2618C10.3722 20.3921 10.0615 19.5585 9.53855 18.8609C9.01558 18.1633 8.30252 17.6313 7.48484 17.3288C6.67007 17.0147 5.78114 16.9462 4.92787 17.1317C4.07459 17.3172 3.29434 17.7486 2.68348 18.3726C2.05988 18.9835 1.62875 19.7636 1.44327 20.6167C1.25778 21.4698 1.32607 22.3585 1.63969 23.1732C1.94228 23.9909 2.47423 24.7041 3.17179 25.2272C3.86935 25.7503 4.70294 26.0612 5.5727 26.1227C5.59313 26.1287 5.61145 26.1404 5.62558 26.1563C5.65046 26.1812 5.66447 26.2149 5.66457 26.2501C5.66466 26.2853 5.65083 26.3191 5.62609 26.3441L0.296412 31.6738C0.202403 31.7678 0.127827 31.8793 0.0769467 32.0021C0.0260663 32.1249 -0.00012207 32.2565 -0.00012207 32.3894C-0.00012207 32.5224 0.0260663 32.654 0.0769467 32.7768C0.127827 32.8995 0.202403 33.0111 0.296412 33.1051L5.6256 38.4343C5.82579 38.6346 6.06349 38.7935 6.32511 38.902C6.58673 39.0104 6.86716 39.0663 7.15037 39.0664C7.43358 39.0664 7.71404 39.0107 7.97571 38.9024C8.23739 38.794 8.47516 38.6352 8.67545 38.435C9.04379 38.0724 9.2658 37.587 9.29915 37.0712C9.33703 36.5906 9.51259 36.1312 9.80481 35.7478C10.097 35.3644 10.4935 35.0734 10.9469 34.9095C11.3982 34.7436 11.8877 34.7103 12.3573 34.8136C12.827 34.9169 13.2572 35.1525 13.5973 35.4926C13.9373 35.8326 14.173 36.2628 14.2763 36.7325C14.3797 37.2021 14.3465 37.6916 14.1806 38.1429C14.0167 38.5963 13.7255 38.9928 13.342 39.285C12.9586 39.5772 12.499 39.7527 12.0183 39.7904C11.5029 39.8246 11.0178 40.0464 10.6548 40.4139C10.2512 40.8189 10.0246 41.3673 10.0247 41.939C10.0248 42.5108 10.2516 43.0591 10.6553 43.464L15.985 48.7936L21.3142 54.1233C21.339 54.1482 21.3531 54.1818 21.3532 54.217C21.3533 54.2522 21.3394 54.2859 21.3147 54.3109C21.3004 54.3267 21.2822 54.3384 21.2618 54.3447C20.392 54.4061 19.5583 54.717 18.8606 55.2401C18.163 55.7633 17.6309 56.4764 17.3283 57.2943C17.0239 58.1103 16.9604 58.9967 17.1456 59.8478C17.3307 60.6989 17.7566 61.4789 18.3725 62.0948C18.9883 62.7106 19.7683 63.1365 20.6194 63.3216C21.4705 63.5068 22.3569 63.4433 23.173 63.1389C23.9906 62.8365 24.7037 62.3047 25.2267 61.6073C25.7498 60.9099 26.0606 60.0765 26.122 59.2069C26.1283 59.1858 26.1404 59.1669 26.1571 59.1525C26.1819 59.1279 26.2155 59.1142 26.2505 59.1142C26.2854 59.1142 26.319 59.1279 26.3439 59.1525L31.6736 64.4822C31.7675 64.5762 31.8791 64.6508 32.0019 64.7017C32.1247 64.7526 32.2563 64.7788 32.3892 64.7788C32.5221 64.7788 32.6537 64.7526 32.7765 64.7017C32.8993 64.6508 33.0109 64.5762 33.1048 64.4822L38.435 59.1525C38.8386 58.7476 39.0652 58.1991 39.0651 57.6274C39.065 57.0556 38.8382 56.5073 38.4345 56.1024C38.0716 55.7348 37.5865 55.513 37.071 55.479C36.5905 55.4412 36.131 55.2658 35.7476 54.9737C35.3643 54.6816 35.0732 54.2852 34.9092 53.832C34.7432 53.3806 34.7099 52.8911 34.8132 52.4214C34.9165 51.9517 35.1521 51.5213 35.4922 51.1812C35.8323 50.8412 36.2626 50.6055 36.7323 50.5022C37.2021 50.3989 37.6915 50.4323 38.1429 50.5983C38.5963 50.7623 38.9928 51.0534 39.285 51.437C39.5771 51.8205 39.7525 52.2801 39.7902 52.7608C39.8244 53.2759 40.0461 53.7606 40.4134 54.1233C40.6136 54.3237 40.8514 54.4826 41.1131 54.591C41.3748 54.6994 41.6553 54.7552 41.9385 54.7552C42.2218 54.7552 42.5023 54.6994 42.764 54.591C43.0257 54.4826 43.2634 54.3237 43.4637 54.1233L48.7934 48.7936L54.1236 43.464C54.1356 43.4515 54.15 43.4416 54.166 43.4349C54.182 43.4282 54.1992 43.4249 54.2165 43.4252C54.234 43.425 54.2514 43.4284 54.2677 43.4351C54.2839 43.4418 54.2986 43.4517 54.3109 43.4642C54.3267 43.4785 54.3385 43.4967 54.345 43.5171C54.4061 44.3868 54.7168 45.2204 55.2398 45.918C55.7628 46.6156 56.4759 47.1475 57.2935 47.4501C58.1096 47.7548 58.9961 47.8184 59.8473 47.6334C60.6985 47.4483 61.4786 47.0225 62.0946 46.4066C62.7106 45.7907 63.1365 45.0107 63.3216 44.1595C63.5067 43.3083 63.4432 42.4218 63.1387 41.6057C62.8361 40.7879 62.3041 40.0748 61.6066 39.5517C60.909 39.0285 60.0754 38.7176 59.2057 38.6562C59.1852 38.6501 59.1669 38.6385 59.1528 38.6226C59.1279 38.5977 59.1139 38.5639 59.1138 38.5288C59.1137 38.4936 59.1275 38.4598 59.1523 38.4348L64.482 33.1051ZM57.721 40.0536C58.0839 40.4212 58.5691 40.6431 59.0846 40.677C59.5651 40.7148 60.0245 40.8902 60.4079 41.1823C60.7913 41.4744 61.0823 41.8708 61.2463 42.324C61.4123 42.7754 61.4456 43.2649 61.3423 43.7346C61.239 44.2044 61.0034 44.6347 60.6633 44.9748C60.3233 45.3149 59.8929 45.5505 59.4232 45.6538C58.9535 45.7571 58.464 45.7237 58.0126 45.5577C57.5592 45.3937 57.1627 45.1026 56.8706 44.719C56.5784 44.3355 56.403 43.8759 56.3654 43.3952C56.3312 42.8801 56.1095 42.3954 55.7421 42.0327C55.5419 41.8324 55.3041 41.6734 55.0424 41.565C54.7807 41.4566 54.5002 41.4008 54.217 41.4008C53.9337 41.4008 53.6532 41.4566 53.3915 41.565C53.1299 41.6734 52.8921 41.8324 52.6918 42.0327L48.0778 46.6465L43.4642 42.0327C43.4518 42.0203 43.442 42.0056 43.4354 41.9894C43.4287 41.9732 43.4253 41.9558 43.4254 41.9383C43.4255 41.9208 43.4291 41.9035 43.4359 41.8874C43.4427 41.8712 43.4527 41.8566 43.4652 41.8444C43.4789 41.8288 43.4967 41.8173 43.5166 41.8113C44.3865 41.75 45.2203 41.4391 45.918 40.9158C46.6157 40.3926 47.1477 39.6792 47.4501 38.8613C47.7636 38.0466 47.8317 37.1579 47.6461 36.305C47.4606 35.452 47.0294 34.672 46.4058 34.0611C46.1359 33.7929 45.8342 33.5586 45.5075 33.3636C45.4898 33.6033 45.4542 33.8377 45.4244 34.0738C45.4051 34.2265 45.395 34.382 45.3705 34.5331C45.3084 34.9168 45.2296 35.2946 45.1341 35.6666C45.4252 36.0007 45.6188 36.4085 45.6935 36.8453C45.7682 37.2821 45.7213 37.731 45.5577 38.1429C45.3938 38.5963 45.1027 38.9928 44.7192 39.285C44.3357 39.5772 43.8761 39.7527 43.3955 39.7904C43.3447 39.7934 43.2957 39.8068 43.2455 39.8136C42.71 40.5931 42.0927 41.313 41.404 41.9612C41.4081 42.5252 41.6338 43.0649 42.0324 43.4639L46.6465 48.078L42.0319 52.6921C41.9776 52.7464 41.8195 52.7425 41.8105 52.6389C41.7494 51.7692 41.4387 50.9356 40.9157 50.238C40.3927 49.5404 39.6797 49.0085 38.862 48.7059C38.0459 48.4013 37.1594 48.3376 36.3082 48.5226C35.457 48.7077 34.6769 49.1335 34.0609 49.7494C33.4449 50.3653 33.019 51.1454 32.8339 51.9965C32.6488 52.8477 32.7123 53.7342 33.0168 54.5503C33.3194 55.3681 33.8514 56.0812 34.5489 56.6043C35.2465 57.1275 36.0801 57.4384 36.9498 57.4998C36.9703 57.5059 36.9886 57.5175 37.0027 57.5335C37.0276 57.5583 37.0416 57.5921 37.0417 57.6273C37.0418 57.6624 37.028 57.6962 37.0032 57.7213L32.3892 62.3351L27.7756 57.7213C27.5753 57.5209 27.3375 57.362 27.0758 57.2536C26.814 57.1452 26.5335 57.0894 26.2502 57.0894C25.9669 57.0894 25.6863 57.1453 25.4246 57.2537C25.1629 57.3622 24.9251 57.5211 24.7248 57.7215C24.3571 58.0844 24.1354 58.5696 24.1016 59.0851C24.0637 59.5654 23.8882 60.0247 23.5962 60.408C23.3042 60.7912 22.9079 61.0823 22.4548 61.2463C22.0034 61.4125 21.5139 61.446 21.0441 61.3428C20.5743 61.2396 20.1438 61.004 19.8036 60.6639C19.4635 60.3238 19.2278 59.8934 19.1245 59.4236C19.0212 58.9538 19.0545 58.4643 19.2207 58.0128C19.3846 57.5595 19.6757 57.163 20.0592 56.8708C20.4427 56.5787 20.9023 56.4033 21.3829 56.3656C21.8983 56.3314 22.3834 56.1096 22.7465 55.7422C23.15 55.3372 23.3766 54.7887 23.3765 54.217C23.3764 53.6453 23.1497 53.0969 22.7459 52.6921L18.1319 48.078L22.7464 43.464C22.772 43.4407 22.8053 43.4278 22.8399 43.4279C22.8744 43.4279 22.9077 43.4408 22.9333 43.464C22.9491 43.4785 22.9608 43.4969 22.9674 43.5173C23.0709 44.4549 23.4297 45.346 24.0045 46.0938C24.54 46.7298 25.237 47.2098 26.0221 47.4832C26.8072 47.7567 27.6515 47.8137 28.4663 47.648C29.3205 47.4592 30.1022 47.0281 30.7177 46.4063C30.9845 46.1361 31.2172 45.8342 31.4107 45.5074C30.635 45.4515 29.8657 45.3267 29.1121 45.1344C28.7779 45.4254 28.37 45.6189 27.9332 45.6935C27.4963 45.7682 27.0474 45.7212 26.6355 45.5577C26.1821 45.3938 25.7856 45.1026 25.4934 44.7191C25.2013 44.3355 25.0259 43.8759 24.9882 43.3953C24.9742 43.1642 24.7126 43.0678 24.5417 42.9397C24.2505 42.7213 23.9657 42.4938 23.693 42.2527C23.5344 42.1125 23.3793 41.9685 23.2275 41.8209C23.1631 41.7583 22.8927 41.4025 22.8164 41.4031C22.2524 41.407 21.7128 41.6332 21.3147 42.0327L16.7006 46.6465L12.0871 42.0327C12.0747 42.0203 12.0649 42.0056 12.0582 41.9894C12.0516 41.9732 12.0482 41.9558 12.0483 41.9383C12.0484 41.9208 12.0519 41.9035 12.0588 41.8874C12.0656 41.8712 12.0756 41.8566 12.0881 41.8444C12.1018 41.8288 12.1196 41.8173 12.1395 41.8113C13.0094 41.75 13.8432 41.4391 14.5409 40.9158C15.2386 40.3926 15.7705 39.6792 16.073 38.8613C16.3271 38.1752 16.4123 37.438 16.3216 36.7121C16.2308 35.9861 15.9666 35.2926 15.5514 34.6902C15.1362 34.0878 14.5821 33.5942 13.936 33.2511C13.2898 32.9079 12.5706 32.7253 11.839 32.7186C10.6865 32.7231 9.57783 33.1608 8.73307 33.9447C7.8883 34.7287 7.3692 35.8017 7.2788 36.9506C7.27193 36.9709 7.26003 36.9891 7.2442 37.0035C7.23196 37.0158 7.21739 37.0256 7.20135 37.0322C7.18531 37.0389 7.16811 37.0423 7.15074 37.0423C7.13337 37.0423 7.11618 37.0388 7.10016 37.0321C7.08414 37.0254 7.0696 37.0156 7.05739 37.0032L2.44331 32.3894L7.05786 27.7754C7.46144 27.3704 7.68802 26.822 7.68792 26.2502C7.68783 25.6785 7.46107 25.1301 7.05735 24.7253C6.69443 24.3576 6.2093 24.1358 5.69382 24.1018C5.21332 24.0641 4.75388 23.8887 4.37049 23.5966C3.98711 23.3045 3.69603 22.9081 3.53209 22.4548C3.35316 22.0053 3.31309 21.5124 3.41704 21.0399C3.521 20.5673 3.7642 20.1368 4.11527 19.8038C4.44822 19.4529 4.8787 19.2098 5.35115 19.1059C5.82361 19.0021 6.31635 19.0422 6.76577 19.2212C7.21915 19.3851 7.61566 19.6763 7.90781 20.0598C8.19995 20.4434 8.37535 20.903 8.413 21.3836C8.44721 21.8987 8.66891 22.3834 9.03622 22.7462C9.23649 22.9465 9.47426 23.1054 9.73595 23.2138C9.99764 23.3222 10.2781 23.378 10.5614 23.378C10.8446 23.378 11.1251 23.3222 11.3868 23.2138C11.6485 23.1054 11.8863 22.9465 12.0866 22.7462L16.7006 18.1324L21.3142 22.7462C21.3266 22.7586 21.3364 22.7733 21.343 22.7895C21.3497 22.8057 21.3531 22.823 21.353 22.8405C21.3529 22.8581 21.3493 22.8754 21.3425 22.8915C21.3356 22.9076 21.3257 22.9222 21.3132 22.9345C21.2994 22.9501 21.2816 22.9615 21.2618 22.9676C20.3918 23.0289 19.558 23.3398 18.8604 23.863C18.1627 24.3863 17.6307 25.0996 17.3283 25.9176C17.0148 26.7323 16.9467 27.6209 17.1322 28.4739C17.3178 29.3269 17.749 30.1069 18.3725 30.7177C18.6427 30.9845 18.9445 31.2172 19.2712 31.4107C19.3271 30.635 19.452 29.8658 19.6443 29.1122C19.3531 28.7781 19.1596 28.3703 19.0849 27.9335C19.0101 27.4967 19.0571 27.0478 19.2206 26.6359C19.3846 26.1825 19.6757 25.786 20.0592 25.4938C20.4427 25.2016 20.9023 25.0262 21.3829 24.9885C21.4336 24.9854 21.4826 24.9721 21.5328 24.9652C22.0683 24.1858 22.6857 23.4658 23.3744 22.8177C23.3703 22.2537 23.1446 21.7139 22.746 21.3149L18.1319 16.7009L22.7464 12.0868C22.7584 12.0743 22.7729 12.0644 22.7889 12.0578C22.8048 12.0511 22.822 12.0478 22.8393 12.048C22.8569 12.0478 22.8743 12.0512 22.8905 12.0579C22.9067 12.0646 22.9214 12.0745 22.9337 12.0871C22.9496 12.1013 22.9614 12.1196 22.9678 12.1399C23.029 13.0096 23.3397 13.8433 23.8627 14.5408C24.3857 15.2384 25.0987 15.7704 25.9164 16.073C26.7325 16.3776 27.6189 16.4412 28.4701 16.2562C29.3214 16.0712 30.1014 15.6454 30.7174 15.0295C31.3334 14.4135 31.7594 13.6335 31.9445 12.7823C32.1296 11.9311 32.0661 11.0447 31.7615 10.2285C31.4589 9.4108 30.927 8.69765 30.2294 8.17452C29.5319 7.6514 28.6983 7.34048 27.8285 7.27902C27.8081 7.27299 27.7898 7.26134 27.7756 7.24541C27.7508 7.22052 27.7368 7.1868 27.7367 7.15161C27.7366 7.11643 27.7504 7.08263 27.7751 7.05761L32.3892 2.4438L37.0027 7.0576C37.2031 7.25795 37.4409 7.41687 37.7026 7.52528C37.9644 7.6337 38.2449 7.68949 38.5282 7.68947C38.8115 7.68944 39.092 7.63361 39.3538 7.52515C39.6155 7.41669 39.8533 7.25773 40.0536 7.05736C40.4212 6.69445 40.643 6.20929 40.6768 5.6938C40.7147 5.21344 40.8901 4.75416 41.1822 4.37089C41.4742 3.98762 41.8705 3.69658 42.3235 3.53258C42.7731 3.35365 43.266 3.31352 43.7386 3.41738C44.2112 3.52124 44.6419 3.76432 44.975 4.11527C45.326 4.44827 45.569 4.8788 45.6729 5.35129C45.7767 5.82378 45.7366 6.31655 45.5577 6.76602C45.3938 7.21939 45.1026 7.61589 44.7192 7.90803C44.3357 8.20018 43.8761 8.37558 43.3955 8.41324C42.88 8.44745 42.395 8.66925 42.0319 9.03674C41.6284 9.4417 41.4018 9.99016 41.4019 10.5619C41.402 11.1336 41.6287 11.682 42.0325 12.0868L46.6465 16.7009L42.032 21.3149C41.9746 21.3722 41.8293 21.3574 41.811 21.2616C41.7149 20.4063 41.4111 19.5874 40.926 18.8764C40.464 18.2665 39.8588 17.7799 39.1639 17.4596C38.469 17.1394 37.7059 16.9953 36.9421 17.0403C35.8519 17.1204 34.8279 17.5939 34.0607 18.3726C33.7939 18.6429 33.5611 18.9447 33.3677 19.2715C34.1435 19.3274 34.9127 19.4522 35.6664 19.6445C36.0034 19.3585 36.411 19.1683 36.8467 19.0939C37.2824 19.0194 37.7301 19.0634 38.1429 19.2212C38.5963 19.3851 38.9928 19.6763 39.2849 20.0598C39.5771 20.4434 39.7525 20.903 39.7901 21.3836C39.7932 21.4342 39.8065 21.483 39.8134 21.5332C39.8357 21.6967 40.3329 21.9079 40.4582 22.0002C40.8001 22.253 41.1175 22.5374 41.406 22.8498C41.5405 22.9936 41.7441 23.3758 41.962 23.3758C42.526 23.3719 43.0656 23.1457 43.4637 22.7462L48.0778 18.1324L52.6913 22.7462C52.7037 22.7586 52.7135 22.7733 52.7202 22.7895C52.7268 22.8057 52.7302 22.823 52.7301 22.8405C52.73 22.8581 52.7264 22.8754 52.7196 22.8915C52.7128 22.9076 52.7028 22.9222 52.6903 22.9345C52.6766 22.9501 52.6588 22.9615 52.6389 22.9676C51.769 23.0289 50.9352 23.3398 50.2375 23.863C49.5398 24.3863 49.0078 25.0996 48.7054 25.9176C48.4011 26.7336 48.3377 27.6199 48.5228 28.4709C48.7079 29.3219 49.1338 30.1018 49.7496 30.7176C50.3654 31.3335 51.1453 31.7593 51.9963 31.9445C52.8473 32.1297 53.7335 32.0663 54.5496 31.762C55.3675 31.4595 56.0808 30.9275 56.604 30.2298C57.1272 29.5321 57.4382 28.6983 57.4996 27.8284C57.5056 27.7277 57.6642 27.7189 57.721 27.7756L62.3351 32.3894L57.7205 37.0035C57.3169 37.4084 57.0904 37.9569 57.0905 38.5286C57.0906 39.1003 57.3173 39.6487 57.721 40.0536Z" fill="#131313"/>
<path d="M32.3871 21.2556C30.1851 21.2556 28.0325 21.9086 26.2015 23.132C24.3706 24.3554 22.9435 26.0943 22.1008 28.1287C21.2581 30.1632 21.0376 32.4018 21.4672 34.5615C21.8968 36.7213 22.9572 38.7052 24.5143 40.2622C26.0714 41.8193 28.0553 42.8797 30.215 43.3093C32.3748 43.7389 34.6134 43.5184 36.6479 42.6758C38.6823 41.8331 40.4212 40.406 41.6446 38.5751C42.868 36.7441 43.5209 34.5915 43.5209 32.3894C43.5176 29.4376 42.3435 26.6076 40.2562 24.5203C38.169 22.433 35.339 21.2589 32.3871 21.2556ZM32.3871 41.4989C30.5854 41.4989 28.8242 40.9647 27.3262 39.9637C25.8281 38.9627 24.6605 37.54 23.971 35.8755C23.2816 34.2109 23.1012 32.3793 23.4527 30.6123C23.8042 28.8452 24.6718 27.222 25.9457 25.9481C27.2197 24.6741 28.8429 23.8065 30.61 23.455C32.377 23.1035 34.2086 23.2839 35.8732 23.9734C37.5377 24.6628 38.9604 25.8304 39.9614 27.3285C40.9624 28.8265 41.4966 30.5878 41.4966 32.3894C41.4939 34.8046 40.5332 37.12 38.8255 38.8278C37.1177 40.5355 34.8023 41.4962 32.3871 41.4989Z" fill="#DE392E"/>
<path d="M37.5662 28.0494C37.3546 27.8843 37.0861 27.8099 36.8196 27.8426C36.5532 27.8753 36.3107 28.0125 36.1453 28.2239L31.2184 34.5304L28.4374 32.4631C28.3307 32.3838 28.2095 32.3262 28.0806 32.2938C27.9517 32.2613 27.8177 32.2546 27.6862 32.2739C27.5547 32.2933 27.4283 32.3383 27.3142 32.4065C27.2001 32.4747 27.1005 32.5647 27.0212 32.6714C26.9419 32.7781 26.8844 32.8993 26.8519 33.0282C26.8195 33.1571 26.8127 33.2911 26.8321 33.4226C26.8514 33.5542 26.8965 33.6806 26.9647 33.7947C27.0329 33.9087 27.1229 34.0083 27.2295 34.0876L30.8037 36.7445C31.0158 36.9022 31.2811 36.9707 31.543 36.9354C31.8049 36.9 32.0426 36.7637 32.2054 36.5555L37.7406 29.4703C37.9058 29.2587 37.9803 28.9902 37.9475 28.7238C37.9148 28.4573 37.7777 28.2148 37.5662 28.0494Z" fill="#DE392E"/>
</g>
<defs>
<clipPath id="clip0_334_1470">
<rect width="64.7786" height="64.7786" fill="white"/>
</clipPath>
</defs>
</svg>
