<svg width="65" height="65" viewBox="0 0 65 65" fill="none" xmlns="http://www.w3.org/2000/svg">
<g clip-path="url(#clip0_334_1446)">
<path d="M61.3001 54.8252C61.438 54.4205 61.4592 53.9852 61.3613 53.569C61.2634 53.1528 61.0503 52.7726 60.7464 52.4719L55.264 46.99C56.5879 44.9769 57.7367 42.8541 58.6978 40.6447C62.0562 32.9067 63.3927 23.8676 62.7834 13.0126C62.7501 12.4801 62.6051 11.9606 62.358 11.4878C62.1108 11.015 61.7669 10.5994 61.3487 10.2681C60.9304 9.93687 60.4472 9.69728 59.9304 9.56492C59.4135 9.43256 58.8746 9.41041 58.3486 9.49989C47.4557 11.4797 37.8548 4.18652 34.2373 0.958724C33.7285 0.505907 33.0712 0.255737 32.3901 0.255737C31.709 0.255737 31.0517 0.505907 30.5429 0.958724C26.9234 4.18652 17.327 11.4802 6.42703 9.49938C5.9012 9.41013 5.36247 9.43247 4.84583 9.56494C4.32918 9.69741 3.84617 9.93705 3.42816 10.2683C3.01014 10.5996 2.66646 11.015 2.41943 11.4877C2.1724 11.9604 2.02754 12.4798 1.99425 13.0121C1.38695 23.8676 2.72048 32.9067 6.07885 40.6442C7.04073 42.8537 8.19003 44.9767 9.51414 46.99L4.03174 52.4719C3.72983 52.7711 3.5177 53.1489 3.41934 53.5624C3.32098 53.976 3.34033 54.4088 3.4752 54.8119C3.61006 55.215 3.85506 55.5724 4.18247 55.8435C4.50987 56.1146 4.90662 56.2886 5.32782 56.346L10.3006 57.0074C10.4642 57.0293 10.616 57.1043 10.7327 57.221C10.8494 57.3377 10.9245 57.4896 10.9464 57.6532L11.6083 62.6264C11.6655 63.0478 11.8395 63.4447 12.1106 63.7723C12.3817 64.0998 12.7391 64.345 13.1423 64.4799C13.5455 64.6148 13.9785 64.6342 14.3921 64.5358C14.8058 64.4374 15.1836 64.2251 15.4829 63.923L20.8064 58.5995C23.9693 60.8206 27.3567 62.7034 30.9128 64.2171C31.3793 64.4171 31.8815 64.5203 32.3891 64.5203C32.8966 64.5203 33.3989 64.4171 33.8653 64.2171C37.4216 62.7036 40.809 60.8208 43.9718 58.5995L49.2953 63.9235C49.5945 64.2256 49.9724 64.4379 50.386 64.5363C50.7997 64.6347 51.2327 64.6154 51.6359 64.4804C52.0391 64.3455 52.3965 64.1004 52.6676 63.7728C52.9387 63.4452 53.1127 63.0483 53.1699 62.627L53.8318 57.6532C53.8537 57.4897 53.9288 57.338 54.0456 57.2215C54.1623 57.1049 54.3141 57.0301 54.4776 57.0084L59.4504 56.3465C59.8704 56.2921 60.2666 56.1206 60.5937 55.8515C60.9209 55.5825 61.1656 55.2268 61.3001 54.8252ZM14.409 62.8496C14.3084 62.9533 14.1804 63.0261 14.0399 63.0595C13.8995 63.0929 13.7524 63.0856 13.6159 63.0384C13.4822 62.9954 13.3637 62.9148 13.2746 62.8062C13.1855 62.6976 13.1295 62.5656 13.1134 62.426L12.4494 57.4528C12.3829 56.9589 12.1561 56.5006 11.8038 56.1482C11.4515 55.7959 10.9933 55.5689 10.4995 55.5023L5.52621 54.8404C5.38676 54.8243 5.25488 54.7685 5.14637 54.6794C5.03786 54.5904 4.9573 54.472 4.91435 54.3383C4.86714 54.2019 4.85982 54.0548 4.89326 53.9143C4.92669 53.7739 4.99949 53.6458 5.10312 53.5453L10.3795 48.2704C12.9462 51.8591 16.0473 55.0336 19.5751 57.6835L14.409 62.8496ZM33.2641 62.8228C32.9876 62.9413 32.6899 63.0023 32.3891 63.0023C32.0883 63.0023 31.7906 62.9413 31.5141 62.8228C11.2809 54.101 2.12077 37.8334 3.50997 13.0971C3.52987 12.779 3.61631 12.4687 3.76371 12.1861C3.9111 11.9035 4.11617 11.655 4.36565 11.4567C4.61512 11.2583 4.90345 11.1145 5.21199 11.0347C5.52053 10.9548 5.8424 10.9405 6.15678 10.9928C17.7127 13.0961 27.766 5.4664 31.5505 2.09235C31.7814 1.88679 32.0797 1.77321 32.3888 1.77321C32.698 1.77321 32.9963 1.88679 33.2272 2.09235C37.0127 5.4664 47.0655 13.0916 58.6214 10.9928C58.9357 10.9406 59.2576 10.9549 59.566 11.0348C59.8745 11.1148 60.1628 11.2585 60.4122 11.4569C60.6616 11.6552 60.8666 11.9037 61.014 12.1862C61.1614 12.4688 61.2478 12.7791 61.2677 13.0971C62.6574 37.8334 53.4973 54.101 33.2641 62.8228ZM54.2767 55.5028C53.783 55.5692 53.3247 55.796 52.9724 56.1482C52.6201 56.5004 52.3933 56.9586 52.3267 57.4523L51.6643 62.426C51.6483 62.5656 51.5924 62.6975 51.5034 62.8061C51.4143 62.9147 51.2959 62.9954 51.1622 63.0384C51.0257 63.0857 50.8785 63.0931 50.738 63.0597C50.5974 63.0262 50.4693 62.9534 50.3687 62.8496L45.2031 57.6835C48.7308 55.0336 51.8319 51.8591 54.3986 48.2704L59.673 53.5443C59.7767 53.6448 59.8495 53.7728 59.8829 53.9133C59.9163 54.0538 59.909 54.2009 59.8618 54.3373C59.8188 54.471 59.7382 54.5895 59.6296 54.6785C59.521 54.7676 59.389 54.8234 59.2494 54.8394L54.2767 55.5028Z" fill="#131313"/>
<path d="M57.8263 15.5175C57.8224 15.4142 57.7976 15.3127 57.7534 15.2192C57.7092 15.1257 57.6464 15.0422 57.569 14.9736C57.4915 14.9051 57.401 14.8529 57.3028 14.8204C57.2047 14.7878 57.1009 14.7755 56.9978 14.7842C56.217 14.8561 55.4168 14.893 54.6193 14.8935C45.0361 14.8935 36.8724 9.5746 32.8577 6.40399C32.7237 6.29809 32.5578 6.24048 32.387 6.24048C32.2162 6.24048 32.0504 6.29809 31.9164 6.40399C27.9031 9.5741 19.7395 14.893 10.1548 14.8935C9.36582 14.8935 8.5652 14.8566 7.77621 14.7847C7.67321 14.7762 7.56954 14.7886 7.47146 14.8212C7.37338 14.8538 7.28293 14.9059 7.20555 14.9745C7.12818 15.043 7.06549 15.1265 7.02127 15.2199C6.97705 15.3133 6.95222 15.4148 6.94826 15.518C6.29035 37.3302 14.2753 51.2095 32.0753 59.2011C32.173 59.2449 32.2789 59.2676 32.386 59.2676C32.4931 59.2676 32.599 59.2449 32.6968 59.2011C50.5003 51.2095 58.4842 37.3287 57.8263 15.5175ZM32.3891 57.6753C15.6544 50.0435 8.03128 36.894 8.45133 16.3586C9.02118 16.3941 9.59356 16.4093 10.1604 16.4093C19.8392 16.4093 28.0757 11.2786 32.3916 7.95767C36.707 11.2776 44.9455 16.4093 54.6243 16.4093C55.1937 16.4093 55.7655 16.391 56.3313 16.3556C56.7473 36.894 49.1242 50.0435 32.3891 57.6753Z" fill="#131313"/>
<path d="M32.3874 21.22C30.1782 21.22 28.0187 21.8751 26.1818 23.1024C24.345 24.3298 22.9133 26.0742 22.0679 28.1152C21.2225 30.1563 21.0013 32.4021 21.4323 34.5688C21.8633 36.7356 22.9271 38.7258 24.4892 40.2879C26.0513 41.8501 28.0416 42.9139 30.2083 43.3449C32.375 43.7758 34.6209 43.5546 36.6619 42.7092C38.7029 41.8638 40.4474 40.4322 41.6747 38.5953C42.9021 36.7585 43.5572 34.5989 43.5572 32.3897C43.5533 29.4285 42.3752 26.5897 40.2813 24.4958C38.1874 22.4019 35.3486 21.2239 32.3874 21.22ZM32.3874 42.0412C30.4785 42.0412 28.6125 41.4752 27.0253 40.4147C25.4381 39.3541 24.2011 37.8468 23.4706 36.0832C22.7401 34.3196 22.549 32.379 22.9214 30.5068C23.2938 28.6346 24.213 26.9149 25.5628 25.5651C26.9126 24.2153 28.6323 23.2961 30.5045 22.9237C32.3767 22.5513 34.3173 22.7424 36.0809 23.4729C37.8445 24.2034 39.3518 25.4405 40.4123 27.0276C41.4729 28.6148 42.0389 30.4808 42.0389 32.3897C42.0361 34.9486 41.0184 37.4019 39.209 39.2113C37.3996 41.0207 34.9463 42.0384 32.3874 42.0412Z" fill="#131313"/>
<path d="M47.8931 28.4217L47.0075 28.3914C46.6739 27.1635 46.1859 25.983 45.555 24.8782L46.1582 24.2319C46.5179 23.8488 46.7138 23.3405 46.7044 22.8152C46.6949 22.2899 46.4808 21.7889 46.1076 21.4191L43.3571 18.668C42.9871 18.2951 42.4862 18.0811 41.9609 18.0717C41.4357 18.0622 40.9274 18.258 40.5443 18.6174L39.8945 19.2247C38.7913 18.5932 37.6125 18.1043 36.3863 17.7697L36.3559 16.8851C36.3401 16.3596 36.1196 15.8611 35.7414 15.4958C35.3632 15.1306 34.8573 14.9276 34.3316 14.9301H30.4434C29.9178 14.9278 29.4121 15.1309 29.034 15.4959C28.6559 15.861 28.4352 16.3592 28.419 16.8846L28.3887 17.7707C27.1608 18.1043 25.9803 18.5923 24.8754 19.2232L24.2302 18.6199C23.8472 18.2603 23.339 18.0644 22.8137 18.0738C22.2885 18.0833 21.7877 18.2974 21.4179 18.6705L18.6668 21.4211C18.2938 21.7912 18.0801 22.2924 18.0711 22.8177C18.0622 23.3431 18.2586 23.8512 18.6187 24.2339L19.226 24.8832C18.5939 25.9865 18.1042 27.1655 17.7685 28.3919L16.8829 28.4222C16.3574 28.4382 15.8591 28.6588 15.4939 29.0369C15.1288 29.4151 14.9259 29.9209 14.9284 30.4466V34.3373C14.9259 34.863 15.1288 35.3688 15.4939 35.747C15.8591 36.1251 16.3574 36.3457 16.8829 36.3617L17.769 36.392C18.1023 37.6199 18.5904 38.8005 19.2215 39.9053L18.6187 40.548C18.259 40.931 18.0629 41.4393 18.0724 41.9647C18.0818 42.4901 18.296 42.991 18.6693 43.3608L21.4194 46.1109C21.7893 46.4842 22.2903 46.6984 22.8158 46.7079C23.3412 46.7173 23.8496 46.5213 24.2327 46.1615L24.882 45.5542C25.9851 46.1859 27.1639 46.675 28.3902 47.0097L28.4205 47.8953C28.4368 48.4206 28.6574 48.9189 29.0355 49.2839C29.4136 49.649 29.9193 49.852 30.4449 49.8498H34.3351C34.8608 49.8523 35.3666 49.6493 35.7448 49.2842C36.1229 48.9191 36.3435 48.4207 36.3595 47.8953L36.3898 47.0092C37.6177 46.6757 38.7982 46.1876 39.9031 45.5567L40.5493 46.16C40.9323 46.5197 41.4406 46.7157 41.966 46.7063C42.4914 46.6968 42.9923 46.4827 43.3621 46.1093L46.1122 43.3593C46.4856 42.9895 46.6999 42.4886 46.7093 41.9632C46.7188 41.4378 46.5227 40.9294 46.1628 40.5465L45.5555 39.8967C46.1862 38.7933 46.6743 37.6143 47.008 36.388L47.8931 36.3576C48.4186 36.3418 48.9171 36.1213 49.2823 35.7431C49.6476 35.3649 49.8506 34.859 49.8481 34.3333V30.4446C49.8502 29.9191 49.647 29.4136 49.2818 29.0357C48.9166 28.6579 48.4183 28.4376 47.8931 28.4217ZM48.3298 34.3353C48.3299 34.4666 48.279 34.5928 48.1878 34.6872C48.0965 34.7817 47.9722 34.8369 47.841 34.8414L46.385 34.892C46.2184 34.8977 46.0583 34.9581 45.9294 35.0638C45.8005 35.1695 45.71 35.3148 45.6719 35.477C45.334 36.9349 44.7566 38.3266 43.9634 39.5956C43.8749 39.7373 43.8356 39.9043 43.8517 40.0707C43.8678 40.2371 43.9384 40.3934 44.0524 40.5156L45.0484 41.5824C45.1379 41.6784 45.1867 41.8055 45.1843 41.9367C45.182 42.068 45.1287 42.1932 45.0358 42.2859L42.2857 45.0359C42.193 45.1289 42.0678 45.1821 41.9365 45.1845C41.8053 45.1869 41.6782 45.1381 41.5822 45.0486L40.5195 44.0557C40.3973 43.9417 40.241 43.8712 40.0748 43.8551C39.9086 43.839 39.7416 43.8782 39.5999 43.9666C38.329 44.7597 36.9352 45.3364 35.4753 45.6731C35.3125 45.7107 35.1666 45.8009 35.0603 45.9298C34.9539 46.0588 34.8931 46.2192 34.8873 46.3862L34.8367 47.8432C34.8321 47.9743 34.7767 48.0985 34.6823 48.1896C34.5879 48.2808 34.4618 48.3316 34.3306 48.3316H30.4434C30.3121 48.3316 30.1859 48.2807 30.0914 48.1895C29.997 48.0982 29.9417 47.9739 29.9373 47.8427L29.8867 46.3867C29.8809 46.22 29.8205 46.0599 29.7147 45.931C29.6088 45.8021 29.4635 45.7116 29.3011 45.6736C27.8432 45.3356 26.4513 44.7582 25.1821 43.9651C25.0403 43.8766 24.8733 43.8373 24.707 43.8534C24.5406 43.8695 24.3842 43.9401 24.2621 44.0541L23.1957 45.0501C23.1001 45.1402 22.973 45.1893 22.8417 45.187C22.7103 45.1846 22.5851 45.1309 22.4928 45.0375L19.7422 42.2874C19.6494 42.1946 19.5962 42.0694 19.5939 41.9381C19.5917 41.8069 19.6405 41.6799 19.7301 41.584L20.7225 40.5212C20.8365 40.3991 20.9069 40.2428 20.923 40.0765C20.9391 39.9103 20.9 39.7433 20.8116 39.6016C20.0184 38.3307 19.4417 36.9369 19.1051 35.477C19.0674 35.3142 18.977 35.1684 18.848 35.0621C18.719 34.9559 18.5585 34.8952 18.3915 34.8895L16.935 34.8389C16.8039 34.8343 16.6796 34.7789 16.5885 34.6845C16.4974 34.5901 16.4465 34.464 16.4466 34.3328V30.4446C16.4465 30.3133 16.4974 30.1872 16.5885 30.0928C16.6796 29.9984 16.8039 29.9431 16.935 29.9385L18.391 29.8879C18.558 29.8821 18.7185 29.8215 18.8475 29.7152C18.9765 29.609 19.0669 29.4631 19.1046 29.3003C19.4422 27.8424 20.0196 26.4506 20.8131 25.1818C20.9016 25.04 20.9409 24.873 20.9247 24.7066C20.9086 24.5403 20.8381 24.3839 20.724 24.2617L19.7281 23.1949C19.6385 23.099 19.5896 22.972 19.5919 22.8407C19.5942 22.7095 19.6473 22.5842 19.7402 22.4915L22.4913 19.7409C22.584 19.6482 22.7092 19.5951 22.8403 19.5928C22.9714 19.5906 23.0983 19.6393 23.1942 19.7288L24.257 20.7217C24.3792 20.8357 24.5355 20.9063 24.7019 20.9224C24.8683 20.9385 25.0353 20.8993 25.1771 20.8108C26.4479 20.0184 27.8416 19.4427 29.3011 19.1073C29.464 19.0696 29.6098 18.9793 29.716 18.8502C29.8223 18.7212 29.883 18.5607 29.8887 18.3937L29.9393 16.9372C29.9438 16.806 29.999 16.6816 30.0935 16.5904C30.1879 16.4992 30.3141 16.4482 30.4454 16.4483H34.3356C34.4669 16.4482 34.5931 16.4992 34.6875 16.5904C34.782 16.6816 34.8373 16.806 34.8417 16.9372L34.8923 18.3927C34.8979 18.559 34.958 18.7189 35.0633 18.8478C35.1687 18.9766 35.3134 19.0673 35.4753 19.1058C36.933 19.4439 38.3246 20.0214 39.5933 20.8148C39.7352 20.9034 39.9023 20.9428 40.0687 20.9266C40.2352 20.9105 40.3917 20.8399 40.5139 20.7257L41.5807 19.7298C41.6767 19.6402 41.8037 19.5913 41.9349 19.5936C42.0662 19.5959 42.1914 19.6491 42.2842 19.7419L45.0342 22.4925C45.1272 22.5852 45.1804 22.7104 45.1828 22.8416C45.1852 22.9729 45.1364 23.0999 45.0469 23.1959L44.054 24.2587C43.94 24.3808 43.8695 24.5371 43.8534 24.7034C43.8373 24.8696 43.8765 25.0365 43.9649 25.1783C44.758 26.4492 45.3347 27.843 45.6714 29.3028C45.7089 29.4657 45.7992 29.6116 45.9281 29.7179C46.057 29.8242 46.2175 29.885 46.3845 29.8909L47.841 29.9415C47.9721 29.9461 48.0963 30.0014 48.1874 30.0959C48.2785 30.1903 48.3294 30.3164 48.3293 30.4476L48.3298 34.3353Z" fill="#DE392E"/>
<path d="M35.5135 27.2143L30.7138 31.7635L29.3165 30.3657C28.8036 29.8527 28.1079 29.5646 27.3825 29.5646C26.6572 29.5646 25.9615 29.8527 25.4485 30.3657C24.9356 30.8786 24.6475 31.5743 24.6475 32.2996C24.6475 33.025 24.9356 33.7207 25.4485 34.2336L28.7285 37.5136C29.2307 38.0207 29.9121 38.3102 30.6258 38.3196C31.3395 38.3291 32.0283 38.0578 32.5438 37.5642L39.2768 31.1855C39.8034 30.6865 40.1102 29.9987 40.1297 29.2734C40.1492 28.5482 39.8798 27.8449 39.3808 27.3183C38.8817 26.7917 38.1939 26.4848 37.4687 26.4653C36.7434 26.4458 36.0401 26.7152 35.5135 27.2143ZM38.2322 30.0833L31.5013 36.4634C31.2715 36.6833 30.9645 36.8039 30.6465 36.7992C30.3285 36.7946 30.0252 36.6651 29.8019 36.4386L26.5225 33.1582C26.2943 32.93 26.1661 32.6206 26.1661 32.2979C26.1661 31.9752 26.2943 31.6657 26.5225 31.4375C26.7506 31.2094 27.0601 31.0812 27.3828 31.0812C27.7055 31.0812 28.015 31.2094 28.2431 31.4375L30.1622 33.3591C30.3021 33.4989 30.491 33.5786 30.6887 33.5813C30.8864 33.5839 31.0774 33.5093 31.2209 33.3733L36.5571 28.3165C36.6731 28.2066 36.8096 28.1206 36.9588 28.0634C37.1081 28.0063 37.2671 27.9791 37.4269 27.9834C37.5866 27.9877 37.744 28.0234 37.8899 28.0885C38.0359 28.1536 38.1676 28.2468 38.2775 28.3628C38.3874 28.4788 38.4734 28.6154 38.5306 28.7646C38.5877 28.9138 38.615 29.0729 38.6107 29.2326C38.6064 29.3924 38.5706 29.5497 38.5055 29.6957C38.4404 29.8416 38.3472 29.9733 38.2312 30.0833H38.2322Z" fill="#DE392E"/>
</g>
<defs>
<clipPath id="clip0_334_1446">
<rect width="64.7786" height="64.7786" fill="white"/>
</clipPath>
</defs>
</svg>
