<svg width="20" height="20" viewBox="0 0 20 20" fill="none" xmlns="http://www.w3.org/2000/svg">
<g clip-path="url(#clip0_356_4)">
<path d="M13.3333 6.83333C13.3289 6.34845 13.1344 5.88466 12.7915 5.54178C12.4486 5.1989 11.9848 5.00435 11.5 5C10.8333 5 10.3333 5.25 9.99996 5.75C9.66663 5.25 9.16663 5 8.49996 5C8.01508 5.00435 7.55128 5.1989 7.2084 5.54178C6.86553 5.88466 6.67097 6.34845 6.66663 6.83333C6.66663 7.33333 6.91663 7.83333 7.24996 8.16667C8.15759 9.06483 9.0743 9.95376 9.99996 10.8333C10.9214 9.97737 11.8381 9.11624 12.75 8.25C13.1237 7.87326 13.3334 7.36403 13.3333 6.83333Z" stroke="white" stroke-width="1.66667" stroke-linecap="round" stroke-linejoin="round"/>
<path d="M3.33337 16.25V3.74996C3.33337 3.19742 3.55287 2.66752 3.94357 2.27682C4.33427 1.88612 4.86417 1.66663 5.41671 1.66663H15.8334C16.0544 1.66663 16.2663 1.75442 16.4226 1.9107C16.5789 2.06698 16.6667 2.27895 16.6667 2.49996V17.5C16.6667 17.721 16.5789 17.9329 16.4226 18.0892C16.2663 18.2455 16.0544 18.3333 15.8334 18.3333H5.41671C4.86417 18.3333 4.33427 18.1138 3.94357 17.7231C3.55287 17.3324 3.33337 16.8025 3.33337 16.25ZM3.33337 16.25C3.33337 15.6974 3.55287 15.1675 3.94357 14.7768C4.33427 14.3861 4.86417 14.1666 5.41671 14.1666H16.6667" stroke="white" stroke-width="1.66667" stroke-linecap="round" stroke-linejoin="round"/>
</g>
<defs>
<clipPath id="clip0_356_4">
<rect width="20" height="20" fill="white"/>
</clipPath>
</defs>
</svg>
