<svg width="290" height="289" viewBox="0 0 290 289" fill="none" xmlns="http://www.w3.org/2000/svg">
<mask id="mask0_334_1654" style="mask-type:alpha" maskUnits="userSpaceOnUse" x="0" y="0" width="290" height="289">
<rect width="289.593" height="288.891" fill="#D9D9D9"/>
</mask>
<g mask="url(#mask0_334_1654)">
<rect width="289.593" height="288.891" fill="#D9D9D9"/>
</g>
<g clip-path="url(#clip0_334_1654)">
<path d="M144.966 134.106C156.934 134.01 166.559 124.229 166.464 112.26C166.368 100.29 156.588 90.665 144.619 90.7607C132.65 90.8565 123.025 100.637 123.121 112.607C123.217 124.576 132.997 134.202 144.966 134.106Z" fill="#999999"/>
<path fill-rule="evenodd" clip-rule="evenodd" d="M97.9856 179.211C97.9856 161.835 112.12 147.698 129.496 147.698H160.095C177.471 147.698 191.606 161.835 191.606 179.211V193.755C191.604 194.796 191.19 195.794 190.454 196.53C189.718 197.267 188.721 197.681 187.68 197.683H101.911C100.87 197.681 99.8722 197.267 99.1363 196.53C98.4004 195.794 97.9866 194.795 97.9856 193.754V179.211ZM101.911 203.19H187.68C190.181 203.188 192.58 202.193 194.349 200.424C196.118 198.655 197.114 196.256 197.117 193.755V179.211C197.09 169.4 193.18 159.999 186.243 153.062C179.306 146.126 169.905 142.217 160.095 142.191H129.496C119.686 142.217 110.286 146.126 103.349 153.063C96.4127 160 92.5044 169.401 92.4785 179.211V193.755C92.4811 196.257 93.4756 198.655 95.244 200.423C97.0123 202.192 99.4101 203.187 101.911 203.19ZM144.796 91.2076C148.991 91.2073 153.093 92.4513 156.582 94.7822C160.071 97.1131 162.79 100.426 164.396 104.302C166.001 108.179 166.422 112.444 165.603 116.559C164.785 120.675 162.764 124.455 159.798 127.422C156.831 130.389 153.051 132.409 148.936 133.228C144.821 134.046 140.555 133.626 136.679 132.021C132.802 130.415 129.489 127.696 127.158 124.207C124.827 120.719 123.583 116.617 123.583 112.421C123.589 106.797 125.826 101.405 129.803 97.4283C133.78 93.4514 139.172 91.2142 144.796 91.2076ZM144.796 139.142C150.081 139.142 155.247 137.575 159.641 134.639C164.036 131.703 167.461 127.53 169.483 122.648C171.506 117.765 172.035 112.392 171.004 107.209C169.974 102.025 167.429 97.2641 163.692 93.527C159.955 89.7899 155.194 87.2449 150.01 86.2137C144.827 85.1826 139.454 85.7117 134.571 87.7341C129.689 89.7565 125.515 93.1814 122.579 97.5757C119.643 101.97 118.076 107.136 118.076 112.421C118.083 119.505 120.901 126.297 125.91 131.307C130.92 136.316 137.711 139.134 144.796 139.142Z" fill="#BABABA"/>
</g>
<defs>
<clipPath id="clip0_334_1654">
<rect width="117.49" height="117.49" fill="white" transform="translate(86.0516 85.7002)"/>
</clipPath>
</defs>
</svg>
