<svg width="51" height="45" viewBox="0 0 51 45" fill="none" xmlns="http://www.w3.org/2000/svg">
<path d="M50.138 22.1877L37.7553 0.00012207H12.3827L0 22.1877L12.3827 44.3753H37.7553L50.138 22.1877Z" fill="#CB5553"/>
<path d="M33.8678 21.1459C34.0351 21.0695 34.1769 20.9441 34.276 20.7851C34.375 20.6261 34.4267 20.4405 34.4248 20.2514C34.4229 20.0622 34.3675 19.8778 34.2653 19.7209C34.1632 19.5641 34.0188 19.4417 33.8501 19.3689L25.8444 15.5945C25.601 15.4796 25.3367 15.4202 25.0692 15.4202C24.8017 15.4202 24.5373 15.4796 24.2939 15.5945L16.2892 19.3651C16.1229 19.4404 15.9814 19.5643 15.8821 19.7216C15.7828 19.8789 15.7299 20.0627 15.7299 20.2506C15.7299 20.4385 15.7828 20.6224 15.8821 20.7797C15.9814 20.9369 16.1229 21.0608 16.2892 21.1362L24.2939 24.9145C24.5373 25.0294 24.8017 25.0888 25.0692 25.0888C25.3367 25.0888 25.601 25.0294 25.8444 24.9145L33.8678 21.1459Z" stroke="white" stroke-width="1.86808" stroke-linecap="round" stroke-linejoin="round"/>
<path d="M34.4102 20.2548V26.0556" stroke="white" stroke-width="1.86808" stroke-linecap="round" stroke-linejoin="round"/>
<path d="M19.4651 22.6715V26.0553C19.4651 26.8245 20.0555 27.5623 21.1065 28.1062C22.1575 28.6501 23.583 28.9557 25.0693 28.9557C26.5557 28.9557 27.9811 28.6501 29.0321 28.1062C30.0831 27.5623 30.6736 26.8245 30.6736 26.0553V22.6715" stroke="white" stroke-width="1.86808" stroke-linecap="round" stroke-linejoin="round"/>
</svg>
