<svg width="1920" height="802" viewBox="0 0 1920 802" fill="none" xmlns="http://www.w3.org/2000/svg">
<mask id="mask0_409_1169" style="mask-type:alpha" maskUnits="userSpaceOnUse" x="0" y="0" width="1921" height="802">
<path d="M380.579 157.812C162.394 317.041 37.7322 231.433 0 154.867V801.555H1920V15.2314C1781.14 255.747 1530.46 216.355 1384.73 154.867C933.617 -81.0183 635.368 6.65162 509.771 68.2354C464.118 90.6204 421.65 127.839 380.579 157.812Z" fill="white"/>
</mask>
<g mask="url(#mask0_409_1169)">
<path d="M380.579 157.812C162.394 317.041 37.7322 231.433 0 154.867V801.555H1920V15.2314C1781.14 255.747 1530.46 216.355 1384.73 154.867C933.617 -81.0183 635.368 6.65162 509.771 68.2354C464.118 90.6204 421.65 127.839 380.579 157.812Z" fill="#EFEBEA"/>
</g>
</svg>
