<svg width="42" height="62" viewBox="0 0 42 62" fill="none" xmlns="http://www.w3.org/2000/svg">
<path d="M33.9155 2.42793C24.7531 -3.20807 11.5821 1.30073 4.45573 12.5101C-2.67062 23.7195 -1.07991 37.3711 8.0189 43.0071C9.73686 44.0717 11.6457 44.7606 13.6182 45.1363V36.1813H26.4074V43.1324C30.6705 41.0032 34.6154 37.559 37.5423 32.9876C44.6687 21.7782 43.078 8.12655 33.9791 2.49055M19.9173 32.925C15.7179 32.925 12.3456 29.606 12.3456 25.4729C12.3456 21.3398 15.7179 18.0209 19.9173 18.0209C24.1168 18.0209 27.4891 21.3398 27.4891 25.4729C27.4891 29.606 24.1168 32.925 19.9173 32.925Z" fill="#D91F28"/>
<path d="M33.4057 52.2795C33.7875 52.4048 34.1693 52.53 34.551 52.7179L35.1873 51.3402C34.2965 50.9019 33.2785 50.6514 32.2604 50.6514C31.2424 50.6514 30.3516 50.8392 29.588 51.2776C28.8245 51.7159 28.2519 52.3422 27.8701 53.0936C27.4883 53.9077 27.2974 54.8471 27.2974 55.9116C27.2974 57.6024 27.6792 58.9175 28.5064 59.7942C29.3335 60.6709 30.4788 61.1719 32.0059 61.1719C33.533 61.1719 33.9784 61.0467 34.8055 60.7336V59.2932C34.3601 59.4185 33.9148 59.5437 33.533 59.6063C33.1512 59.669 32.7058 59.7316 32.2604 59.7316C31.2424 59.7316 30.4788 59.4185 29.9062 58.7923C29.3972 58.166 29.079 57.2267 29.079 55.9743C29.079 54.7218 29.3335 53.8451 29.9062 53.1563C30.4788 52.4674 31.2424 52.1543 32.1968 52.1543C33.1512 52.1543 33.024 52.1543 33.4057 52.3422V52.2795ZM21.1891 61.0467V50.8392H19.4712V61.0467H21.1891ZM11.0723 52.2795H14.1264V50.8392H6.30017V52.2795H9.35432V61.0467H11.0723V52.2795Z" fill="black"/>
</svg>
