<svg width="51" height="41" viewBox="0 0 51 41" fill="none" xmlns="http://www.w3.org/2000/svg">
<path d="M11.0649 19.8168C11.077 18.5657 9.94874 17.6165 7.6801 16.969C2.51836 15.5542 -0.0416434 12.6859 7.28235e-05 8.36397C0.025871 5.69122 0.785179 3.62271 2.27799 2.15843C3.77081 0.694161 5.85359 -0.0250769 8.52635 0.000721269C11.1422 0.0259705 13.4893 1.38513 15.5676 4.07819C17.6453 6.82812 18.6653 10.165 18.6274 14.0888C18.5895 18.0127 16.8311 23.427 13.3521 30.3318C9.81624 37.2362 7.1953 40.6801 5.48929 40.6636C5.09122 40.6598 4.69534 40.4284 4.30167 39.9697C3.90799 39.5109 3.71334 39.054 3.71773 38.5991C6.20913 33.8459 8.06757 29.8543 9.29307 26.6244C10.4617 23.394 11.0523 21.1248 11.0649 19.8168ZM41.5296 18.8312C41.5379 17.9782 40.7483 17.2881 39.161 16.761C37.5162 16.2901 36.0197 15.1951 34.6713 13.4759C33.323 11.7567 32.659 9.84509 32.6793 7.74101C32.7012 5.46633 33.5147 3.6827 35.1196 2.39012C36.7245 1.09755 38.8064 0.463614 41.3654 0.488314C47.6208 0.548693 50.7115 4.41741 50.6374 12.0945C50.5995 16.0183 48.5857 21.3733 44.596 28.1595C40.6058 35.0025 37.5302 38.4136 35.3692 38.3928C34.4593 38.384 34.0107 37.7256 34.0233 36.4177C34.0266 36.0765 35.2726 33.6714 37.7612 29.2025C40.2499 24.7336 41.506 21.2765 41.5296 18.8312Z" fill="#748D6E"/>
</svg>
