<svg width="135" height="71" viewBox="0 0 135 71" fill="none" xmlns="http://www.w3.org/2000/svg">
<path d="M4.37411 3.3114C3.14024 2.33325 1.46176 0.515057 0 0C8.06387 25.834 25.2055 49.2009 49.4206 61.881C67.9429 71.5801 88.3682 72.3314 108.16 66.0545C117.201 63.1874 125.926 58.4634 133.948 53.4139C124.72 54.7395 115.53 56.1224 106.198 56.4805C82.0513 57.4069 57.1039 51.9858 36.9698 38.1506C34.5819 36.4763 32.2827 34.8281 30.1508 32.8293C36.1623 35.6749 41.5069 39.357 47.7435 41.9558C48.5596 42.3005 49.3795 42.6357 50.2032 42.9616C51.0269 43.2875 51.8542 43.6039 52.685 43.9106C53.5158 44.2174 54.3501 44.5146 55.188 44.8022C56.0258 45.0894 56.8665 45.3672 57.7102 45.6352C58.5544 45.9033 59.4015 46.1616 60.2512 46.4104C61.1013 46.6592 61.954 46.8977 62.8088 47.1267C63.6643 47.3555 64.522 47.5744 65.3817 47.7834C66.2419 47.9924 67.1047 48.1914 67.9696 48.3806C68.8341 48.5698 69.7007 48.7492 70.5694 48.9182C71.4381 49.0873 72.3087 49.2465 73.1809 49.3955C74.0531 49.5445 74.9272 49.6835 75.8025 49.8125C76.6781 49.9415 77.555 50.0603 78.4336 50.1687C79.3115 50.2772 80.1909 50.376 81.0715 50.4648C81.9515 50.5531 82.8328 50.6312 83.7152 50.699C84.5972 50.7668 85.4799 50.8248 86.3634 50.8726C87.2469 50.9203 88.1304 50.9577 89.0143 50.9851C89.8987 51.0121 90.7833 51.0293 91.6679 51.0365C92.5527 51.043 93.4372 51.0396 94.3213 51.0264C95.2057 51.0125 96.09 50.9887 96.974 50.955C97.858 50.9209 98.741 50.8766 99.6237 50.822C100.507 50.7674 101.389 50.703 102.27 50.6282C103.151 50.5534 104.032 50.4688 104.911 50.3738C105.791 50.2785 106.668 50.1732 107.545 50.058C108.422 49.9426 109.298 49.8171 110.172 49.6813C111.046 49.5455 111.918 49.3999 112.788 49.2443C113.659 49.0887 114.527 48.923 115.394 48.7471C116.261 48.5712 117.126 48.3854 117.988 48.19C118.851 47.994 119.711 47.7882 120.568 47.5726C121.426 47.357 122.281 47.1316 123.134 46.8965C123.986 46.661 124.836 46.4154 125.683 46.1605C126.529 45.9054 127.373 45.6409 128.214 45.3664C129.055 45.0919 129.893 44.8078 130.727 44.5137C131.839 44.1118 132.949 43.6995 134.054 43.2774C124.433 40.4644 115.257 33.9156 107.707 27.4452C100.561 21.3209 94.4395 15.0462 85.2391 12.1462C76.1525 9.28241 66.5592 9.45855 57.3583 11.6486C52.9889 12.6874 48.6138 14.0686 44.1637 14.7029C37.0103 15.7228 30.0069 15.3118 22.9954 13.551C15.6898 11.7155 10.2103 7.93716 4.37411 3.3114Z" fill="#85A37D"/>
</svg>
