<svg width="51" height="41" viewBox="0 0 51 41" fill="none" xmlns="http://www.w3.org/2000/svg">
<path d="M39.496 20.8996C39.496 22.1508 40.6334 23.0891 42.9082 23.7147C48.0834 25.0796 50.6709 27.923 50.6709 32.2451C50.6709 34.918 49.9316 36.9938 48.453 38.4724C46.9744 39.951 44.8987 40.6903 42.2258 40.6903C39.6098 40.6903 37.2497 39.3539 35.1455 36.681C33.0413 33.9512 31.9892 30.6244 31.9892 26.7003C31.9892 22.7763 33.6953 17.3453 37.1075 10.4072C40.5766 3.46905 43.1641 0 44.8702 0C45.2683 0 45.6664 0.227478 46.0645 0.682436C46.4626 1.13739 46.6616 1.59235 46.6616 2.04731C44.2162 6.82437 42.3964 10.8337 41.2021 14.0753C40.0647 17.3168 39.496 19.5916 39.496 20.8996ZM9.04229 22.1792C9.04229 23.0322 9.83846 23.7147 11.4308 24.2265C13.08 24.6815 14.5871 25.762 15.952 27.4681C17.3168 29.1742 17.9993 31.0793 17.9993 33.1835C17.9993 35.4583 17.2031 37.2497 15.6107 38.5577C14.0184 39.8657 11.9426 40.5197 9.38351 40.5197C3.12784 40.5197 0 36.681 0 29.0036C0 25.0796 1.96201 19.7054 5.88602 12.881C9.81003 5.99976 12.8526 2.55914 15.0136 2.55914C15.9235 2.55914 16.3785 3.21314 16.3785 4.52114C16.3785 4.86236 15.1558 7.27933 12.7104 11.772C10.265 16.2647 9.04229 19.7338 9.04229 22.1792Z" fill="#748D6E"/>
</svg>
